<svg width="333" height="253" viewBox="0 0 333 253" fill="none" xmlns="http://www.w3.org/2000/svg">
<g filter="url(#filter0_f_63_401)">
<path d="M80.3907 207.247C81.6269 207.261 94.1572 226.826 94.1572 234.429C94.1572 238.08 92.7068 241.582 90.1251 244.163C87.5434 246.745 84.0418 248.195 80.3907 248.195C76.7396 248.195 73.2381 246.745 70.6564 244.163C68.0747 241.582 66.6243 238.08 66.6243 234.429C66.6243 226.826 79.1553 207.233 80.3907 207.247Z" fill="#42A0F0"/>
<path d="M69.8949 239.574C71.2705 239.995 73.0187 238.265 73.7996 235.71C74.5806 233.156 74.0986 230.744 72.723 230.324C71.3475 229.903 69.5993 231.633 68.8183 234.187C68.0373 236.742 68.5193 239.154 69.8949 239.574Z" fill="white"/>
<path d="M152.244 207.247C153.48 207.261 166.01 226.826 166.01 234.429C166.01 238.08 164.56 241.582 161.978 244.163C159.397 246.745 155.895 248.195 152.244 248.195C148.593 248.195 145.091 246.745 142.51 244.163C139.928 241.582 138.477 238.08 138.477 234.429C138.477 226.826 151.008 207.233 152.244 207.247Z" fill="#42A0F0"/>
<path d="M141.748 239.574C143.124 239.995 144.872 238.265 145.653 235.71C146.434 233.156 145.952 230.744 144.576 230.324C143.201 229.903 141.452 231.633 140.671 234.187C139.891 236.742 140.373 239.154 141.748 239.574Z" fill="white"/>
<path d="M224.097 207.247C225.333 207.261 237.864 226.826 237.864 234.429C237.864 238.08 236.413 241.582 233.831 244.163C231.25 246.745 227.748 248.195 224.097 248.195C220.446 248.195 216.945 246.745 214.363 244.163C211.781 241.582 210.331 238.08 210.331 234.429C210.331 226.826 222.862 207.233 224.097 207.247Z" fill="#42A0F0"/>
<path d="M213.601 239.574C214.977 239.995 216.725 238.265 217.506 235.71C218.287 233.156 217.805 230.744 216.429 230.324C215.054 229.903 213.306 231.633 212.525 234.187C211.744 236.742 212.226 239.154 213.601 239.574Z" fill="white"/>
<path d="M116.704 146.983C117.94 146.997 130.47 166.562 130.47 174.165C130.47 177.816 129.02 181.317 126.438 183.899C123.856 186.481 120.355 187.931 116.704 187.931C113.052 187.931 109.551 186.481 106.969 183.899C104.388 181.317 102.937 177.816 102.937 174.165C102.937 166.562 115.468 146.969 116.704 146.983Z" fill="#42A0F0"/>
<path d="M106.208 179.31C107.583 179.731 109.332 178.001 110.113 175.446C110.893 172.892 110.411 170.48 109.036 170.06C107.66 169.639 105.912 171.369 105.131 173.923C104.35 176.478 104.832 178.889 106.208 179.31Z" fill="white"/>
<path d="M192.42 146.983C193.656 146.997 206.186 166.562 206.186 174.165C206.186 177.816 204.736 181.317 202.154 183.899C199.573 186.481 196.071 187.931 192.42 187.931C188.769 187.931 185.267 186.481 182.686 183.899C180.104 181.317 178.653 177.816 178.653 174.165C178.653 166.562 191.184 146.969 192.42 146.983Z" fill="#42A0F0"/>
<path d="M181.924 179.31C183.3 179.731 185.048 178.001 185.829 175.446C186.61 172.892 186.128 170.48 184.752 170.06C183.377 169.639 181.628 171.369 180.847 173.923C180.066 176.478 180.548 178.889 181.924 179.31Z" fill="white"/>
<g filter="url(#filter1_d_63_401)">
<path d="M223.464 198.748H75.5611C61.2133 198.737 47.4259 193.176 37.0853 183.23C26.7447 173.283 20.6526 159.722 20.0843 145.386C19.5161 131.049 24.5157 117.049 34.0366 106.315C43.5575 95.5814 56.8614 88.9468 71.1633 87.8003C73.2029 73.3988 79.7062 59.999 89.7584 49.4863C99.8106 38.9735 112.906 31.8769 127.202 29.1947C141.497 26.5124 156.274 28.3797 169.454 34.5337C182.633 40.6877 193.551 50.8188 200.672 63.5016C213.733 58.9802 227.845 58.452 241.208 61.9841C254.571 65.5163 266.578 72.9488 275.699 83.3335C284.82 93.7183 290.641 106.585 292.42 120.291C294.198 133.998 291.853 147.924 285.685 160.292C282.064 171.467 274.997 181.208 265.497 188.117C255.998 195.025 244.553 198.747 232.807 198.748H223.464Z" fill="url(#paint0_linear_63_401)"/>
<path d="M232.807 197.975C238.771 197.975 244.635 197.023 250.236 195.144C255.652 193.328 260.737 190.678 265.35 187.267C269.909 183.895 273.906 179.856 277.229 175.262C280.593 170.611 283.191 165.495 284.949 160.055L284.967 159.999L284.994 159.947C287.332 155.274 289.133 150.331 290.346 145.254C291.594 140.031 292.227 134.634 292.227 129.212C292.227 124.546 291.757 119.883 290.83 115.353C289.927 110.939 288.579 106.596 286.824 102.447C285.101 98.3727 282.968 94.443 280.484 90.767C278.024 87.1257 275.199 83.7016 272.087 80.5897C268.975 77.4778 265.551 74.6527 261.91 72.1927C258.234 69.7092 254.304 67.5762 250.23 65.8529C246.08 64.0978 241.738 62.7498 237.323 61.8465C232.793 60.9195 228.131 60.4494 223.465 60.4494C215.739 60.4494 208.155 61.7209 200.925 64.2284L200.315 64.44L199.998 63.8772C194.114 53.4146 185.555 44.6279 175.247 38.4672C170.034 35.3516 164.433 32.944 158.6 31.3112C152.582 29.6267 146.332 28.7726 140.022 28.7726C131.535 28.7726 123.251 30.3001 115.398 33.3125C107.813 36.2227 100.854 40.4265 94.7159 45.8072C88.6129 51.157 83.5481 57.4692 79.6624 64.5685C75.6812 71.8422 73.0791 79.6936 71.9284 87.9046L71.8423 88.5193L71.2236 88.5677C64.3024 89.1094 57.6433 90.9317 51.4314 93.9838C45.3954 96.9495 40.0055 100.961 35.4114 105.906C25.9714 116.068 20.7726 129.308 20.7726 143.187C20.7726 150.583 22.2211 157.758 25.0778 164.512C26.4509 167.759 28.1504 170.89 30.1292 173.819C32.0892 176.72 34.3403 179.448 36.8198 181.928C39.2992 184.407 42.0275 186.658 44.9288 188.618C47.8578 190.597 50.9888 192.297 54.2351 193.67C60.9891 196.526 68.1642 197.975 75.5608 197.975H223.465H232.807ZM232.807 198.748H223.465H75.5608C44.8756 198.748 20 173.872 20 143.187C20 113.981 42.533 90.0385 71.1633 87.7974C75.899 54.0042 104.924 28 140.022 28C166.061 28 188.756 42.3113 200.672 63.4985C207.813 61.022 215.481 59.6768 223.465 59.6768C261.868 59.6768 293 90.8092 293 129.212C293 140.384 290.366 150.939 285.684 160.292C278.47 182.607 257.523 198.748 232.807 198.748Z" fill="white" fill-opacity="0.5"/>
</g>
</g>
<defs>
<filter id="filter0_f_63_401" x="16" y="24" width="281" height="228.196" filterUnits="userSpaceOnUse" color-interpolation-filters="sRGB">
<feFlood flood-opacity="0" result="BackgroundImageFix"/>
<feBlend mode="normal" in="SourceGraphic" in2="BackgroundImageFix" result="shape"/>
<feGaussianBlur stdDeviation="2" result="effect1_foregroundBlur_63_401"/>
</filter>
<filter id="filter1_d_63_401" x="0" y="0" width="333" height="230.748" filterUnits="userSpaceOnUse" color-interpolation-filters="sRGB">
<feFlood flood-opacity="0" result="BackgroundImageFix"/>
<feColorMatrix in="SourceAlpha" type="matrix" values="0 0 0 0 0 0 0 0 0 0 0 0 0 0 0 0 0 0 127 0" result="hardAlpha"/>
<feOffset dx="10" dy="2"/>
<feGaussianBlur stdDeviation="15"/>
<feColorMatrix type="matrix" values="0 0 0 0 0.258824 0 0 0 0 0.627451 0 0 0 0 0.941176 0 0 0 0.596 0"/>
<feBlend mode="normal" in2="BackgroundImageFix" result="effect1_dropShadow_63_401"/>
<feBlend mode="normal" in="SourceGraphic" in2="effect1_dropShadow_63_401" result="shape"/>
</filter>
<linearGradient id="paint0_linear_63_401" x1="156.519" y1="28.0018" x2="235.823" y2="219.737" gradientUnits="userSpaceOnUse">
<stop stop-color="white" stop-opacity="0.604"/>
<stop offset="1" stop-color="white" stop-opacity="0.2"/>
</linearGradient>
</defs>
</svg>
