<svg width="346" height="278" viewBox="0 0 346 278" fill="none" xmlns="http://www.w3.org/2000/svg">
<g filter="url(#filter0_f_63_423)">
<path d="M89.146 173.166C131.942 173.166 166.635 138.297 166.635 95.2834C166.635 52.2699 131.942 17.4006 89.146 17.4006C46.3498 17.4006 11.6566 52.2699 11.6566 95.2834C11.6566 138.297 46.3498 173.166 89.146 173.166Z" fill="#FA9E42"/>
<g filter="url(#filter1_f_63_423)">
<path d="M83.5466 84.2078C109.3 70.5289 123.705 47.2531 115.72 32.22C107.735 17.1869 80.385 16.0891 54.6312 29.768C28.8775 43.4469 14.4729 66.7227 22.4577 81.7558C30.4424 96.7889 57.7929 97.8867 83.5466 84.2078Z" fill="#F8E36F"/>
</g>
<path d="M88.8864 232.305C90.1451 232.319 102.904 252.241 102.904 259.983C102.904 263.7 101.427 267.266 98.7981 269.894C96.1694 272.523 92.604 274 88.8864 274C85.1687 274 81.6034 272.523 78.9746 269.894C76.3459 267.266 74.869 263.7 74.869 259.983C74.869 252.242 87.6285 232.291 88.8864 232.305Z" fill="#42A0F0"/>
<path d="M78.1993 265.222C79.5999 265.65 81.38 263.889 82.1752 261.288C82.9704 258.687 82.4796 256.231 81.079 255.803C79.6783 255.374 77.8983 257.136 77.1031 259.737C76.3079 262.338 76.7987 264.794 78.1993 265.222Z" fill="white"/>
<path d="M162.049 232.305C163.308 232.319 176.066 252.241 176.066 259.983C176.066 263.7 174.589 267.266 171.961 269.894C169.332 272.523 165.767 274 162.049 274C158.331 274 154.766 272.523 152.137 269.894C149.508 267.266 148.032 263.7 148.032 259.983C148.032 252.242 160.791 232.291 162.049 232.305Z" fill="#42A0F0"/>
<path d="M151.362 265.222C152.763 265.65 154.543 263.889 155.338 261.288C156.133 258.687 155.642 256.231 154.242 255.803C152.841 255.374 151.061 257.136 150.266 259.737C149.47 262.338 149.961 264.794 151.362 265.222Z" fill="white"/>
<path d="M235.212 232.305C236.47 232.319 249.229 252.241 249.229 259.983C249.229 263.7 247.752 267.266 245.123 269.894C242.495 272.523 238.929 274 235.212 274C231.494 274 227.929 272.523 225.3 269.894C222.671 267.266 221.194 263.7 221.194 259.983C221.194 252.242 233.954 232.291 235.212 232.305Z" fill="#42A0F0"/>
<path d="M224.524 265.222C225.925 265.65 227.705 263.889 228.5 261.288C229.296 258.687 228.805 256.231 227.404 255.803C226.004 255.374 224.223 257.136 223.428 259.737C222.633 262.338 223.124 264.794 224.524 265.222Z" fill="white"/>
<path d="M125.861 170.943C127.12 170.957 139.878 190.879 139.878 198.621C139.878 202.338 138.402 205.904 135.773 208.532C133.144 211.161 129.579 212.638 125.861 212.638C122.143 212.638 118.578 211.161 115.949 208.532C113.321 205.904 111.844 202.338 111.844 198.621C111.844 190.88 124.603 170.929 125.861 170.943Z" fill="#42A0F0"/>
<path d="M115.174 203.859C116.575 204.288 118.355 202.526 119.15 199.925C119.945 197.324 119.454 194.869 118.054 194.44C116.653 194.012 114.873 195.774 114.078 198.375C113.282 200.976 113.773 203.431 115.174 203.859Z" fill="white"/>
<path d="M202.957 170.943C204.216 170.957 216.974 190.879 216.974 198.621C216.974 202.338 215.498 205.904 212.869 208.532C210.24 211.161 206.675 212.638 202.957 212.638C199.239 212.638 195.674 211.161 193.045 208.532C190.417 205.904 188.94 202.338 188.94 198.621C188.94 190.88 201.699 170.929 202.957 170.943Z" fill="#42A0F0"/>
<path d="M192.27 203.859C193.671 204.288 195.451 202.526 196.246 199.925C197.041 197.324 196.55 194.869 195.15 194.44C193.749 194.012 191.969 195.774 191.174 198.375C190.379 200.976 190.869 203.431 192.27 203.859Z" fill="white"/>
<g filter="url(#filter2_d_63_423)">
<path d="M234.566 223.652H83.9679C69.3587 223.64 55.3201 217.978 44.791 207.851C34.262 197.723 28.0589 183.915 27.4803 169.317C26.9016 154.719 31.9924 140.464 41.6868 129.534C51.3811 118.605 64.9275 111.85 79.4901 110.682C81.5668 96.0183 88.1886 82.3744 98.424 71.67C108.659 60.9657 121.993 53.7397 136.549 51.0086C151.106 48.2775 166.152 50.1788 179.571 56.445C192.991 62.7111 204.108 73.0268 211.359 85.9407C224.658 81.337 239.027 80.7991 252.633 84.3956C266.24 87.9921 278.466 95.5601 287.753 106.134C297.041 116.708 302.968 129.809 304.778 143.765C306.589 157.722 304.202 171.901 297.921 184.495C294.234 195.874 287.039 205.792 277.366 212.827C267.693 219.861 256.04 223.651 244.079 223.652H234.566Z" fill="url(#paint0_linear_63_423)"/>
<path d="M244.079 222.864C250.152 222.864 256.123 221.895 261.826 219.982C267.341 218.133 272.519 215.434 277.215 211.961C281.857 208.528 285.927 204.415 289.311 199.738C292.736 195.002 295.381 189.792 297.172 184.253L297.19 184.196L297.217 184.143C299.598 179.385 301.432 174.352 302.667 169.183C303.938 163.865 304.583 158.369 304.583 152.849C304.583 148.098 304.104 143.35 303.16 138.737C302.24 134.242 300.868 129.821 299.081 125.596C297.326 121.447 295.154 117.446 292.625 113.703C290.121 109.995 287.244 106.509 284.075 103.34C280.907 100.171 277.42 97.2948 273.713 94.79C269.97 92.2613 265.968 90.0894 261.82 88.3347C257.595 86.5476 253.173 85.1751 248.678 84.2553C244.065 83.3114 239.318 82.8328 234.567 82.8328C226.7 82.8328 218.979 84.1274 211.616 86.6806L210.995 86.8961L210.673 86.323C204.682 75.6697 195.967 66.7229 185.47 60.45C180.162 57.2776 174.459 54.8261 168.52 53.1635C162.393 51.4483 156.029 50.5787 149.604 50.5787C140.962 50.5787 132.527 52.134 124.531 55.2013C116.808 58.1645 109.722 62.445 103.472 67.9237C97.2576 73.371 92.1006 79.7982 88.144 87.0269C84.0903 94.4331 81.4408 102.428 80.2692 110.788L80.1815 111.414L79.5515 111.463C72.5041 112.015 65.7237 113.871 59.3986 116.978C53.2526 119.998 47.7645 124.082 43.0866 129.118C33.4747 139.465 28.1811 152.946 28.1811 167.078C28.1811 174.609 29.656 181.915 32.5648 188.792C33.9629 192.098 35.6934 195.286 37.7082 198.268C39.704 201.222 41.9961 204 44.5207 206.525C47.0454 209.05 49.8234 211.342 52.7775 213.337C55.7599 215.352 58.948 217.083 62.2534 218.481C69.1305 221.39 76.4363 222.864 83.9678 222.864H234.567H244.079ZM244.079 223.651H234.567H83.9678C52.7233 223.651 27.3944 198.322 27.3944 167.078C27.3944 137.34 50.3381 112.961 79.4901 110.679C84.3121 76.2701 113.866 49.792 149.604 49.792C176.117 49.792 199.226 64.364 211.359 85.9374C218.629 83.4158 226.438 82.0461 234.567 82.0461C273.67 82.0461 305.369 113.746 305.369 152.849C305.369 164.224 302.687 174.971 297.921 184.495C290.575 207.217 269.246 223.651 244.079 223.651Z" fill="white" fill-opacity="0.5"/>
</g>
</g>
<defs>
<filter id="filter0_f_63_423" x="7.65656" y="13.4006" width="301.713" height="264.599" filterUnits="userSpaceOnUse" color-interpolation-filters="sRGB">
<feFlood flood-opacity="0" result="BackgroundImageFix"/>
<feBlend mode="normal" in="SourceGraphic" in2="BackgroundImageFix" result="shape"/>
<feGaussianBlur stdDeviation="2" result="effect1_foregroundBlur_63_423"/>
</filter>
<filter id="filter1_f_63_423" x="0.254852" y="0.185791" width="137.668" height="113.604" filterUnits="userSpaceOnUse" color-interpolation-filters="sRGB">
<feFlood flood-opacity="0" result="BackgroundImageFix"/>
<feBlend mode="normal" in="SourceGraphic" in2="BackgroundImageFix" result="shape"/>
<feGaussianBlur stdDeviation="10" result="effect1_foregroundBlur_63_423"/>
</filter>
<filter id="filter2_d_63_423" x="7.39444" y="21.792" width="337.975" height="233.86" filterUnits="userSpaceOnUse" color-interpolation-filters="sRGB">
<feFlood flood-opacity="0" result="BackgroundImageFix"/>
<feColorMatrix in="SourceAlpha" type="matrix" values="0 0 0 0 0 0 0 0 0 0 0 0 0 0 0 0 0 0 127 0" result="hardAlpha"/>
<feOffset dx="10" dy="2"/>
<feGaussianBlur stdDeviation="15"/>
<feColorMatrix type="matrix" values="0 0 0 0 0.258824 0 0 0 0 0.627451 0 0 0 0 0.941176 0 0 0 0.596 0"/>
<feBlend mode="normal" in2="BackgroundImageFix" result="effect1_dropShadow_63_423"/>
<feBlend mode="normal" in="SourceGraphic" in2="effect1_dropShadow_63_423" result="shape"/>
</filter>
<linearGradient id="paint0_linear_63_423" x1="166.402" y1="49.7941" x2="247.15" y2="245.023" gradientUnits="userSpaceOnUse">
<stop stop-color="white" stop-opacity="0.604"/>
<stop offset="1" stop-color="white" stop-opacity="0.2"/>
</linearGradient>
</defs>
</svg>
