<svg width="287" height="245" viewBox="0 0 287 245" fill="none" xmlns="http://www.w3.org/2000/svg">
<g filter="url(#filter0_f_63_489)">
<path d="M112.578 130.188C113.037 130.2 117.696 146.378 117.696 152.665C117.696 158.952 115.404 164.049 112.578 164.049C109.751 164.049 107.459 158.953 107.459 152.666C107.459 146.379 112.119 130.177 112.578 130.188Z" fill="#42A0F0"/>
<path d="M110.105 154.589C110.852 154.818 111.837 153.765 112.304 152.236C112.772 150.708 112.544 149.284 111.796 149.056C111.049 148.827 110.064 149.88 109.596 151.409C109.129 152.937 109.357 154.361 110.105 154.589Z" fill="white"/>
<path d="M150.685 130.188C151.144 130.2 155.803 146.378 155.803 152.665C155.803 158.952 153.512 164.049 150.685 164.049C147.858 164.049 145.566 158.953 145.566 152.666C145.566 146.379 150.226 130.177 150.685 130.188Z" fill="#42A0F0"/>
<path d="M148.212 154.589C148.959 154.818 149.944 153.765 150.412 152.236C150.879 150.708 150.651 149.284 149.903 149.056C149.156 148.827 148.171 149.88 147.704 151.409C147.236 152.937 147.464 154.361 148.212 154.589Z" fill="white"/>
<path d="M185.881 128.264C186.341 128.276 191 144.455 191 150.742C191 157.028 188.708 162.126 185.881 162.126C183.055 162.126 180.763 157.029 180.763 150.742C180.763 144.455 185.422 128.254 185.881 128.264Z" fill="#42A0F0"/>
<path d="M183.408 152.666C184.156 152.894 185.141 151.841 185.608 150.313C186.075 148.784 185.848 147.36 185.1 147.132C184.352 146.903 183.367 147.957 182.9 149.485C182.433 151.013 182.66 152.437 183.408 152.666Z" fill="white"/>
<path d="M130.51 173.152C130.969 173.164 135.629 189.342 135.629 195.629C135.629 201.916 133.337 207.013 130.51 207.013C127.684 207.013 125.392 201.917 125.392 195.63C125.392 189.343 130.051 173.141 130.51 173.152Z" fill="#42A0F0"/>
<path d="M128.037 197.553C128.785 197.782 129.77 196.729 130.237 195.201C130.704 193.672 130.477 192.248 129.729 192.02C128.981 191.791 127.996 192.845 127.529 194.373C127.062 195.901 127.289 197.325 128.037 197.553Z" fill="white"/>
<path d="M168.618 173.152C169.077 173.164 173.736 189.342 173.736 195.629C173.736 201.916 171.444 207.013 168.618 207.013C165.791 207.013 163.499 201.917 163.499 195.63C163.499 189.343 168.158 173.141 168.618 173.152Z" fill="#42A0F0"/>
<path d="M166.144 197.553C166.892 197.782 167.877 196.729 168.344 195.201C168.811 193.672 168.584 192.248 167.836 192.02C167.088 191.791 166.103 192.845 165.636 194.373C165.169 195.901 165.396 197.325 166.144 197.553Z" fill="white"/>
<path d="M208.967 173.152C209.426 173.164 214.085 189.342 214.085 195.629C214.085 201.916 211.793 207.013 208.967 207.013C206.14 207.013 203.848 201.917 203.848 195.63C203.848 189.343 208.507 173.141 208.967 173.152Z" fill="#42A0F0"/>
<path d="M206.493 197.553C207.241 197.782 208.226 196.729 208.693 195.201C209.16 193.672 208.933 192.248 208.185 192.02C207.437 191.791 206.452 192.845 205.985 194.373C205.518 195.901 205.745 197.325 206.493 197.553Z" fill="white"/>
<path d="M112.578 207.138C113.037 207.15 117.696 223.329 117.696 229.616C117.696 235.902 115.404 241 112.578 241C109.751 241 107.459 235.903 107.459 229.616C107.459 223.329 112.119 207.128 112.578 207.138Z" fill="#42A0F0"/>
<path d="M110.105 231.54C110.852 231.768 111.837 230.715 112.304 229.187C112.772 227.659 112.544 226.235 111.796 226.006C111.049 225.777 110.064 226.831 109.596 228.359C109.129 229.887 109.357 231.311 110.105 231.54Z" fill="white"/>
<path d="M150.685 207.138C151.144 207.15 155.803 223.329 155.803 229.616C155.803 235.902 153.512 241 150.685 241C147.858 241 145.566 235.903 145.566 229.616C145.566 223.329 150.226 207.128 150.685 207.138Z" fill="#42A0F0"/>
<path d="M148.212 231.54C148.959 231.768 149.944 230.715 150.412 229.187C150.879 227.659 150.651 226.235 149.903 226.006C149.156 225.777 148.171 226.831 147.704 228.359C147.236 229.887 147.464 231.311 148.212 231.54Z" fill="white"/>
<path d="M185.881 207.138C186.341 207.15 191 223.329 191 229.616C191 235.902 188.708 241 185.881 241C183.055 241 180.763 235.903 180.763 229.616C180.763 223.329 185.422 207.128 185.881 207.138Z" fill="#42A0F0"/>
<path d="M183.408 231.54C184.156 231.768 185.141 230.715 185.608 229.187C186.075 227.659 185.848 226.235 185.1 226.006C184.352 225.777 183.367 226.831 182.9 228.359C182.433 229.887 182.66 231.311 183.408 231.54Z" fill="white"/>
<path d="M66.5102 152.712H96.4221L79.2269 177.963L99.3321 178.344L57.1325 228.29L67.3573 190.21H48.6384L66.5102 152.712Z" fill="url(#paint0_linear_63_489)"/>
<g filter="url(#filter1_d_63_489)">
<path d="M188.871 169.717H66.1145C54.2061 169.708 42.7629 165.093 34.1805 156.837C25.598 148.582 20.5417 137.327 20.07 125.428C19.5984 113.529 23.748 101.908 31.6501 92.9997C39.5522 84.091 50.5942 78.5845 62.4645 77.6329C64.1572 65.6799 69.5549 54.5584 77.8979 45.8331C86.241 37.1077 97.1097 31.2177 108.975 28.9915C120.84 26.7653 133.105 28.3151 144.043 33.4228C154.982 38.5305 164.044 46.939 169.954 57.4655C180.794 53.7129 192.507 53.2744 203.597 56.2058C214.688 59.1372 224.654 65.3057 232.224 73.9245C239.794 82.5432 244.626 93.2216 246.102 104.598C247.579 115.974 245.633 127.532 240.514 137.797C237.51 147.073 231.644 155.158 223.759 160.893C215.874 166.627 206.375 169.717 196.625 169.717H188.871Z" fill="url(#paint1_linear_63_489)"/>
<path d="M196.625 169.075C201.575 169.075 206.443 168.285 211.092 166.726C215.588 165.219 219.808 163.019 223.637 160.187C227.421 157.389 230.738 154.036 233.496 150.223C236.288 146.362 238.444 142.115 239.903 137.6L239.918 137.554L239.94 137.51C241.881 133.632 243.375 129.53 244.382 125.317C245.417 120.982 245.943 116.503 245.943 112.004C245.943 108.131 245.553 104.261 244.783 100.501C244.033 96.8374 242.915 93.2333 241.458 89.7894C240.028 86.4078 238.257 83.1462 236.196 80.0952C234.155 77.073 231.81 74.2311 229.227 71.6483C226.644 69.0655 223.802 66.7207 220.78 64.6789C217.729 62.6177 214.467 60.8474 211.086 59.4171C207.642 57.9604 204.038 56.8416 200.374 56.0918C196.614 55.3224 192.744 54.9323 188.871 54.9323C182.459 54.9323 176.165 55.9876 170.164 58.0689L169.657 58.2445L169.395 57.7774C164.511 49.0936 157.407 41.8009 148.852 36.6876C144.525 34.1017 139.876 32.1034 135.035 30.7482C130.04 29.3501 124.853 28.6413 119.616 28.6413C112.572 28.6413 105.696 29.909 99.1786 32.4093C92.8827 34.8247 87.1073 38.3137 82.0126 42.7796C76.9472 47.2198 72.7435 52.4588 69.5184 58.3511C66.2142 64.388 64.0545 70.9045 63.0995 77.7195L63.028 78.2296L62.5145 78.2698C56.77 78.7195 51.2431 80.2319 46.0873 82.7651C41.0776 85.2266 36.6041 88.5558 32.7911 92.6604C24.9562 101.094 20.6413 112.083 20.6413 123.602C20.6413 129.742 21.8435 135.697 24.2145 141.302C25.3541 143.997 26.7647 146.595 28.407 149.026C30.0338 151.434 31.9021 153.699 33.96 155.757C36.0179 157.815 38.2824 159.683 40.6904 161.31C43.1213 162.952 45.72 164.363 48.4144 165.502C54.0201 167.873 59.9752 169.075 66.1143 169.075H188.871H196.625ZM196.625 169.717H188.871H66.1143C40.6462 169.717 20 149.071 20 123.602C20 99.3624 38.7019 79.4906 62.4644 77.6305C66.395 49.5829 90.4846 28 119.616 28C141.227 28 160.064 39.8781 169.954 57.463C175.88 55.4076 182.245 54.2911 188.871 54.2911C220.745 54.2911 246.584 80.1303 246.584 112.004C246.584 121.274 244.398 130.035 240.514 137.797C234.527 156.32 217.141 169.717 196.625 169.717Z" fill="white" fill-opacity="0.5"/>
</g>
</g>
<defs>
<filter id="filter0_f_63_489" x="16" y="24" width="234.584" height="221" filterUnits="userSpaceOnUse" color-interpolation-filters="sRGB">
<feFlood flood-opacity="0" result="BackgroundImageFix"/>
<feBlend mode="normal" in="SourceGraphic" in2="BackgroundImageFix" result="shape"/>
<feGaussianBlur stdDeviation="2" result="effect1_foregroundBlur_63_489"/>
</filter>
<filter id="filter1_d_63_489" x="0" y="0" width="286.584" height="201.717" filterUnits="userSpaceOnUse" color-interpolation-filters="sRGB">
<feFlood flood-opacity="0" result="BackgroundImageFix"/>
<feColorMatrix in="SourceAlpha" type="matrix" values="0 0 0 0 0 0 0 0 0 0 0 0 0 0 0 0 0 0 127 0" result="hardAlpha"/>
<feOffset dx="10" dy="2"/>
<feGaussianBlur stdDeviation="15"/>
<feColorMatrix type="matrix" values="0 0 0 0 0.258824 0 0 0 0 0.627451 0 0 0 0 0.941176 0 0 0 0.596 0"/>
<feBlend mode="normal" in2="BackgroundImageFix" result="effect1_dropShadow_63_489"/>
<feBlend mode="normal" in="SourceGraphic" in2="effect1_dropShadow_63_489" result="shape"/>
</filter>
<linearGradient id="paint0_linear_63_489" x1="69.3214" y1="190.501" x2="45.6422" y2="181.82" gradientUnits="userSpaceOnUse">
<stop stop-color="#FFD100"/>
<stop offset="1" stop-color="#FFF0AA"/>
</linearGradient>
<linearGradient id="paint1_linear_63_489" x1="133.308" y1="28.0015" x2="199.128" y2="187.137" gradientUnits="userSpaceOnUse">
<stop stop-color="white" stop-opacity="0.604"/>
<stop offset="1" stop-color="white" stop-opacity="0.2"/>
</linearGradient>
</defs>
</svg>
