<svg width="305" height="250" viewBox="0 0 305 250" fill="none" xmlns="http://www.w3.org/2000/svg">
<g filter="url(#filter0_f_63_525)">
<path d="M128.669 132.494C129.136 132.506 133.876 148.965 133.876 155.361C133.876 161.757 131.545 166.943 128.669 166.943C125.794 166.943 123.462 161.758 123.462 155.362C123.462 148.966 128.202 132.483 128.669 132.494Z" fill="#42A0F0"/>
<path d="M126.153 157.319C126.914 157.551 127.916 156.48 128.391 154.925C128.867 153.37 128.635 151.922 127.874 151.689C127.114 151.456 126.112 152.528 125.636 154.083C125.161 155.637 125.392 157.086 126.153 157.319Z" fill="white"/>
<path d="M167.437 132.494C167.904 132.506 172.645 148.965 172.645 155.361C172.645 161.757 170.313 166.943 167.437 166.943C164.562 166.943 162.23 161.758 162.23 155.362C162.23 148.966 166.97 132.483 167.437 132.494Z" fill="#42A0F0"/>
<path d="M164.921 157.319C165.682 157.551 166.684 156.48 167.159 154.925C167.635 153.37 167.403 151.922 166.642 151.689C165.882 151.456 164.88 152.528 164.404 154.083C163.929 155.637 164.16 157.086 164.921 157.319Z" fill="white"/>
<path d="M203.244 130.537C203.711 130.549 208.452 147.008 208.452 153.404C208.452 159.8 206.12 164.986 203.244 164.986C200.369 164.986 198.037 159.801 198.037 153.405C198.037 147.009 202.777 130.526 203.244 130.537Z" fill="#42A0F0"/>
<path d="M200.728 155.362C201.489 155.594 202.491 154.522 202.966 152.968C203.442 151.413 203.21 149.964 202.449 149.732C201.689 149.499 200.687 150.571 200.211 152.125C199.736 153.68 199.967 155.129 200.728 155.362Z" fill="white"/>
<path d="M146.913 176.203C147.38 176.215 152.12 192.675 152.12 199.07C152.12 205.466 149.789 210.652 146.913 210.652C144.037 210.652 141.706 205.467 141.706 199.071C141.706 192.675 146.446 176.192 146.913 176.203Z" fill="#42A0F0"/>
<path d="M144.397 201.028C145.158 201.261 146.16 200.189 146.635 198.634C147.11 197.08 146.879 195.631 146.118 195.398C145.357 195.166 144.355 196.237 143.88 197.792C143.405 199.347 143.636 200.795 144.397 201.028Z" fill="white"/>
<path d="M185.681 176.203C186.148 176.215 190.888 192.675 190.888 199.07C190.888 205.466 188.557 210.652 185.681 210.652C182.805 210.652 180.474 205.467 180.474 199.071C180.474 192.675 185.214 176.192 185.681 176.203Z" fill="#42A0F0"/>
<path d="M183.165 201.028C183.926 201.261 184.928 200.189 185.403 198.634C185.878 197.08 185.647 195.631 184.886 195.398C184.125 195.166 183.123 196.237 182.648 197.792C182.173 199.347 182.404 200.795 183.165 201.028Z" fill="white"/>
<path d="M226.73 176.203C227.197 176.215 231.937 192.675 231.937 199.07C231.937 205.466 229.606 210.652 226.73 210.652C223.854 210.652 221.523 205.467 221.523 199.071C221.523 192.675 226.263 176.192 226.73 176.203Z" fill="#42A0F0"/>
<path d="M224.214 201.028C224.975 201.261 225.977 200.189 226.452 198.634C226.927 197.08 226.696 195.631 225.935 195.398C225.174 195.166 224.172 196.237 223.697 197.792C223.222 199.347 223.453 200.795 224.214 201.028Z" fill="white"/>
<path d="M128.669 210.78C129.136 210.791 133.876 227.251 133.876 233.647C133.876 240.043 131.545 245.228 128.669 245.228C125.794 245.228 123.462 240.043 123.462 233.647C123.462 227.251 128.202 210.768 128.669 210.78Z" fill="#42A0F0"/>
<path d="M126.153 235.604C126.914 235.837 127.916 234.765 128.391 233.21C128.867 231.656 128.635 230.207 127.874 229.974C127.114 229.742 126.112 230.813 125.636 232.368C125.161 233.923 125.392 235.371 126.153 235.604Z" fill="white"/>
<path d="M167.437 210.78C167.904 210.791 172.645 227.251 172.645 233.647C172.645 240.043 170.313 245.228 167.437 245.228C164.562 245.228 162.23 240.043 162.23 233.647C162.23 227.251 166.97 210.768 167.437 210.78Z" fill="#42A0F0"/>
<path d="M164.921 235.604C165.682 235.837 166.684 234.765 167.159 233.21C167.635 231.656 167.403 230.207 166.642 229.974C165.882 229.742 164.88 230.813 164.404 232.368C163.929 233.923 164.16 235.371 164.921 235.604Z" fill="white"/>
<path d="M203.244 210.78C203.711 210.791 208.452 227.251 208.452 233.647C208.452 240.043 206.12 245.228 203.244 245.228C200.369 245.228 198.037 240.043 198.037 233.647C198.037 227.251 202.777 210.768 203.244 210.78Z" fill="#42A0F0"/>
<path d="M200.728 235.604C201.489 235.837 202.491 234.765 202.966 233.21C203.442 231.656 203.21 230.207 202.449 229.974C201.689 229.742 200.687 230.813 200.211 232.368C199.736 233.923 199.967 235.371 200.728 235.604Z" fill="white"/>
<path d="M72.7788 137.03C105.361 137.03 131.774 110.483 131.774 77.7357C131.774 44.9882 105.361 18.4412 72.7788 18.4412C40.1967 18.4412 13.7837 44.9882 13.7837 77.7357C13.7837 110.483 40.1967 137.03 72.7788 137.03Z" fill="#FA9E42"/>
<g filter="url(#filter1_f_63_525)">
<path d="M68.5161 69.3032C88.1232 58.889 99.0899 41.1685 93.0109 29.7233C86.9318 18.2781 66.1091 17.4423 46.5019 27.8565C26.8947 38.2707 15.928 55.9913 22.0071 67.4365C28.0861 78.8817 48.9089 79.7175 68.5161 69.3032Z" fill="#F8E36F"/>
</g>
<path d="M81.8025 155.409H112.233L94.7398 181.098L115.194 181.486L72.2621 232.298L82.6643 193.557H63.6207L81.8025 155.409Z" fill="url(#paint0_linear_63_525)"/>
<g filter="url(#filter2_d_63_525)">
<path d="M206.286 172.709H81.4C69.2851 172.699 57.6434 168.004 48.9121 159.606C40.1807 151.207 35.0367 139.757 34.5569 127.651C34.077 115.546 38.2986 103.724 46.3378 94.6607C54.377 85.5974 65.6105 79.9954 77.6867 79.0273C79.4088 66.867 84.9001 55.5526 93.3879 46.6759C101.876 37.7992 112.933 31.8069 125.004 29.5421C137.075 27.2773 149.552 28.854 160.681 34.0503C171.809 39.2466 181.028 47.801 187.041 58.51C198.069 54.6924 209.985 54.2463 221.267 57.2285C232.55 60.2108 242.689 66.4863 250.391 75.2545C258.093 84.0228 263.008 94.8864 264.51 106.46C266.012 118.033 264.033 129.791 258.824 140.235C255.768 149.672 249.801 157.897 241.779 163.731C233.757 169.566 224.093 172.708 214.174 172.709H206.286Z" fill="url(#paint1_linear_63_525)"/>
<path d="M214.174 172.056C219.211 172.056 224.163 171.252 228.892 169.666C233.466 168.132 237.76 165.894 241.655 163.014C245.505 160.167 248.879 156.756 251.685 152.877C254.526 148.949 256.719 144.628 258.204 140.035L258.219 139.987L258.241 139.943C260.215 135.998 261.735 131.825 262.759 127.539C263.813 123.128 264.348 118.571 264.348 113.995C264.348 110.055 263.951 106.118 263.168 102.292C262.405 98.5649 261.267 94.8983 259.785 91.3947C258.33 87.9544 256.529 84.6362 254.432 81.5323C252.355 78.4577 249.969 75.5665 247.342 72.9389C244.714 70.3113 241.823 67.9258 238.749 65.8486C235.645 63.7517 232.326 61.9506 228.886 60.4955C225.382 59.0135 221.716 57.8753 217.988 57.1126C214.163 56.3298 210.226 55.933 206.286 55.933C199.763 55.933 193.359 57.0066 187.254 59.1239L186.739 59.3026L186.472 58.8273C181.503 49.9929 174.277 42.5737 165.572 37.3718C161.17 34.741 156.441 32.708 151.516 31.3294C146.435 29.907 141.157 29.1858 135.829 29.1858C128.663 29.1858 121.668 30.4756 115.038 33.0192C108.633 35.4765 102.757 39.0261 97.5739 43.5694C92.4206 48.0866 88.1441 53.4165 84.863 59.411C81.5014 65.5527 79.3043 72.1822 78.3327 79.1154L78.26 79.6344L77.7375 79.6753C71.8934 80.1327 66.2707 81.6714 61.0254 84.2486C55.9288 86.7527 51.3777 90.1397 47.4986 94.3155C39.5277 102.896 35.138 114.075 35.138 125.794C35.138 132.04 36.361 138.098 38.7732 143.801C39.9326 146.542 41.3676 149.186 43.0384 151.659C44.6935 154.109 46.5942 156.413 48.6878 158.506C50.7814 160.6 53.0851 162.501 55.5349 164.156C58.008 165.826 60.6518 167.261 63.3928 168.421C69.0958 170.833 75.1542 172.056 81.3998 172.056H206.286H214.174ZM214.174 172.708H206.286H81.3998C55.4899 172.708 34.4856 151.704 34.4856 125.794C34.4856 101.134 53.5119 80.9172 77.6866 79.0249C81.6853 50.4907 106.193 28.5334 135.829 28.5334C157.816 28.5334 176.979 40.6176 187.04 58.5076C193.07 56.4165 199.545 55.2806 206.286 55.2806C238.713 55.2806 265 81.568 265 113.995C265 123.425 262.776 132.339 258.824 140.235C252.734 159.079 235.046 172.708 214.174 172.708Z" fill="white" fill-opacity="0.5"/>
</g>
</g>
<defs>
<filter id="filter0_f_63_525" x="9.78369" y="14.4412" width="259.216" height="234.787" filterUnits="userSpaceOnUse" color-interpolation-filters="sRGB">
<feFlood flood-opacity="0" result="BackgroundImageFix"/>
<feBlend mode="normal" in="SourceGraphic" in2="BackgroundImageFix" result="shape"/>
<feGaussianBlur stdDeviation="2" result="effect1_foregroundBlur_63_525"/>
</filter>
<filter id="filter1_f_63_525" x="0.329956" y="0.561279" width="114.358" height="96.0371" filterUnits="userSpaceOnUse" color-interpolation-filters="sRGB">
<feFlood flood-opacity="0" result="BackgroundImageFix"/>
<feBlend mode="normal" in="SourceGraphic" in2="BackgroundImageFix" result="shape"/>
<feGaussianBlur stdDeviation="10" result="effect1_foregroundBlur_63_525"/>
</filter>
<filter id="filter2_d_63_525" x="14.4856" y="0.533447" width="290.514" height="204.175" filterUnits="userSpaceOnUse" color-interpolation-filters="sRGB">
<feFlood flood-opacity="0" result="BackgroundImageFix"/>
<feColorMatrix in="SourceAlpha" type="matrix" values="0 0 0 0 0 0 0 0 0 0 0 0 0 0 0 0 0 0 127 0" result="hardAlpha"/>
<feOffset dx="10" dy="2"/>
<feGaussianBlur stdDeviation="15"/>
<feColorMatrix type="matrix" values="0 0 0 0 0.258824 0 0 0 0 0.627451 0 0 0 0 0.941176 0 0 0 0.596 0"/>
<feBlend mode="normal" in2="BackgroundImageFix" result="effect1_dropShadow_63_525"/>
<feBlend mode="normal" in="SourceGraphic" in2="effect1_dropShadow_63_525" result="shape"/>
</filter>
<linearGradient id="paint0_linear_63_525" x1="84.6625" y1="193.854" x2="60.5725" y2="185.022" gradientUnits="userSpaceOnUse">
<stop stop-color="#FFD100"/>
<stop offset="1" stop-color="#FFF0AA"/>
</linearGradient>
<linearGradient id="paint1_linear_63_525" x1="149.759" y1="28.5349" x2="216.721" y2="190.431" gradientUnits="userSpaceOnUse">
<stop stop-color="white" stop-opacity="0.604"/>
<stop offset="1" stop-color="white" stop-opacity="0.2"/>
</linearGradient>
</defs>
</svg>
