<svg width="291" height="268" viewBox="0 0 291 268" fill="none" xmlns="http://www.w3.org/2000/svg">
<g filter="url(#filter0_f_63_564)">
<path d="M129.149 214.763C183.549 214.763 227.649 170.439 227.649 115.763C227.649 61.0868 183.549 16.7629 129.149 16.7629C74.749 16.7629 30.649 61.0868 30.649 115.763C30.649 170.439 74.749 214.763 129.149 214.763Z" fill="#FA9E42"/>
<g filter="url(#filter1_f_63_564)">
<path d="M122.031 101.684C154.768 84.2964 173.078 54.7096 162.929 35.6004C152.779 16.4912 118.013 15.0957 85.2759 32.4835C52.5393 49.8714 34.229 79.4581 44.3788 98.5674C54.5286 117.677 89.2948 119.072 122.031 101.684Z" fill="#F8E36F"/>
</g>
<g filter="url(#filter2_d_63_564)">
<path d="M48.1962 184.237H108.17C113.988 184.233 119.578 181.978 123.772 177.945C127.965 173.911 130.435 168.412 130.665 162.599C130.896 156.786 128.868 151.109 125.008 146.756C121.147 142.404 115.752 139.713 109.953 139.249C109.126 133.409 106.489 127.975 102.413 123.713C98.3369 119.45 93.0269 116.572 87.23 115.484C81.4332 114.397 75.4412 115.154 70.0972 117.649C64.7531 120.145 60.3258 124.253 57.4382 129.396C52.142 127.562 46.4197 127.348 41.0012 128.78C35.5828 130.213 30.7138 133.226 27.0152 137.437C23.3167 141.648 20.9564 146.865 20.2352 152.423C19.5141 157.981 20.4649 163.628 22.9663 168.644C24.4342 173.175 27.2999 177.125 31.152 179.926C35.0042 182.728 39.6448 184.237 44.4079 184.237H48.1962Z" fill="url(#paint0_linear_63_564)"/>
<path d="M44.4079 183.924C41.9895 183.924 39.6117 183.537 37.3405 182.776C35.1442 182.039 33.0823 180.965 31.212 179.582C29.3633 178.214 27.7427 176.577 26.3952 174.714C25.0309 172.828 23.9776 170.753 23.2645 168.547L23.2572 168.525L23.2465 168.503C22.2982 166.609 21.5679 164.604 21.0761 162.546C20.5699 160.428 20.3133 158.239 20.3133 156.041C20.3133 154.149 20.5039 152.258 20.8798 150.421C21.2461 148.631 21.7927 146.87 22.5044 145.188C23.2031 143.536 24.0681 141.942 25.0751 140.452C26.0726 138.975 27.2182 137.587 28.48 136.325C29.7419 135.063 31.1303 133.917 32.6068 132.92C34.0974 131.913 35.6909 131.048 37.343 130.349C39.0256 129.637 40.7864 129.091 42.5764 128.725C44.4134 128.349 46.3041 128.158 48.1961 128.158C51.3289 128.158 54.4039 128.674 57.3357 129.69L57.5831 129.776L57.7115 129.548C60.0974 125.305 63.568 121.743 67.748 119.244C69.862 117.981 72.1331 117.005 74.4983 116.343C76.9383 115.66 79.4728 115.313 82.0314 115.313C85.4728 115.313 88.8322 115.933 92.0161 117.154C95.092 118.334 97.9137 120.039 100.403 122.221C102.878 124.39 104.931 126.95 106.507 129.828C108.121 132.778 109.176 135.961 109.643 139.291L109.678 139.54L109.929 139.56C112.735 139.779 115.435 140.518 117.954 141.756C120.402 142.959 122.587 144.585 124.45 146.59C128.278 150.711 130.386 156.08 130.386 161.707C130.386 164.707 129.799 167.616 128.64 170.355C128.084 171.671 127.395 172.941 126.592 174.128C125.797 175.305 124.885 176.411 123.879 177.417C122.874 178.422 121.768 179.335 120.591 180.13C119.403 180.932 118.134 181.621 116.817 182.178C114.079 183.336 111.169 183.924 108.17 183.924H48.1961H44.4079ZM44.4079 184.237H48.1961H108.17C120.613 184.237 130.7 174.15 130.7 161.707C130.7 149.865 121.563 140.156 109.953 139.247C108.033 125.545 96.2637 115 82.0314 115C71.4729 115 62.27 120.803 57.4384 129.394C54.5429 128.39 51.4334 127.845 48.1961 127.845C32.624 127.845 20 140.469 20 156.041C20 160.571 21.0681 164.851 22.9664 168.644C25.8916 177.692 34.3856 184.237 44.4079 184.237Z" fill="white" fill-opacity="0.5"/>
<path d="M168.196 182.237H228.17C233.988 182.233 239.578 179.978 243.772 175.945C247.965 171.911 250.435 166.412 250.665 160.599C250.896 154.786 248.868 149.109 245.008 144.756C241.147 140.404 235.752 137.713 229.953 137.249C229.126 131.409 226.489 125.975 222.413 121.713C218.337 117.45 213.027 114.572 207.23 113.484C201.433 112.397 195.441 113.154 190.097 115.649C184.753 118.145 180.326 122.253 177.438 127.396C172.142 125.562 166.42 125.348 161.001 126.78C155.583 128.213 150.714 131.226 147.015 135.437C143.317 139.648 140.956 144.865 140.235 150.423C139.514 155.981 140.465 161.628 142.966 166.644C144.434 171.175 147.3 175.125 151.152 177.926C155.004 180.728 159.645 182.237 164.408 182.237H168.196Z" fill="url(#paint1_linear_63_564)"/>
<path d="M164.408 181.924C161.99 181.924 159.612 181.537 157.34 180.776C155.144 180.039 153.082 178.965 151.212 177.582C149.363 176.214 147.743 174.577 146.395 172.714C145.031 170.828 143.978 168.753 143.264 166.547L143.257 166.525L143.247 166.503C142.298 164.609 141.568 162.604 141.076 160.546C140.57 158.428 140.313 156.239 140.313 154.041C140.313 152.149 140.504 150.258 140.88 148.421C141.246 146.631 141.793 144.87 142.504 143.188C143.203 141.536 144.068 139.942 145.075 138.452C146.073 136.975 147.218 135.587 148.48 134.325C149.742 133.063 151.13 131.917 152.607 130.92C154.097 129.913 155.691 129.048 157.343 128.349C159.026 127.637 160.786 127.091 162.576 126.725C164.413 126.349 166.304 126.158 168.196 126.158C171.329 126.158 174.404 126.674 177.336 127.69L177.583 127.776L177.711 127.548C180.097 123.305 183.568 119.743 187.748 117.244C189.862 115.981 192.133 115.005 194.498 114.343C196.938 113.66 199.473 113.313 202.031 113.313C205.473 113.313 208.832 113.933 212.016 115.154C215.092 116.334 217.914 118.039 220.403 120.221C222.878 122.39 224.931 124.95 226.507 127.828C228.121 130.778 229.176 133.961 229.643 137.291L229.678 137.54L229.929 137.56C232.735 137.779 235.435 138.518 237.954 139.756C240.402 140.959 242.587 142.585 244.45 144.59C248.278 148.711 250.386 154.08 250.386 159.707C250.386 162.707 249.799 165.616 248.64 168.355C248.084 169.671 247.395 170.941 246.592 172.128C245.797 173.305 244.885 174.411 243.879 175.417C242.874 176.422 241.768 177.335 240.591 178.13C239.403 178.932 238.134 179.621 236.817 180.178C234.079 181.336 231.169 181.924 228.17 181.924H168.196H164.408ZM164.408 182.237H168.196H228.17C240.613 182.237 250.7 172.15 250.7 159.707C250.7 147.865 241.563 138.156 229.953 137.247C228.033 123.545 216.264 113 202.031 113C191.473 113 182.27 118.803 177.438 127.394C174.543 126.39 171.433 125.845 168.196 125.845C152.624 125.845 140 138.469 140 154.041C140 158.571 141.068 162.851 142.966 166.644C145.892 175.692 154.386 182.237 164.408 182.237Z" fill="white" fill-opacity="0.5"/>
</g>
<path d="M106.939 152.924C107.398 152.935 112.058 169.114 112.058 175.401C112.058 181.688 109.766 186.785 106.939 186.785C104.113 186.785 101.821 181.688 101.821 175.401C101.821 169.115 106.48 152.913 106.939 152.924Z" fill="#42A0F0"/>
<path d="M104.466 177.325C105.214 177.554 106.199 176.5 106.666 174.972C107.133 173.444 106.906 172.02 106.158 171.791C105.41 171.563 104.425 172.616 103.958 174.144C103.491 175.672 103.718 177.096 104.466 177.325Z" fill="white"/>
<path d="M145.046 152.924C145.506 152.935 150.165 169.114 150.165 175.401C150.165 181.688 147.873 186.785 145.046 186.785C142.22 186.785 139.928 181.688 139.928 175.401C139.928 169.115 144.587 152.913 145.046 152.924Z" fill="#42A0F0"/>
<path d="M142.573 177.325C143.321 177.554 144.306 176.5 144.773 174.972C145.24 173.444 145.013 172.02 144.265 171.791C143.517 171.563 142.532 172.616 142.065 174.144C141.598 175.672 141.825 177.096 142.573 177.325Z" fill="white"/>
<path d="M180.243 151C180.702 151.012 185.361 167.19 185.361 173.477C185.361 179.764 183.07 184.861 180.243 184.861C177.416 184.861 175.124 179.765 175.124 173.478C175.124 167.191 179.784 150.989 180.243 151Z" fill="#42A0F0"/>
<path d="M177.77 175.401C178.517 175.63 179.502 174.576 179.97 173.048C180.437 171.52 180.209 170.096 179.461 169.867C178.714 169.639 177.729 170.692 177.261 172.22C176.794 173.748 177.022 175.173 177.77 175.401Z" fill="white"/>
<path d="M124.872 195.888C125.331 195.899 129.99 212.078 129.99 218.365C129.99 224.652 127.699 229.749 124.872 229.749C122.045 229.749 119.753 224.652 119.753 218.366C119.753 212.079 124.413 195.877 124.872 195.888Z" fill="#42A0F0"/>
<path d="M122.399 220.289C123.147 220.518 124.131 219.464 124.599 217.936C125.066 216.408 124.838 214.984 124.091 214.755C123.343 214.527 122.358 215.58 121.891 217.108C121.423 218.636 121.651 220.06 122.399 220.289Z" fill="white"/>
<path d="M162.979 195.888C163.438 195.899 168.098 212.078 168.098 218.365C168.098 224.652 165.806 229.749 162.979 229.749C160.152 229.749 157.861 224.652 157.861 218.366C157.861 212.079 162.52 195.877 162.979 195.888Z" fill="#42A0F0"/>
<path d="M160.506 220.289C161.254 220.518 162.239 219.464 162.706 217.936C163.173 216.408 162.945 214.984 162.198 214.755C161.45 214.527 160.465 215.58 159.998 217.108C159.531 218.636 159.758 220.06 160.506 220.289Z" fill="white"/>
<path d="M203.328 195.888C203.787 195.899 208.447 212.078 208.447 218.365C208.447 224.652 206.155 229.749 203.328 229.749C200.501 229.749 198.21 224.652 198.21 218.366C198.21 212.079 202.869 195.877 203.328 195.888Z" fill="#42A0F0"/>
<path d="M200.855 220.289C201.603 220.518 202.588 219.464 203.055 217.936C203.522 216.408 203.294 214.984 202.547 214.755C201.799 214.527 200.814 215.58 200.347 217.108C199.88 218.636 200.107 220.06 200.855 220.289Z" fill="white"/>
<path d="M106.939 229.874C107.398 229.886 112.058 246.064 112.058 252.351C112.058 258.638 109.766 263.735 106.939 263.735C104.113 263.735 101.821 258.639 101.821 252.352C101.821 246.065 106.48 229.863 106.939 229.874Z" fill="#42A0F0"/>
<path d="M104.466 254.275C105.214 254.504 106.199 253.451 106.666 251.922C107.133 250.394 106.906 248.97 106.158 248.742C105.41 248.513 104.425 249.566 103.958 251.095C103.491 252.623 103.718 254.047 104.466 254.275Z" fill="white"/>
<path d="M145.046 229.874C145.506 229.886 150.165 246.064 150.165 252.351C150.165 258.638 147.873 263.735 145.046 263.735C142.22 263.735 139.928 258.639 139.928 252.352C139.928 246.065 144.587 229.863 145.046 229.874Z" fill="#42A0F0"/>
<path d="M142.573 254.275C143.321 254.504 144.306 253.451 144.773 251.922C145.24 250.394 145.013 248.97 144.265 248.742C143.517 248.513 142.532 249.566 142.065 251.095C141.598 252.623 141.825 254.047 142.573 254.275Z" fill="white"/>
<path d="M180.243 229.874C180.702 229.886 185.361 246.064 185.361 252.351C185.361 258.638 183.07 263.735 180.243 263.735C177.416 263.735 175.124 258.639 175.124 252.352C175.124 246.065 179.784 229.863 180.243 229.874Z" fill="#42A0F0"/>
<path d="M177.77 254.275C178.517 254.504 179.502 253.451 179.97 251.922C180.437 250.394 180.209 248.97 179.461 248.742C178.714 248.513 177.729 249.566 177.261 251.095C176.794 252.623 177.022 254.047 177.77 254.275Z" fill="white"/>
<path d="M60.8717 175.448H90.7836L73.5884 200.699L93.6937 201.08L51.494 251.026L61.7188 212.946H43L60.8717 175.448Z" fill="url(#paint2_linear_63_564)"/>
</g>
<defs>
<filter id="filter0_f_63_564" x="16" y="12.7629" width="238.7" height="254.972" filterUnits="userSpaceOnUse" color-interpolation-filters="sRGB">
<feFlood flood-opacity="0" result="BackgroundImageFix"/>
<feBlend mode="normal" in="SourceGraphic" in2="BackgroundImageFix" result="shape"/>
<feGaussianBlur stdDeviation="2" result="effect1_foregroundBlur_63_564"/>
</filter>
<filter id="filter1_f_63_564" x="21.5787" y="0.303223" width="164.15" height="133.561" filterUnits="userSpaceOnUse" color-interpolation-filters="sRGB">
<feFlood flood-opacity="0" result="BackgroundImageFix"/>
<feBlend mode="normal" in="SourceGraphic" in2="BackgroundImageFix" result="shape"/>
<feGaussianBlur stdDeviation="10" result="effect1_foregroundBlur_63_564"/>
</filter>
<filter id="filter2_d_63_564" x="0" y="85" width="290.7" height="131.237" filterUnits="userSpaceOnUse" color-interpolation-filters="sRGB">
<feFlood flood-opacity="0" result="BackgroundImageFix"/>
<feColorMatrix in="SourceAlpha" type="matrix" values="0 0 0 0 0 0 0 0 0 0 0 0 0 0 0 0 0 0 127 0" result="hardAlpha"/>
<feOffset dx="10" dy="2"/>
<feGaussianBlur stdDeviation="15"/>
<feColorMatrix type="matrix" values="0 0 0 0 0.258824 0 0 0 0 0.627451 0 0 0 0 0.941176 0 0 0 0.596 0"/>
<feBlend mode="normal" in2="BackgroundImageFix" result="effect1_dropShadow_63_564"/>
<feBlend mode="normal" in="SourceGraphic" in2="effect1_dropShadow_63_564" result="shape"/>
</filter>
<linearGradient id="paint0_linear_63_564" x1="75.3419" y1="115.001" x2="43.1849" y2="192.748" gradientUnits="userSpaceOnUse">
<stop stop-color="white" stop-opacity="0.604"/>
<stop offset="1" stop-color="white" stop-opacity="0.2"/>
</linearGradient>
<linearGradient id="paint1_linear_63_564" x1="195.342" y1="113.001" x2="163.185" y2="190.748" gradientUnits="userSpaceOnUse">
<stop stop-color="white" stop-opacity="0.604"/>
<stop offset="1" stop-color="white" stop-opacity="0.2"/>
</linearGradient>
<linearGradient id="paint2_linear_63_564" x1="63.683" y1="213.237" x2="40.0037" y2="204.556" gradientUnits="userSpaceOnUse">
<stop stop-color="#FFD100"/>
<stop offset="1" stop-color="#FFF0AA"/>
</linearGradient>
</defs>
</svg>
