<svg width="314" height="260" viewBox="0 0 314 260" fill="none" xmlns="http://www.w3.org/2000/svg">
<g filter="url(#filter0_f_63_272)">
<path d="M89.712 131.051C90.2267 131.064 95.4498 149.201 95.4498 156.248C95.4498 163.296 92.8806 169.01 89.712 169.01C86.5433 169.01 83.9742 163.296 83.9742 156.249C83.9742 149.201 89.1973 131.039 89.712 131.051Z" fill="#42A0F0"/>
<path d="M86.9395 158.405C87.7777 158.661 88.8819 157.48 89.4056 155.767C89.9293 154.054 89.6743 152.458 88.836 152.201C87.9977 151.945 86.8936 153.126 86.3699 154.839C85.8462 156.552 86.1012 158.148 86.9395 158.405Z" fill="white"/>
<path d="M129.529 131.051C130.044 131.064 135.267 149.201 135.267 156.248C135.267 163.296 132.698 169.01 129.529 169.01C126.361 169.01 123.792 163.296 123.792 156.249C123.792 149.201 129.015 131.039 129.529 131.051Z" fill="#42A0F0"/>
<path d="M126.757 158.405C127.595 158.661 128.699 157.48 129.223 155.767C129.747 154.054 129.492 152.458 128.654 152.201C127.815 151.945 126.711 153.126 126.187 154.839C125.664 156.552 125.919 158.148 126.757 158.405Z" fill="white"/>
<path d="M172.248 131.051C172.763 131.064 177.986 149.201 177.986 156.248C177.986 163.296 175.417 169.01 172.248 169.01C169.079 169.01 166.51 163.296 166.51 156.249C166.51 149.201 171.733 131.039 172.248 131.051Z" fill="#42A0F0"/>
<path d="M169.476 158.405C170.314 158.661 171.418 157.48 171.942 155.767C172.466 154.054 172.211 152.458 171.372 152.201C170.534 151.945 169.43 153.126 168.906 154.839C168.382 156.552 168.637 158.148 169.476 158.405Z" fill="white"/>
<path d="M211.703 128.895C212.218 128.907 217.441 147.044 217.441 154.091C217.441 161.139 214.872 166.853 211.703 166.853C208.535 166.853 205.966 161.14 205.966 154.092C205.966 147.045 211.189 128.882 211.703 128.895Z" fill="#42A0F0"/>
<path d="M208.931 156.248C209.769 156.505 210.873 155.324 211.397 153.611C211.921 151.898 211.666 150.301 210.827 150.045C209.989 149.789 208.885 150.969 208.361 152.683C207.838 154.396 208.093 155.992 208.931 156.248Z" fill="white"/>
<path d="M149.633 179.214C150.147 179.227 155.37 197.363 155.37 204.411C155.37 211.458 152.801 217.172 149.633 217.172C146.464 217.172 143.895 211.459 143.895 204.411C143.895 197.364 149.118 179.201 149.633 179.214Z" fill="#42A0F0"/>
<path d="M146.86 206.567C147.698 206.824 148.803 205.643 149.326 203.93C149.85 202.217 149.595 200.62 148.757 200.364C147.918 200.108 146.814 201.289 146.291 203.002C145.767 204.715 146.022 206.311 146.86 206.567Z" fill="white"/>
<path d="M192.351 179.214C192.865 179.227 198.088 197.363 198.088 204.411C198.088 211.458 195.519 217.172 192.351 217.172C189.182 217.172 186.613 211.459 186.613 204.411C186.613 197.364 191.836 179.201 192.351 179.214Z" fill="#42A0F0"/>
<path d="M189.578 206.567C190.416 206.824 191.521 205.643 192.044 203.93C192.568 202.217 192.313 200.62 191.475 200.364C190.636 200.108 189.532 201.289 189.009 203.002C188.485 204.715 188.74 206.311 189.578 206.567Z" fill="white"/>
<path d="M237.582 179.214C238.096 179.227 243.319 197.363 243.319 204.411C243.319 211.458 240.75 217.172 237.582 217.172C234.413 217.172 231.844 211.459 231.844 204.411C231.844 197.364 237.067 179.201 237.582 179.214Z" fill="#42A0F0"/>
<path d="M234.809 206.567C235.647 206.824 236.752 205.643 237.275 203.93C237.799 202.217 237.544 200.62 236.706 200.364C235.867 200.108 234.763 201.289 234.24 203.002C233.716 204.715 233.971 206.311 234.809 206.567Z" fill="white"/>
<path d="M106.915 181.37C107.429 181.383 112.652 199.519 112.652 206.567C112.652 213.615 110.083 219.329 106.915 219.329C103.746 219.329 101.177 213.615 101.177 206.568C101.177 199.52 106.4 181.358 106.915 181.37Z" fill="#42A0F0"/>
<path d="M104.142 208.724C104.98 208.98 106.085 207.799 106.608 206.086C107.132 204.373 106.877 202.777 106.039 202.52C105.2 202.264 104.096 203.445 103.573 205.158C103.049 206.871 103.304 208.468 104.142 208.724Z" fill="white"/>
<path d="M66.709 179.214C67.2237 179.227 72.4468 197.363 72.4468 204.411C72.4468 211.458 69.8777 217.172 66.709 217.172C63.5403 217.172 60.9712 211.459 60.9712 204.411C60.9712 197.364 66.1943 179.201 66.709 179.214Z" fill="#42A0F0"/>
<path d="M63.9365 206.567C64.7748 206.824 65.8789 205.643 66.4026 203.93C66.9264 202.217 66.6714 200.62 65.8331 200.364C64.9948 200.108 63.8907 201.289 63.3669 203.002C62.8432 204.715 63.0982 206.311 63.9365 206.567Z" fill="white"/>
<path d="M89.712 217.313C90.2267 217.325 95.4498 235.462 95.4498 242.509C95.4498 249.557 92.8806 255.271 89.712 255.271C86.5433 255.271 83.9742 249.558 83.9742 242.51C83.9742 235.463 89.1973 217.3 89.712 217.313Z" fill="#42A0F0"/>
<path d="M86.9395 244.666C87.7777 244.922 88.8819 243.741 89.4056 242.028C89.9293 240.315 89.6743 238.719 88.836 238.463C87.9977 238.206 86.8936 239.387 86.3699 241.1C85.8462 242.813 86.1012 244.41 86.9395 244.666Z" fill="white"/>
<path d="M129.529 217.313C130.044 217.325 135.267 235.462 135.267 242.509C135.267 249.557 132.698 255.271 129.529 255.271C126.361 255.271 123.792 249.558 123.792 242.51C123.792 235.463 129.015 217.3 129.529 217.313Z" fill="#42A0F0"/>
<path d="M126.757 244.666C127.595 244.922 128.699 243.741 129.223 242.028C129.747 240.315 129.492 238.719 128.654 238.463C127.815 238.206 126.711 239.387 126.187 241.1C125.664 242.813 125.919 244.41 126.757 244.666Z" fill="white"/>
<path d="M172.248 217.313C172.763 217.325 177.986 235.462 177.986 242.509C177.986 249.557 175.417 255.271 172.248 255.271C169.079 255.271 166.51 249.558 166.51 242.51C166.51 235.463 171.733 217.3 172.248 217.313Z" fill="#42A0F0"/>
<path d="M169.476 244.666C170.314 244.922 171.418 243.741 171.942 242.028C172.466 240.315 172.211 238.719 171.372 238.463C170.534 238.206 169.43 239.387 168.906 241.1C168.382 242.813 168.637 244.41 169.476 244.666Z" fill="white"/>
<path d="M211.703 217.313C212.218 217.325 217.441 235.462 217.441 242.509C217.441 249.557 214.872 255.271 211.703 255.271C208.535 255.271 205.966 249.558 205.966 242.51C205.966 235.463 211.189 217.3 211.703 217.313Z" fill="#42A0F0"/>
<path d="M208.931 244.666C209.769 244.922 210.873 243.741 211.397 242.028C211.921 240.315 211.666 238.719 210.827 238.463C209.989 238.206 208.885 239.387 208.361 241.1C207.838 242.813 208.093 244.41 208.931 244.666Z" fill="white"/>
<g filter="url(#filter1_d_63_272)">
<path d="M209.304 186.865H71.6942C58.345 186.854 45.5172 181.681 35.8962 172.426C26.2753 163.172 20.6072 150.555 20.0785 137.216C19.5498 123.878 24.2014 110.851 33.0597 100.865C41.9179 90.8782 54.296 84.7054 67.6025 83.6386C69.5001 70.2394 75.5508 57.7722 84.9034 47.9912C94.256 38.2101 106.44 31.6073 119.741 29.1118C133.041 26.6162 146.79 28.3535 159.052 34.0792C171.314 39.8049 181.472 49.2309 188.098 61.031C200.25 56.8244 213.379 56.3329 225.812 59.619C238.244 62.9051 249.416 69.8199 257.902 79.4815C266.389 89.1431 271.805 101.114 273.46 113.866C275.115 126.618 272.934 139.575 267.195 151.083C263.828 161.481 257.252 170.544 248.413 176.973C239.574 183.401 228.926 186.864 217.996 186.865H209.304Z" fill="url(#paint0_linear_63_272)"/>
<path d="M217.996 186.145C223.546 186.145 229.002 185.259 234.214 183.512C239.253 181.822 243.985 179.356 248.276 176.182C252.518 173.044 256.237 169.286 259.329 165.012C262.459 160.684 264.875 155.923 266.511 150.861L266.528 150.809L266.552 150.761C268.728 146.413 270.403 141.815 271.531 137.092C272.692 132.232 273.281 127.211 273.281 122.168C273.281 117.827 272.844 113.489 271.981 109.274C271.141 105.166 269.887 101.126 268.254 97.2657C266.651 93.475 264.666 89.8187 262.355 86.3986C260.067 83.0107 257.438 79.8249 254.543 76.9296C251.648 74.0343 248.462 71.4058 245.074 69.117C241.654 66.8064 237.998 64.8218 234.207 63.2185C230.346 61.5855 226.306 60.3314 222.199 59.4909C217.984 58.6284 213.645 58.1911 209.304 58.1911C202.116 58.1911 195.06 59.374 188.333 61.7071L187.766 61.904L187.471 61.3803C181.997 51.6459 174.033 43.4707 164.442 37.7388C159.592 34.84 154.381 32.5999 148.954 31.0808C143.355 29.5135 137.54 28.7188 131.669 28.7188C123.773 28.7188 116.065 30.14 108.759 32.9428C101.701 35.6504 95.2271 39.5617 89.5159 44.5679C83.8376 49.5453 79.1254 55.4183 75.5101 62.0234C71.806 68.7909 69.385 76.0959 68.3144 83.7355L68.2343 84.3073L67.6586 84.3524C61.2191 84.8564 55.0235 86.5519 49.2439 89.3915C43.628 92.1508 38.6132 95.8829 34.3388 100.484C25.5559 109.939 20.7189 122.257 20.7189 135.17C20.7189 142.052 22.0665 148.728 24.7245 155.012C26.002 158.032 27.5832 160.945 29.4242 163.67C31.2479 166.37 33.3423 168.908 35.6492 171.215C37.9561 173.522 40.4945 175.616 43.1939 177.44C45.919 179.281 48.8321 180.862 51.8524 182.14C58.1364 184.798 64.8121 186.145 71.694 186.145H209.304H217.996ZM217.996 186.864H209.304H71.694C43.1443 186.864 20 163.72 20 135.17C20 107.997 40.9648 85.7208 67.6025 83.6357C72.0086 52.1944 99.0131 28 131.669 28C155.896 28 177.012 41.3153 188.098 61.028C194.741 58.7239 201.876 57.4722 209.304 57.4722C245.035 57.4722 274 86.4379 274 122.168C274 132.56 271.549 142.381 267.195 151.082C260.485 171.846 240.995 186.864 217.996 186.864Z" fill="white" fill-opacity="0.5"/>
</g>
</g>
<defs>
<filter id="filter0_f_63_272" x="16" y="24" width="262" height="235.271" filterUnits="userSpaceOnUse" color-interpolation-filters="sRGB">
<feFlood flood-opacity="0" result="BackgroundImageFix"/>
<feBlend mode="normal" in="SourceGraphic" in2="BackgroundImageFix" result="shape"/>
<feGaussianBlur stdDeviation="2" result="effect1_foregroundBlur_63_272"/>
</filter>
<filter id="filter1_d_63_272" x="3.05176e-05" y="0" width="314" height="218.865" filterUnits="userSpaceOnUse" color-interpolation-filters="sRGB">
<feFlood flood-opacity="0" result="BackgroundImageFix"/>
<feColorMatrix in="SourceAlpha" type="matrix" values="0 0 0 0 0 0 0 0 0 0 0 0 0 0 0 0 0 0 127 0" result="hardAlpha"/>
<feOffset dx="10" dy="2"/>
<feGaussianBlur stdDeviation="15"/>
<feColorMatrix type="matrix" values="0 0 0 0 0.258824 0 0 0 0 0.627451 0 0 0 0 0.941176 0 0 0 0.596 0"/>
<feBlend mode="normal" in2="BackgroundImageFix" result="effect1_dropShadow_63_272"/>
<feBlend mode="normal" in="SourceGraphic" in2="effect1_dropShadow_63_272" result="shape"/>
</filter>
<linearGradient id="paint0_linear_63_272" x1="147.018" y1="28.002" x2="220.802" y2="206.393" gradientUnits="userSpaceOnUse">
<stop stop-color="white" stop-opacity="0.604"/>
<stop offset="1" stop-color="white" stop-opacity="0.2"/>
</linearGradient>
</defs>
</svg>
