<svg width="299" height="232" viewBox="0 0 299 232" fill="none" xmlns="http://www.w3.org/2000/svg">
<g filter="url(#filter0_f_63_612)">
<path d="M92.1904 136.424L137.161 208.377" stroke="#42A0F0" stroke-width="9" stroke-linecap="round"/>
<path d="M103.04 154.103L107.437 133.565" stroke="#42A0F0" stroke-width="9" stroke-linecap="round"/>
<path d="M103.04 154.103L82.2529 149.306" stroke="#42A0F0" stroke-width="9" stroke-linecap="round"/>
<path d="M127.024 192.478L147.412 197.524" stroke="#42A0F0" stroke-width="9" stroke-linecap="round"/>
<path d="M127.024 192.478L122.227 213.265" stroke="#42A0F0" stroke-width="9" stroke-linecap="round"/>
<path d="M134.604 135.344L94.7764 210.267" stroke="#42A0F0" stroke-width="9" stroke-linecap="round"/>
<path d="M124.719 153.579L144.703 147.119" stroke="#42A0F0" stroke-width="9" stroke-linecap="round"/>
<path d="M124.719 153.579L118.48 133.179" stroke="#42A0F0" stroke-width="9" stroke-linecap="round"/>
<path d="M103.478 193.538L109.3 213.717" stroke="#42A0F0" stroke-width="9" stroke-linecap="round"/>
<path d="M103.478 193.538L83.077 199.777" stroke="#42A0F0" stroke-width="9" stroke-linecap="round"/>
<path d="M156.746 171.536L71.9474 174.505" stroke="#42A0F0" stroke-width="9" stroke-linecap="round"/>
<path d="M136.011 172.092L151.598 186.169" stroke="#42A0F0" stroke-width="9" stroke-linecap="round"/>
<path d="M136.011 172.092L150.559 156.489" stroke="#42A0F0" stroke-width="9" stroke-linecap="round"/>
<path d="M90.7854 173.676L76.221 188.809" stroke="#42A0F0" stroke-width="9" stroke-linecap="round"/>
<path d="M90.7854 173.676L75.1818 159.128" stroke="#42A0F0" stroke-width="9" stroke-linecap="round"/>
<path d="M204.367 181.888L187.256 220.314" stroke="#42A0F0" stroke-width="6.00313" stroke-linecap="round"/>
<path d="M200.107 191.247L209.767 187.362" stroke="#42A0F0" stroke-width="6.00313" stroke-linecap="round"/>
<path d="M200.107 191.246L196.317 181.373" stroke="#42A0F0" stroke-width="6.00313" stroke-linecap="round"/>
<path d="M190.981 211.74L194.557 221.519" stroke="#42A0F0" stroke-width="6.00313" stroke-linecap="round"/>
<path d="M190.981 211.741L181.107 215.53" stroke="#42A0F0" stroke-width="6.00313" stroke-linecap="round"/>
<path d="M216.565 199.022L174.732 203.416" stroke="#42A0F0" stroke-width="6.00313" stroke-linecap="round"/>
<path d="M206.33 200.012L214.525 206.435" stroke="#42A0F0" stroke-width="6.00313" stroke-linecap="round"/>
<path d="M206.33 200.012L212.986 191.793" stroke="#42A0F0" stroke-width="6.00313" stroke-linecap="round"/>
<path d="M184.019 202.356L177.338 210.341" stroke="#42A0F0" stroke-width="6.00313" stroke-linecap="round"/>
<path d="M184.019 202.356L175.8 195.7" stroke="#42A0F0" stroke-width="6.00313" stroke-linecap="round"/>
<path d="M207.826 218.153L183.103 184.121" stroke="#42A0F0" stroke-width="6.00313" stroke-linecap="round"/>
<path d="M201.851 209.784L200.385 220.092" stroke="#42A0F0" stroke-width="6.00313" stroke-linecap="round"/>
<path d="M201.851 209.784L212.296 211.439" stroke="#42A0F0" stroke-width="6.00313" stroke-linecap="round"/>
<path d="M188.665 191.634L178.409 189.842" stroke="#42A0F0" stroke-width="6.00313" stroke-linecap="round"/>
<path d="M188.665 191.634L190.32 181.189" stroke="#42A0F0" stroke-width="6.00313" stroke-linecap="round"/>
<g filter="url(#filter1_d_63_612)">
<path d="M197.6 177.042H68.4981C55.9743 177.032 43.9396 172.179 34.9135 163.497C25.8874 154.815 20.5698 142.978 20.0737 130.464C19.5777 117.95 23.9418 105.729 32.2523 96.3596C40.5629 86.9904 52.1756 81.1992 64.6594 80.1984C66.4397 67.6277 72.1163 55.9313 80.8906 46.755C89.665 37.5787 101.095 31.3841 113.574 29.0429C126.052 26.7017 138.951 28.3315 150.455 33.7032C161.959 39.0749 171.489 47.9181 177.705 58.9886C189.105 55.0421 201.423 54.5809 213.087 57.6639C224.751 60.7468 235.232 67.2341 243.193 76.2984C251.155 85.3626 256.236 96.5929 257.789 108.557C259.342 120.521 257.296 132.676 251.912 143.472C248.752 153.227 242.583 161.731 234.291 167.762C225.998 173.793 216.008 177.042 205.754 177.042H197.6Z" fill="url(#paint0_linear_63_612)"/>
<path d="M205.754 176.367C210.961 176.367 216.08 175.536 220.969 173.896C225.697 172.311 230.136 169.997 234.162 167.02C238.142 164.077 241.631 160.551 244.531 156.541C247.468 152.48 249.735 148.014 251.27 143.265L251.285 143.216L251.308 143.17C253.349 139.092 254.921 134.778 255.979 130.347C257.069 125.788 257.621 121.077 257.621 116.346C257.621 112.273 257.211 108.203 256.402 104.249C255.613 100.395 254.437 96.6051 252.905 92.9831C251.4 89.4267 249.539 85.9966 247.371 82.7879C245.224 79.6095 242.758 76.6206 240.041 73.9044C237.325 71.1881 234.336 68.7221 231.158 66.5748C227.949 64.407 224.519 62.5452 220.963 61.0409C217.341 59.509 213.55 58.3323 209.697 57.5438C205.743 56.7347 201.672 56.3244 197.6 56.3244C190.856 56.3244 184.237 57.4342 177.925 59.6231L177.393 59.8077L177.117 59.3165C171.981 50.1839 164.51 42.5142 155.512 37.1367C150.961 34.4171 146.072 32.3155 140.981 30.8903C135.728 29.4199 130.272 28.6744 124.765 28.6744C117.357 28.6744 110.125 30.0077 103.271 32.6372C96.6499 35.1774 90.5759 38.8468 85.2178 43.5435C79.8906 48.2132 75.4697 53.723 72.0779 59.9198C68.6029 66.2688 66.3316 73.1221 65.3272 80.2894L65.252 80.8259L64.7119 80.8682C58.6705 81.341 52.858 82.9317 47.4357 85.5958C42.167 88.1845 37.4623 91.6858 33.4522 96.0025C25.2123 104.873 20.6744 116.429 20.6744 128.544C20.6744 135 21.9387 141.263 24.4323 147.159C25.6309 149.992 27.1143 152.725 28.8415 155.282C30.5524 157.814 32.5173 160.196 34.6816 162.36C36.8459 164.524 39.2273 166.489 41.7598 168.2C44.3164 169.927 47.0494 171.411 49.883 172.609C55.7785 175.103 62.0414 176.367 68.4978 176.367H197.6H205.754ZM205.754 177.042H197.6H68.4978C41.7133 177.042 20 155.328 20 128.544C20 103.051 39.6686 82.152 64.6593 80.1958C68.793 50.6985 94.1278 28 124.765 28C147.493 28 167.304 40.492 177.704 58.9859C183.937 56.8242 190.631 55.65 197.6 55.65C231.121 55.65 258.295 82.8247 258.295 116.346C258.295 126.095 255.996 135.309 251.911 143.472C245.616 162.953 227.331 177.042 205.754 177.042Z" fill="white" fill-opacity="0.5"/>
</g>
</g>
<defs>
<filter id="filter0_f_63_612" x="16" y="24" width="246.296" height="204.521" filterUnits="userSpaceOnUse" color-interpolation-filters="sRGB">
<feFlood flood-opacity="0" result="BackgroundImageFix"/>
<feBlend mode="normal" in="SourceGraphic" in2="BackgroundImageFix" result="shape"/>
<feGaussianBlur stdDeviation="2" result="effect1_foregroundBlur_63_612"/>
</filter>
<filter id="filter1_d_63_612" x="0" y="0" width="298.296" height="209.042" filterUnits="userSpaceOnUse" color-interpolation-filters="sRGB">
<feFlood flood-opacity="0" result="BackgroundImageFix"/>
<feColorMatrix in="SourceAlpha" type="matrix" values="0 0 0 0 0 0 0 0 0 0 0 0 0 0 0 0 0 0 127 0" result="hardAlpha"/>
<feOffset dx="10" dy="2"/>
<feGaussianBlur stdDeviation="15"/>
<feColorMatrix type="matrix" values="0 0 0 0 0.258824 0 0 0 0 0.627451 0 0 0 0 0.941176 0 0 0 0.596 0"/>
<feBlend mode="normal" in2="BackgroundImageFix" result="effect1_dropShadow_63_612"/>
<feBlend mode="normal" in="SourceGraphic" in2="effect1_dropShadow_63_612" result="shape"/>
</filter>
<linearGradient id="paint0_linear_63_612" x1="139.165" y1="28.0017" x2="208.387" y2="195.363" gradientUnits="userSpaceOnUse">
<stop stop-color="white" stop-opacity="0.604"/>
<stop offset="1" stop-color="white" stop-opacity="0.2"/>
</linearGradient>
</defs>
</svg>
