<svg width="258" height="221" viewBox="0 0 258 221" fill="none" xmlns="http://www.w3.org/2000/svg">
<g filter="url(#filter0_f_63_669)">
<path d="M155.15 216.763C209.55 216.763 253.65 172.439 253.65 117.763C253.65 63.0868 209.55 18.7629 155.15 18.7629C100.75 18.7629 56.6501 63.0868 56.6501 117.763C56.6501 172.439 100.75 216.763 155.15 216.763Z" fill="#FA9E42"/>
<g filter="url(#filter1_f_63_669)">
<path d="M148.033 103.684C180.769 86.2964 199.08 56.7096 188.93 37.6004C178.78 18.4912 144.014 17.0957 111.277 34.4835C78.5405 51.8714 60.2302 81.4581 70.38 100.567C80.5297 119.677 115.296 121.072 148.033 103.684Z" fill="#F8E36F"/>
</g>
<g filter="url(#filter2_d_63_669)">
<path d="M48.196 97.2371H108.17C113.988 97.2327 119.578 94.9779 123.771 90.9447C127.964 86.9115 130.435 81.4126 130.665 75.5992C130.896 69.7859 128.868 64.1087 125.008 59.7563C121.147 55.4039 115.752 52.7136 109.953 52.2487C109.126 46.409 106.489 40.9755 102.413 36.7126C98.3368 32.4498 93.0268 29.5722 87.2299 28.4845C81.4331 27.3969 75.4411 28.1541 70.097 30.6495C64.7529 33.1449 60.3257 37.253 57.4381 42.3957C52.1419 40.5624 46.4196 40.3482 41.0011 41.7804C35.5827 43.2127 30.7136 46.2265 27.0151 50.4375C23.3166 54.6484 20.9563 59.8656 20.2351 65.4236C19.514 70.9816 20.4648 76.6284 22.9662 81.6437C24.4341 86.175 27.2998 90.1248 31.1519 92.9262C35.0041 95.7277 39.6446 97.2369 44.4077 97.2371H48.196Z" fill="url(#paint0_linear_63_669)"/>
<path d="M44.4079 96.9236C41.9895 96.9236 39.6116 96.5375 37.3404 95.7759C35.1442 95.0394 33.0823 93.9647 31.212 92.5815C29.3632 91.2143 27.7426 89.5766 26.3951 87.7138C25.0308 85.8278 23.9775 83.753 23.2644 81.5472L23.2571 81.5246L23.2465 81.5034C22.2981 79.6086 21.5679 77.6042 21.076 75.5459C20.5699 73.4279 20.3132 71.2393 20.3132 69.0408C20.3132 67.1488 20.5038 65.2581 20.8797 63.4212C21.246 61.6311 21.7926 59.8703 22.5043 58.1877C23.2031 56.5356 24.068 54.9421 25.075 53.4516C26.0725 51.975 27.2181 50.5866 28.48 49.3248C29.7418 48.0629 31.1303 46.9173 32.6068 45.9198C34.0974 44.9128 35.6908 44.0479 37.3429 43.3491C39.0255 42.6374 40.7863 42.0908 42.5764 41.7245C44.4133 41.3486 46.304 41.158 48.196 41.158C51.3288 41.158 54.4038 41.6736 57.3357 42.6904L57.5831 42.7762L57.7114 42.548C60.0973 38.3054 63.5679 34.7425 67.748 32.2444C69.8619 30.981 72.133 30.0047 74.4982 29.3427C76.9383 28.6596 79.4728 28.3133 82.0313 28.3133C85.4728 28.3133 88.8321 28.9327 92.0161 30.1542C95.092 31.3342 97.9136 33.0389 100.403 35.2207C102.877 37.39 104.931 39.9496 106.507 42.8283C108.121 45.7777 109.176 48.9614 109.643 52.2909L109.678 52.5401L109.929 52.5598C112.735 52.7794 115.435 53.5184 117.954 54.756C120.402 55.9585 122.587 57.5851 124.45 59.5904C128.278 63.7109 130.386 69.0796 130.386 74.7074C130.386 77.7067 129.799 80.6161 128.64 83.3548C128.084 84.6712 127.395 85.9408 126.592 87.1284C125.797 88.3049 124.885 89.4112 123.879 90.4166C122.874 91.422 121.767 92.3348 120.591 93.1296C119.403 93.932 118.134 94.6211 116.817 95.1779C114.079 96.3363 111.169 96.9236 108.17 96.9236H48.196H44.4079ZM44.4079 97.2369H48.196H108.17C120.613 97.2369 130.699 87.15 130.699 74.7074C130.699 62.8647 121.562 53.1561 109.953 52.2474C108.033 38.5445 96.2636 28 82.0313 28C71.4728 28 62.27 33.8031 57.4383 42.3944C54.5428 41.3902 51.4333 40.8447 48.196 40.8447C32.6239 40.8447 19.9999 53.4687 19.9999 69.0408C19.9999 73.5707 21.068 77.8509 22.9663 81.6436C25.8915 90.6921 34.3856 97.2369 44.4079 97.2369Z" fill="white" fill-opacity="0.5"/>
</g>
</g>
<defs>
<filter id="filter0_f_63_669" x="16" y="14.7629" width="241.65" height="206" filterUnits="userSpaceOnUse" color-interpolation-filters="sRGB">
<feFlood flood-opacity="0" result="BackgroundImageFix"/>
<feBlend mode="normal" in="SourceGraphic" in2="BackgroundImageFix" result="shape"/>
<feGaussianBlur stdDeviation="2" result="effect1_foregroundBlur_63_669"/>
</filter>
<filter id="filter1_f_63_669" x="47.5798" y="2.30334" width="164.15" height="133.561" filterUnits="userSpaceOnUse" color-interpolation-filters="sRGB">
<feFlood flood-opacity="0" result="BackgroundImageFix"/>
<feBlend mode="normal" in="SourceGraphic" in2="BackgroundImageFix" result="shape"/>
<feGaussianBlur stdDeviation="10" result="effect1_foregroundBlur_63_669"/>
</filter>
<filter id="filter2_d_63_669" x="0" y="0" width="170.699" height="129.237" filterUnits="userSpaceOnUse" color-interpolation-filters="sRGB">
<feFlood flood-opacity="0" result="BackgroundImageFix"/>
<feColorMatrix in="SourceAlpha" type="matrix" values="0 0 0 0 0 0 0 0 0 0 0 0 0 0 0 0 0 0 127 0" result="hardAlpha"/>
<feOffset dx="10" dy="2"/>
<feGaussianBlur stdDeviation="15"/>
<feColorMatrix type="matrix" values="0 0 0 0 0.258824 0 0 0 0 0.627451 0 0 0 0 0.941176 0 0 0 0.596 0"/>
<feBlend mode="normal" in2="BackgroundImageFix" result="effect1_dropShadow_63_669"/>
<feBlend mode="normal" in="SourceGraphic" in2="effect1_dropShadow_63_669" result="shape"/>
</filter>
<linearGradient id="paint0_linear_63_669" x1="75.3417" y1="28.0009" x2="43.1848" y2="105.748" gradientUnits="userSpaceOnUse">
<stop stop-color="white" stop-opacity="0.604"/>
<stop offset="1" stop-color="white" stop-opacity="0.2"/>
</linearGradient>
</defs>
</svg>
