<svg width="303" height="252" viewBox="0 0 303 252" fill="none" xmlns="http://www.w3.org/2000/svg">
<g filter="url(#filter0_f_64_681)">
<path d="M97.968 157.585L142.392 228.664" stroke="#42A0F0" stroke-width="9" stroke-linecap="round"/>
<path d="M108.686 175.049L113.03 154.762" stroke="#42A0F0" stroke-width="9" stroke-linecap="round"/>
<path d="M108.686 175.049L88.1514 170.311" stroke="#42A0F0" stroke-width="9" stroke-linecap="round"/>
<path d="M132.379 212.958L152.518 217.943" stroke="#42A0F0" stroke-width="9" stroke-linecap="round"/>
<path d="M132.379 212.958L127.64 233.492" stroke="#42A0F0" stroke-width="9" stroke-linecap="round"/>
<path d="M139.866 156.519L100.523 230.531" stroke="#42A0F0" stroke-width="9" stroke-linecap="round"/>
<path d="M130.101 174.533L149.843 168.151" stroke="#42A0F0" stroke-width="9" stroke-linecap="round"/>
<path d="M130.101 174.533L123.938 154.38" stroke="#42A0F0" stroke-width="9" stroke-linecap="round"/>
<path d="M109.118 214.005L114.87 233.939" stroke="#42A0F0" stroke-width="9" stroke-linecap="round"/>
<path d="M109.118 214.005L88.9653 220.169" stroke="#42A0F0" stroke-width="9" stroke-linecap="round"/>
<path d="M161.739 192.271L77.971 195.204" stroke="#42A0F0" stroke-width="9" stroke-linecap="round"/>
<path d="M141.256 192.821L156.654 206.726" stroke="#42A0F0" stroke-width="9" stroke-linecap="round"/>
<path d="M141.256 192.82L155.627 177.406" stroke="#42A0F0" stroke-width="9" stroke-linecap="round"/>
<path d="M96.5801 194.385L82.1928 209.334" stroke="#42A0F0" stroke-width="9" stroke-linecap="round"/>
<path d="M96.5801 194.385L81.1661 180.014" stroke="#42A0F0" stroke-width="9" stroke-linecap="round"/>
<path d="M208.781 202.497L191.878 240.456" stroke="#42A0F0" stroke-width="6.00313" stroke-linecap="round"/>
<path d="M204.573 211.742L214.115 207.904" stroke="#42A0F0" stroke-width="6.00313" stroke-linecap="round"/>
<path d="M204.573 211.742L200.829 201.988" stroke="#42A0F0" stroke-width="6.00313" stroke-linecap="round"/>
<path d="M195.558 231.987L199.09 241.646" stroke="#42A0F0" stroke-width="6.00313" stroke-linecap="round"/>
<path d="M195.558 231.987L185.804 235.73" stroke="#42A0F0" stroke-width="6.00313" stroke-linecap="round"/>
<path d="M220.831 219.423L179.506 223.764" stroke="#42A0F0" stroke-width="6.00313" stroke-linecap="round"/>
<path d="M210.721 220.401L218.815 226.746" stroke="#42A0F0" stroke-width="6.00313" stroke-linecap="round"/>
<path d="M210.72 220.401L217.296 212.282" stroke="#42A0F0" stroke-width="6.00313" stroke-linecap="round"/>
<path d="M188.681 222.717L182.081 230.605" stroke="#42A0F0" stroke-width="6.00313" stroke-linecap="round"/>
<path d="M188.68 222.716L180.562 216.141" stroke="#42A0F0" stroke-width="6.00313" stroke-linecap="round"/>
<path d="M212.198 238.321L187.776 204.703" stroke="#42A0F0" stroke-width="6.00313" stroke-linecap="round"/>
<path d="M206.295 230.055L204.848 240.237" stroke="#42A0F0" stroke-width="6.00313" stroke-linecap="round"/>
<path d="M206.296 230.054L216.614 231.689" stroke="#42A0F0" stroke-width="6.00313" stroke-linecap="round"/>
<path d="M193.27 212.125L183.139 210.354" stroke="#42A0F0" stroke-width="6.00313" stroke-linecap="round"/>
<path d="M193.27 212.125L194.905 201.806" stroke="#42A0F0" stroke-width="6.00313" stroke-linecap="round"/>
<path d="M78.7172 150.409C114.959 150.409 144.338 120.88 144.338 84.4551C144.338 48.0298 114.959 18.5012 78.7172 18.5012C42.4759 18.5012 13.0964 48.0298 13.0964 84.4551C13.0964 120.88 42.4759 150.409 78.7172 150.409Z" fill="#FA9E42"/>
<g filter="url(#filter1_f_64_681)">
<path d="M73.9756 75.076C95.7847 63.4922 107.983 43.7814 101.221 31.0508C94.4595 18.3202 71.2982 17.3906 49.489 28.9744C27.6798 40.5582 15.4815 60.2689 22.2433 72.9995C29.0051 85.7301 52.1664 86.6598 73.9756 75.076Z" fill="#F8E36F"/>
</g>
<g filter="url(#filter2_d_64_681)">
<path d="M202.096 197.709H74.5636C62.192 197.7 50.3036 192.905 41.3872 184.328C32.4708 175.752 27.2178 164.059 26.7278 151.697C26.2378 139.335 30.5488 127.263 38.7584 118.007C46.9679 108.752 58.4395 103.031 70.7716 102.043C72.5302 89.6248 78.1378 78.0706 86.8055 69.0058C95.4732 59.941 106.765 53.8218 119.091 51.509C131.418 49.1962 144.16 50.8063 155.524 56.1127C166.888 61.4191 176.302 70.1548 182.443 81.0907C193.705 77.1922 205.873 76.7366 217.395 79.7821C228.917 82.8276 239.271 89.236 247.135 98.1901C255 107.144 260.02 118.238 261.554 130.057C263.087 141.875 261.066 153.883 255.748 164.548C252.627 174.184 246.533 182.584 238.341 188.542C230.149 194.5 220.281 197.709 210.151 197.709H202.096Z" fill="url(#paint0_linear_64_681)"/>
<path d="M210.151 197.043C215.295 197.043 220.351 196.222 225.181 194.602C229.852 193.036 234.237 190.75 238.214 187.809C242.145 184.902 245.592 181.419 248.457 177.457C251.358 173.446 253.598 169.034 255.114 164.343L255.129 164.295L255.152 164.25C257.168 160.221 258.72 155.959 259.766 151.582C260.842 147.078 261.388 142.425 261.388 137.751C261.388 133.728 260.983 129.707 260.183 125.801C259.404 121.994 258.242 118.25 256.729 114.672C255.243 111.159 253.404 107.771 251.262 104.601C249.141 101.461 246.705 98.5087 244.022 95.8254C241.339 93.1421 238.386 90.7061 235.246 88.5849C232.077 86.4435 228.688 84.6043 225.175 83.1183C221.597 81.605 217.853 80.4427 214.046 79.6637C210.14 78.8644 206.119 78.4591 202.096 78.4591C195.434 78.4591 188.895 79.5555 182.661 81.7177L182.135 81.9001L181.862 81.4148C176.788 72.3932 169.408 64.8168 160.519 59.5046C156.024 56.8181 151.195 54.7421 146.165 53.3342C140.977 51.8817 135.587 51.1452 130.146 51.1452C122.828 51.1452 115.685 52.4623 108.914 55.0598C102.373 57.5692 96.373 61.194 91.0801 65.8336C85.8177 70.4465 81.4505 75.8894 78.0999 82.0108C74.6671 88.2827 72.4234 95.0527 71.4312 102.133L71.357 102.663L70.8235 102.705C64.8555 103.172 59.1136 104.743 53.7573 107.375C48.5526 109.932 43.9051 113.391 39.9437 117.655C31.804 126.417 27.3212 137.833 27.3212 149.801C27.3212 156.179 28.5702 162.365 31.0335 168.189C32.2174 170.988 33.6829 173.688 35.3891 176.214C37.0792 178.715 39.0202 181.068 41.1582 183.206C43.2961 185.344 45.6487 187.285 48.1503 188.975C50.6759 190.681 53.3757 192.147 56.1748 193.331C61.9986 195.794 68.1854 197.043 74.5633 197.043H202.096H210.151ZM210.151 197.709H202.096H74.5633C48.1044 197.709 26.655 176.26 26.655 149.801C26.655 124.618 46.0845 103.973 70.7715 102.04C74.8549 72.9016 99.8818 50.479 130.146 50.479C152.599 50.479 172.168 62.8192 182.443 81.0883C188.6 78.9529 195.212 77.7929 202.096 77.7929C235.21 77.7929 262.054 104.637 262.054 137.751C262.054 147.382 259.783 156.484 255.748 164.548C249.529 183.791 231.466 197.709 210.151 197.709Z" fill="white" fill-opacity="0.5"/>
</g>
</g>
<defs>
<filter id="filter0_f_64_681" x="9.09644" y="14.5012" width="256.958" height="234.147" filterUnits="userSpaceOnUse" color-interpolation-filters="sRGB">
<feFlood flood-opacity="0" result="BackgroundImageFix"/>
<feBlend mode="normal" in="SourceGraphic" in2="BackgroundImageFix" result="shape"/>
<feGaussianBlur stdDeviation="2" result="effect1_foregroundBlur_64_681"/>
</filter>
<filter id="filter1_f_64_681" x="0.377808" y="0.859863" width="122.709" height="102.331" filterUnits="userSpaceOnUse" color-interpolation-filters="sRGB">
<feFlood flood-opacity="0" result="BackgroundImageFix"/>
<feBlend mode="normal" in="SourceGraphic" in2="BackgroundImageFix" result="shape"/>
<feGaussianBlur stdDeviation="10" result="effect1_foregroundBlur_64_681"/>
</filter>
<filter id="filter2_d_64_681" x="6.65503" y="22.479" width="295.399" height="207.23" filterUnits="userSpaceOnUse" color-interpolation-filters="sRGB">
<feFlood flood-opacity="0" result="BackgroundImageFix"/>
<feColorMatrix in="SourceAlpha" type="matrix" values="0 0 0 0 0 0 0 0 0 0 0 0 0 0 0 0 0 0 127 0" result="hardAlpha"/>
<feOffset dx="10" dy="2"/>
<feGaussianBlur stdDeviation="15"/>
<feColorMatrix type="matrix" values="0 0 0 0 0.258824 0 0 0 0 0.627451 0 0 0 0 0.941176 0 0 0 0.596 0"/>
<feBlend mode="normal" in2="BackgroundImageFix" result="effect1_dropShadow_64_681"/>
<feBlend mode="normal" in="SourceGraphic" in2="effect1_dropShadow_64_681" result="shape"/>
</filter>
<linearGradient id="paint0_linear_64_681" x1="144.371" y1="50.4805" x2="212.752" y2="215.807" gradientUnits="userSpaceOnUse">
<stop stop-color="white" stop-opacity="0.604"/>
<stop offset="1" stop-color="white" stop-opacity="0.2"/>
</linearGradient>
</defs>
</svg>
