<svg width="310" height="236" viewBox="0 0 310 236" fill="none" xmlns="http://www.w3.org/2000/svg">
<g filter="url(#filter0_f_64_804)">
<path d="M210.489 192.901V230" stroke="#42A0F0" stroke-width="4" stroke-linecap="round"/>
<path d="M210.414 201.969L216.804 195.374" stroke="#42A0F0" stroke-width="4" stroke-linecap="round"/>
<path d="M210.414 201.969L203.819 195.374" stroke="#42A0F0" stroke-width="4" stroke-linecap="round"/>
<path d="M210.414 221.756L216.804 228.351" stroke="#42A0F0" stroke-width="4" stroke-linecap="round"/>
<path d="M210.414 221.756L203.819 228.351" stroke="#42A0F0" stroke-width="4" stroke-linecap="round"/>
<path d="M226.465 202.33L194.336 220.879" stroke="#42A0F0" stroke-width="4" stroke-linecap="round"/>
<path d="M218.574 206.799L227.48 209.035" stroke="#42A0F0" stroke-width="4" stroke-linecap="round"/>
<path d="M218.574 206.799L220.988 197.79" stroke="#42A0F0" stroke-width="4" stroke-linecap="round"/>
<path d="M201.439 216.692L198.922 225.523" stroke="#42A0F0" stroke-width="4" stroke-linecap="round"/>
<path d="M201.439 216.692L192.43 214.278" stroke="#42A0F0" stroke-width="4" stroke-linecap="round"/>
<path d="M226.287 220.879L194.159 202.33" stroke="#42A0F0" stroke-width="4" stroke-linecap="round"/>
<path d="M218.471 216.28L220.988 225.111" stroke="#42A0F0" stroke-width="4" stroke-linecap="round"/>
<path d="M218.471 216.28L227.48 213.866" stroke="#42A0F0" stroke-width="4" stroke-linecap="round"/>
<path d="M201.336 206.387L192.43 208.623" stroke="#42A0F0" stroke-width="4" stroke-linecap="round"/>
<path d="M201.336 206.387L198.922 197.378" stroke="#42A0F0" stroke-width="4" stroke-linecap="round"/>
<path d="M144.802 192.901V230" stroke="#42A0F0" stroke-width="4" stroke-linecap="round"/>
<path d="M144.727 201.969L151.116 195.374" stroke="#42A0F0" stroke-width="4" stroke-linecap="round"/>
<path d="M144.727 201.969L138.132 195.374" stroke="#42A0F0" stroke-width="4" stroke-linecap="round"/>
<path d="M144.727 221.756L151.116 228.351" stroke="#42A0F0" stroke-width="4" stroke-linecap="round"/>
<path d="M144.727 221.756L138.132 228.351" stroke="#42A0F0" stroke-width="4" stroke-linecap="round"/>
<path d="M160.778 202.33L128.649 220.879" stroke="#42A0F0" stroke-width="4" stroke-linecap="round"/>
<path d="M152.887 206.799L161.793 209.035" stroke="#42A0F0" stroke-width="4" stroke-linecap="round"/>
<path d="M152.887 206.799L155.301 197.79" stroke="#42A0F0" stroke-width="4" stroke-linecap="round"/>
<path d="M135.752 216.692L133.235 225.523" stroke="#42A0F0" stroke-width="4" stroke-linecap="round"/>
<path d="M135.752 216.692L126.742 214.278" stroke="#42A0F0" stroke-width="4" stroke-linecap="round"/>
<path d="M160.6 220.879L128.472 202.33" stroke="#42A0F0" stroke-width="4" stroke-linecap="round"/>
<path d="M152.784 216.28L155.301 225.111" stroke="#42A0F0" stroke-width="4" stroke-linecap="round"/>
<path d="M152.784 216.28L161.793 213.866" stroke="#42A0F0" stroke-width="4" stroke-linecap="round"/>
<path d="M135.649 206.387L126.742 208.623" stroke="#42A0F0" stroke-width="4" stroke-linecap="round"/>
<path d="M135.649 206.387L133.235 197.378" stroke="#42A0F0" stroke-width="4" stroke-linecap="round"/>
<path d="M79.231 192.901V230" stroke="#42A0F0" stroke-width="4" stroke-linecap="round"/>
<path d="M79.1562 201.969L85.5455 195.374" stroke="#42A0F0" stroke-width="4" stroke-linecap="round"/>
<path d="M79.1562 201.969L72.561 195.374" stroke="#42A0F0" stroke-width="4" stroke-linecap="round"/>
<path d="M79.1562 221.756L85.5455 228.351" stroke="#42A0F0" stroke-width="4" stroke-linecap="round"/>
<path d="M79.1562 221.756L72.561 228.351" stroke="#42A0F0" stroke-width="4" stroke-linecap="round"/>
<path d="M95.207 202.33L63.0783 220.879" stroke="#42A0F0" stroke-width="4" stroke-linecap="round"/>
<path d="M87.3161 206.799L96.2223 209.035" stroke="#42A0F0" stroke-width="4" stroke-linecap="round"/>
<path d="M87.316 206.799L89.73 197.79" stroke="#42A0F0" stroke-width="4" stroke-linecap="round"/>
<path d="M70.1807 216.692L67.6638 225.523" stroke="#42A0F0" stroke-width="4" stroke-linecap="round"/>
<path d="M70.1808 216.692L61.1716 214.278" stroke="#42A0F0" stroke-width="4" stroke-linecap="round"/>
<path d="M95.0294 220.879L62.9007 202.33" stroke="#42A0F0" stroke-width="4" stroke-linecap="round"/>
<path d="M87.2131 216.28L89.73 225.111" stroke="#42A0F0" stroke-width="4" stroke-linecap="round"/>
<path d="M87.2131 216.28L96.2223 213.866" stroke="#42A0F0" stroke-width="4" stroke-linecap="round"/>
<path d="M70.0778 206.387L61.1715 208.623" stroke="#42A0F0" stroke-width="4" stroke-linecap="round"/>
<path d="M70.0778 206.387L67.6638 197.378" stroke="#42A0F0" stroke-width="4" stroke-linecap="round"/>
<path d="M110.959 137.201V174.3" stroke="#42A0F0" stroke-width="4" stroke-linecap="round"/>
<path d="M110.884 146.269L117.273 139.674" stroke="#42A0F0" stroke-width="4" stroke-linecap="round"/>
<path d="M110.884 146.269L104.289 139.674" stroke="#42A0F0" stroke-width="4" stroke-linecap="round"/>
<path d="M110.884 166.056L117.273 172.651" stroke="#42A0F0" stroke-width="4" stroke-linecap="round"/>
<path d="M110.884 166.056L104.289 172.651" stroke="#42A0F0" stroke-width="4" stroke-linecap="round"/>
<path d="M126.935 146.629L94.8061 165.179" stroke="#42A0F0" stroke-width="4" stroke-linecap="round"/>
<path d="M119.044 151.099L127.95 153.335" stroke="#42A0F0" stroke-width="4" stroke-linecap="round"/>
<path d="M119.044 151.099L121.458 142.09" stroke="#42A0F0" stroke-width="4" stroke-linecap="round"/>
<path d="M101.909 160.992L99.3916 169.823" stroke="#42A0F0" stroke-width="4" stroke-linecap="round"/>
<path d="M101.909 160.992L92.8994 158.578" stroke="#42A0F0" stroke-width="4" stroke-linecap="round"/>
<path d="M126.757 165.179L94.6285 146.629" stroke="#42A0F0" stroke-width="4" stroke-linecap="round"/>
<path d="M118.941 160.58L121.458 169.411" stroke="#42A0F0" stroke-width="4" stroke-linecap="round"/>
<path d="M118.941 160.58L127.95 158.166" stroke="#42A0F0" stroke-width="4" stroke-linecap="round"/>
<path d="M101.806 150.687L92.8994 152.923" stroke="#42A0F0" stroke-width="4" stroke-linecap="round"/>
<path d="M101.806 150.687L99.3916 141.678" stroke="#42A0F0" stroke-width="4" stroke-linecap="round"/>
<path d="M183.58 137.201V174.3" stroke="#42A0F0" stroke-width="4" stroke-linecap="round"/>
<path d="M183.506 146.269L189.895 139.674" stroke="#42A0F0" stroke-width="4" stroke-linecap="round"/>
<path d="M183.506 146.269L176.91 139.674" stroke="#42A0F0" stroke-width="4" stroke-linecap="round"/>
<path d="M183.506 166.056L189.895 172.651" stroke="#42A0F0" stroke-width="4" stroke-linecap="round"/>
<path d="M183.506 166.056L176.91 172.651" stroke="#42A0F0" stroke-width="4" stroke-linecap="round"/>
<path d="M199.556 146.629L167.428 165.179" stroke="#42A0F0" stroke-width="4" stroke-linecap="round"/>
<path d="M191.665 151.099L200.572 153.335" stroke="#42A0F0" stroke-width="4" stroke-linecap="round"/>
<path d="M191.665 151.099L194.079 142.09" stroke="#42A0F0" stroke-width="4" stroke-linecap="round"/>
<path d="M174.53 160.992L172.013 169.823" stroke="#42A0F0" stroke-width="4" stroke-linecap="round"/>
<path d="M174.53 160.992L165.521 158.578" stroke="#42A0F0" stroke-width="4" stroke-linecap="round"/>
<path d="M199.379 165.179L167.25 146.629" stroke="#42A0F0" stroke-width="4" stroke-linecap="round"/>
<path d="M191.562 160.58L194.079 169.411" stroke="#42A0F0" stroke-width="4" stroke-linecap="round"/>
<path d="M191.562 160.58L200.572 158.166" stroke="#42A0F0" stroke-width="4" stroke-linecap="round"/>
<path d="M174.427 150.687L165.521 152.923" stroke="#42A0F0" stroke-width="4" stroke-linecap="round"/>
<path d="M174.427 150.687L172.013 141.678" stroke="#42A0F0" stroke-width="4" stroke-linecap="round"/>
<g filter="url(#filter1_d_64_804)">
<path d="M205.675 183.819H70.7032C57.6099 183.809 45.028 178.734 35.5915 169.658C26.155 160.581 20.5956 148.206 20.077 135.123C19.5584 122.04 24.1209 109.263 32.8094 99.4678C41.4978 89.6726 53.6386 83.6181 66.69 82.5718C68.5512 69.4295 74.4859 57.2013 83.6592 47.6077C92.8325 38.0141 104.783 31.5379 117.829 29.0902C130.875 26.6425 144.36 28.3465 156.386 33.9625C168.413 39.5784 178.377 48.8237 184.876 60.3976C196.795 56.2717 209.672 55.7895 221.866 59.0126C234.061 62.2357 245.018 69.018 253.342 78.4944C261.665 87.9708 266.978 99.7118 268.601 112.22C270.224 124.728 268.085 137.436 262.456 148.723C259.153 158.922 252.704 167.811 244.035 174.117C235.365 180.422 224.921 183.819 214.201 183.819H205.675Z" fill="url(#paint0_linear_64_804)"/>
<path d="M214.2 183.114C219.644 183.114 224.996 182.245 230.107 180.53C235.05 178.873 239.691 176.454 243.9 173.341C248.061 170.264 251.708 166.578 254.741 162.385C257.811 158.14 260.181 153.471 261.786 148.506L261.802 148.455L261.826 148.407C263.96 144.143 265.602 139.633 266.709 135.001C267.848 130.234 268.426 125.309 268.426 120.363C268.426 116.105 267.997 111.85 267.151 107.716C266.327 103.687 265.096 99.7245 263.495 95.9379C261.922 92.2198 259.976 88.6337 257.709 85.2791C255.465 81.9562 252.886 78.8314 250.047 75.9917C247.207 73.1519 244.082 70.5737 240.759 68.3288C237.405 66.0625 233.819 64.1159 230.1 62.5433C226.314 60.9417 222.351 59.7116 218.322 58.8872C214.188 58.0412 209.933 57.6123 205.675 57.6123C198.625 57.6123 191.705 58.7726 185.106 61.061L184.55 61.2541L184.261 60.7404C178.891 51.1926 171.08 43.1741 161.673 37.5521C156.916 34.7089 151.805 32.5117 146.482 31.0217C140.99 29.4845 135.286 28.7051 129.528 28.7051C121.783 28.7051 114.223 30.099 107.057 32.848C100.135 35.5038 93.785 39.34 88.1833 44.2503C82.6138 49.1323 77.9919 54.8927 74.4459 61.3712C70.8129 68.0089 68.4383 75.1739 67.3882 82.667L67.3096 83.2279L66.745 83.2721C60.4289 83.7665 54.352 85.4294 48.6832 88.2147C43.175 90.9211 38.2563 94.5816 34.0639 99.0946C25.4493 108.368 20.7051 120.45 20.7051 133.116C20.7051 139.866 22.0269 146.413 24.6339 152.577C25.8869 155.539 27.4378 158.397 29.2435 161.069C31.0323 163.717 33.0865 166.207 35.3492 168.469C37.6118 170.732 40.1016 172.786 42.7492 174.575C45.4221 176.381 48.2794 177.932 51.2418 179.185C57.4053 181.792 63.953 183.114 70.703 183.114H205.675H214.2ZM214.2 183.819H205.675H70.703C42.7006 183.819 20 161.118 20 133.116C20 106.463 40.5629 84.6143 66.69 82.5692C71.0116 51.7306 97.4984 28 129.528 28C153.29 28 174.002 41.06 184.875 60.3948C191.392 58.1349 198.39 56.9072 205.675 56.9072C240.721 56.9072 269.131 85.3176 269.131 120.363C269.131 130.555 266.727 140.189 262.457 148.723C255.875 169.089 236.758 183.819 214.2 183.819Z" fill="white" fill-opacity="0.5"/>
</g>
</g>
<defs>
<filter id="filter0_f_64_804" x="16" y="24" width="257.131" height="212" filterUnits="userSpaceOnUse" color-interpolation-filters="sRGB">
<feFlood flood-opacity="0" result="BackgroundImageFix"/>
<feBlend mode="normal" in="SourceGraphic" in2="BackgroundImageFix" result="shape"/>
<feGaussianBlur stdDeviation="2" result="effect1_foregroundBlur_64_804"/>
</filter>
<filter id="filter1_d_64_804" x="0" y="0" width="309.131" height="215.819" filterUnits="userSpaceOnUse" color-interpolation-filters="sRGB">
<feFlood flood-opacity="0" result="BackgroundImageFix"/>
<feColorMatrix in="SourceAlpha" type="matrix" values="0 0 0 0 0 0 0 0 0 0 0 0 0 0 0 0 0 0 127 0" result="hardAlpha"/>
<feOffset dx="10" dy="2"/>
<feGaussianBlur stdDeviation="15"/>
<feColorMatrix type="matrix" values="0 0 0 0 0.258824 0 0 0 0 0.627451 0 0 0 0 0.941176 0 0 0 0.596 0"/>
<feBlend mode="normal" in2="BackgroundImageFix" result="effect1_dropShadow_64_804"/>
<feBlend mode="normal" in="SourceGraphic" in2="effect1_dropShadow_64_804" result="shape"/>
</filter>
<linearGradient id="paint0_linear_64_804" x1="144.583" y1="28.0017" x2="216.953" y2="202.973" gradientUnits="userSpaceOnUse">
<stop stop-color="white" stop-opacity="0.604"/>
<stop offset="1" stop-color="white" stop-opacity="0.2"/>
</linearGradient>
</defs>
</svg>
