<svg width="298" height="241" viewBox="0 0 298 241" fill="none" xmlns="http://www.w3.org/2000/svg">
<g filter="url(#filter0_f_64_936)">
<path d="M77.5871 148.067C113.232 148.067 142.129 119.024 142.129 83.1978C142.129 47.3715 113.232 18.3286 77.5871 18.3286C41.9418 18.3286 13.0456 47.3715 13.0456 83.1978C13.0456 119.024 41.9418 148.067 77.5871 148.067Z" fill="#FA9E42"/>
<g filter="url(#filter1_f_64_936)">
<path d="M72.9234 73.9728C94.3738 62.5795 106.372 43.1929 99.721 30.6717C93.0704 18.1505 70.29 17.2361 48.8395 28.6294C27.389 40.0227 15.3914 59.4092 22.0419 71.9305C28.6925 84.4517 51.4729 85.3661 72.9234 73.9728Z" fill="#F8E36F"/>
</g>
<path d="M203.41 200.522V235" stroke="#42A0F0" stroke-width="4" stroke-linecap="round"/>
<path d="M203.341 208.95L209.279 202.821" stroke="#42A0F0" stroke-width="4" stroke-linecap="round"/>
<path d="M203.341 208.95L197.212 202.821" stroke="#42A0F0" stroke-width="4" stroke-linecap="round"/>
<path d="M203.341 227.338L209.279 233.467" stroke="#42A0F0" stroke-width="4" stroke-linecap="round"/>
<path d="M203.341 227.338L197.212 233.467" stroke="#42A0F0" stroke-width="4" stroke-linecap="round"/>
<path d="M218.257 209.285L188.399 226.523" stroke="#42A0F0" stroke-width="4" stroke-linecap="round"/>
<path d="M210.924 213.438L219.201 215.516" stroke="#42A0F0" stroke-width="4" stroke-linecap="round"/>
<path d="M210.924 213.438L213.168 205.066" stroke="#42A0F0" stroke-width="4" stroke-linecap="round"/>
<path d="M195 222.632L192.66 230.839" stroke="#42A0F0" stroke-width="4" stroke-linecap="round"/>
<path d="M195 222.632L186.627 220.389" stroke="#42A0F0" stroke-width="4" stroke-linecap="round"/>
<path d="M218.092 226.524L188.234 209.285" stroke="#42A0F0" stroke-width="4" stroke-linecap="round"/>
<path d="M210.828 222.249L213.168 230.456" stroke="#42A0F0" stroke-width="4" stroke-linecap="round"/>
<path d="M210.828 222.25L219.201 220.006" stroke="#42A0F0" stroke-width="4" stroke-linecap="round"/>
<path d="M194.904 213.056L186.627 215.133" stroke="#42A0F0" stroke-width="4" stroke-linecap="round"/>
<path d="M194.904 213.056L192.66 204.683" stroke="#42A0F0" stroke-width="4" stroke-linecap="round"/>
<path d="M142.365 200.522V235" stroke="#42A0F0" stroke-width="4" stroke-linecap="round"/>
<path d="M142.295 208.95L148.233 202.821" stroke="#42A0F0" stroke-width="4" stroke-linecap="round"/>
<path d="M142.295 208.95L136.166 202.821" stroke="#42A0F0" stroke-width="4" stroke-linecap="round"/>
<path d="M142.295 227.338L148.233 233.467" stroke="#42A0F0" stroke-width="4" stroke-linecap="round"/>
<path d="M142.295 227.338L136.166 233.467" stroke="#42A0F0" stroke-width="4" stroke-linecap="round"/>
<path d="M157.212 209.285L127.353 226.523" stroke="#42A0F0" stroke-width="4" stroke-linecap="round"/>
<path d="M149.878 213.438L158.155 215.516" stroke="#42A0F0" stroke-width="4" stroke-linecap="round"/>
<path d="M149.878 213.438L152.122 205.066" stroke="#42A0F0" stroke-width="4" stroke-linecap="round"/>
<path d="M133.954 222.632L131.615 230.839" stroke="#42A0F0" stroke-width="4" stroke-linecap="round"/>
<path d="M133.954 222.632L125.581 220.389" stroke="#42A0F0" stroke-width="4" stroke-linecap="round"/>
<path d="M157.047 226.524L127.188 209.285" stroke="#42A0F0" stroke-width="4" stroke-linecap="round"/>
<path d="M149.783 222.249L152.122 230.456" stroke="#42A0F0" stroke-width="4" stroke-linecap="round"/>
<path d="M149.783 222.25L158.155 220.006" stroke="#42A0F0" stroke-width="4" stroke-linecap="round"/>
<path d="M133.858 213.056L125.581 215.133" stroke="#42A0F0" stroke-width="4" stroke-linecap="round"/>
<path d="M133.858 213.056L131.615 204.683" stroke="#42A0F0" stroke-width="4" stroke-linecap="round"/>
<path d="M81.4268 200.522V235" stroke="#42A0F0" stroke-width="4" stroke-linecap="round"/>
<path d="M81.3574 208.95L87.2952 202.821" stroke="#42A0F0" stroke-width="4" stroke-linecap="round"/>
<path d="M81.3574 208.95L75.2282 202.821" stroke="#42A0F0" stroke-width="4" stroke-linecap="round"/>
<path d="M81.3574 227.338L87.2952 233.467" stroke="#42A0F0" stroke-width="4" stroke-linecap="round"/>
<path d="M81.3574 227.338L75.2282 233.467" stroke="#42A0F0" stroke-width="4" stroke-linecap="round"/>
<path d="M96.274 209.285L66.4155 226.523" stroke="#42A0F0" stroke-width="4" stroke-linecap="round"/>
<path d="M88.9406 213.438L97.2175 215.516" stroke="#42A0F0" stroke-width="4" stroke-linecap="round"/>
<path d="M88.9406 213.438L91.184 205.066" stroke="#42A0F0" stroke-width="4" stroke-linecap="round"/>
<path d="M73.0161 222.632L70.677 230.839" stroke="#42A0F0" stroke-width="4" stroke-linecap="round"/>
<path d="M73.0161 222.632L64.6435 220.389" stroke="#42A0F0" stroke-width="4" stroke-linecap="round"/>
<path d="M96.1089 226.524L66.2504 209.285" stroke="#42A0F0" stroke-width="4" stroke-linecap="round"/>
<path d="M88.845 222.249L91.184 230.456" stroke="#42A0F0" stroke-width="4" stroke-linecap="round"/>
<path d="M88.845 222.25L97.2175 220.006" stroke="#42A0F0" stroke-width="4" stroke-linecap="round"/>
<path d="M72.9204 213.056L64.6435 215.133" stroke="#42A0F0" stroke-width="4" stroke-linecap="round"/>
<path d="M72.9204 213.056L70.677 204.683" stroke="#42A0F0" stroke-width="4" stroke-linecap="round"/>
<path d="M110.913 148.758V183.236" stroke="#42A0F0" stroke-width="4" stroke-linecap="round"/>
<path d="M110.843 157.186L116.781 151.057" stroke="#42A0F0" stroke-width="4" stroke-linecap="round"/>
<path d="M110.843 157.186L104.714 151.057" stroke="#42A0F0" stroke-width="4" stroke-linecap="round"/>
<path d="M110.843 175.574L116.781 181.703" stroke="#42A0F0" stroke-width="4" stroke-linecap="round"/>
<path d="M110.843 175.574L104.714 181.703" stroke="#42A0F0" stroke-width="4" stroke-linecap="round"/>
<path d="M125.76 157.521L95.9015 174.759" stroke="#42A0F0" stroke-width="4" stroke-linecap="round"/>
<path d="M118.427 161.674L126.703 163.752" stroke="#42A0F0" stroke-width="4" stroke-linecap="round"/>
<path d="M118.427 161.674L120.67 153.302" stroke="#42A0F0" stroke-width="4" stroke-linecap="round"/>
<path d="M102.502 170.868L100.163 179.075" stroke="#42A0F0" stroke-width="4" stroke-linecap="round"/>
<path d="M102.502 170.868L94.1295 168.625" stroke="#42A0F0" stroke-width="4" stroke-linecap="round"/>
<path d="M125.595 174.759L95.7363 157.52" stroke="#42A0F0" stroke-width="4" stroke-linecap="round"/>
<path d="M118.331 170.485L120.67 178.692" stroke="#42A0F0" stroke-width="4" stroke-linecap="round"/>
<path d="M118.331 170.485L126.704 168.242" stroke="#42A0F0" stroke-width="4" stroke-linecap="round"/>
<path d="M102.406 161.291L94.1295 163.369" stroke="#42A0F0" stroke-width="4" stroke-linecap="round"/>
<path d="M102.406 161.291L100.163 152.919" stroke="#42A0F0" stroke-width="4" stroke-linecap="round"/>
<path d="M178.403 148.758V183.236" stroke="#42A0F0" stroke-width="4" stroke-linecap="round"/>
<path d="M178.333 157.186L184.271 151.057" stroke="#42A0F0" stroke-width="4" stroke-linecap="round"/>
<path d="M178.333 157.186L172.204 151.057" stroke="#42A0F0" stroke-width="4" stroke-linecap="round"/>
<path d="M178.333 175.574L184.271 181.703" stroke="#42A0F0" stroke-width="4" stroke-linecap="round"/>
<path d="M178.333 175.574L172.204 181.703" stroke="#42A0F0" stroke-width="4" stroke-linecap="round"/>
<path d="M193.25 157.521L163.392 174.759" stroke="#42A0F0" stroke-width="4" stroke-linecap="round"/>
<path d="M185.917 161.674L194.194 163.752" stroke="#42A0F0" stroke-width="4" stroke-linecap="round"/>
<path d="M185.917 161.674L188.16 153.302" stroke="#42A0F0" stroke-width="4" stroke-linecap="round"/>
<path d="M169.992 170.868L167.653 179.075" stroke="#42A0F0" stroke-width="4" stroke-linecap="round"/>
<path d="M169.992 170.868L161.62 168.625" stroke="#42A0F0" stroke-width="4" stroke-linecap="round"/>
<path d="M193.085 174.759L163.226 157.52" stroke="#42A0F0" stroke-width="4" stroke-linecap="round"/>
<path d="M185.821 170.485L188.16 178.692" stroke="#42A0F0" stroke-width="4" stroke-linecap="round"/>
<path d="M185.821 170.485L194.194 168.242" stroke="#42A0F0" stroke-width="4" stroke-linecap="round"/>
<path d="M169.896 161.291L161.62 163.369" stroke="#42A0F0" stroke-width="4" stroke-linecap="round"/>
<path d="M169.897 161.291L167.653 152.919" stroke="#42A0F0" stroke-width="4" stroke-linecap="round"/>
<g filter="url(#filter2_d_64_936)">
<path d="M198.936 192.082H73.5017C61.3335 192.073 49.6406 187.357 40.8709 178.922C32.1012 170.486 26.9346 158.985 26.4526 146.827C25.9707 134.668 30.2108 122.794 38.2853 113.691C46.3599 104.588 57.6428 98.9615 69.772 97.9891C71.5017 85.7754 77.0171 74.4113 85.5422 65.4956C94.0673 56.5799 105.173 50.5613 117.297 48.2865C129.421 46.0118 141.953 47.5954 153.131 52.8145C164.308 58.0336 173.567 66.6256 179.607 77.3817C190.683 73.5473 202.651 73.0992 213.984 76.0946C225.316 79.09 235.5 85.393 243.235 94.1998C250.971 103.007 255.908 113.918 257.416 125.542C258.925 137.166 256.937 148.976 251.706 159.466C248.636 168.944 242.643 177.206 234.586 183.066C226.529 188.925 216.822 192.082 206.86 192.082H198.936Z" fill="url(#paint0_linear_64_936)"/>
<path d="M206.859 191.427C211.918 191.427 216.892 190.619 221.642 189.026C226.236 187.486 230.549 185.238 234.461 182.345C238.327 179.485 241.717 176.06 244.535 172.163C247.388 168.218 249.591 163.878 251.082 159.265L251.098 159.217L251.12 159.173C253.103 155.21 254.63 151.018 255.658 146.714C256.717 142.284 257.253 137.707 257.253 133.11C257.253 129.153 256.855 125.199 256.069 121.357C255.302 117.613 254.159 113.93 252.671 110.411C251.209 106.956 249.4 103.623 247.294 100.505C245.208 97.4171 242.812 94.5132 240.173 91.874C237.534 89.2349 234.63 86.8389 231.542 84.7526C228.424 82.6464 225.091 80.8374 221.636 79.376C218.117 77.8875 214.434 76.7443 210.69 75.9782C206.848 75.192 202.894 74.7934 198.937 74.7934C192.384 74.7934 185.953 75.8717 179.821 77.9983L179.304 78.1778L179.035 77.7005C174.045 68.8272 166.786 61.3754 158.044 56.1506C153.623 53.5083 148.873 51.4664 143.926 50.0816C138.822 48.653 133.521 47.9287 128.17 47.9287C120.973 47.9287 113.946 49.2241 107.287 51.7789C100.854 54.247 94.9525 57.8122 89.7466 62.3755C84.5707 66.9126 80.2754 72.2659 76.9799 78.2867C73.6036 84.4553 71.3968 91.114 70.4209 98.0777L70.3479 98.599L69.8232 98.64C63.9533 99.0995 58.3059 100.645 53.0376 103.233C47.9186 105.749 43.3475 109.15 39.4513 113.345C31.4454 121.963 27.0364 133.191 27.0364 144.962C27.0364 151.235 28.2648 157.32 30.6876 163.048C31.8521 165.801 33.2934 168.456 34.9715 170.94C36.6339 173.401 38.5429 175.715 40.6457 177.817C42.7485 179.92 45.0624 181.829 47.5229 183.492C50.0069 185.17 52.6623 186.611 55.4154 187.776C61.1434 190.198 67.2285 191.427 73.5015 191.427H198.937H206.859ZM206.859 192.082H198.937H73.5015C47.4778 192.082 26.3811 170.985 26.3811 144.962C26.3811 120.193 45.4911 99.8874 69.772 97.9868C73.7883 69.3272 98.4036 47.2734 128.17 47.2734C150.253 47.2734 169.501 59.4107 179.606 77.3793C185.662 75.279 192.166 74.1381 198.937 74.1381C231.506 74.1381 257.909 100.541 257.909 133.11C257.909 142.582 255.674 151.535 251.706 159.466C245.589 178.393 227.823 192.082 206.859 192.082Z" fill="white" fill-opacity="0.5"/>
</g>
</g>
<defs>
<filter id="filter0_f_64_936" x="9.04556" y="14.3286" width="252.863" height="226.671" filterUnits="userSpaceOnUse" color-interpolation-filters="sRGB">
<feFlood flood-opacity="0" result="BackgroundImageFix"/>
<feBlend mode="normal" in="SourceGraphic" in2="BackgroundImageFix" result="shape"/>
<feGaussianBlur stdDeviation="2" result="effect1_foregroundBlur_64_936"/>
</filter>
<filter id="filter1_f_64_936" x="0.207153" y="0.648438" width="121.349" height="101.305" filterUnits="userSpaceOnUse" color-interpolation-filters="sRGB">
<feFlood flood-opacity="0" result="BackgroundImageFix"/>
<feBlend mode="normal" in="SourceGraphic" in2="BackgroundImageFix" result="shape"/>
<feGaussianBlur stdDeviation="10" result="effect1_foregroundBlur_64_936"/>
</filter>
<filter id="filter2_d_64_936" x="6.38113" y="19.2734" width="291.527" height="204.809" filterUnits="userSpaceOnUse" color-interpolation-filters="sRGB">
<feFlood flood-opacity="0" result="BackgroundImageFix"/>
<feColorMatrix in="SourceAlpha" type="matrix" values="0 0 0 0 0 0 0 0 0 0 0 0 0 0 0 0 0 0 127 0" result="hardAlpha"/>
<feOffset dx="10" dy="2"/>
<feGaussianBlur stdDeviation="15"/>
<feColorMatrix type="matrix" values="0 0 0 0 0.258824 0 0 0 0 0.627451 0 0 0 0 0.941176 0 0 0 0.596 0"/>
<feBlend mode="normal" in2="BackgroundImageFix" result="effect1_dropShadow_64_936"/>
<feBlend mode="normal" in="SourceGraphic" in2="effect1_dropShadow_64_936" result="shape"/>
</filter>
<linearGradient id="paint0_linear_64_936" x1="142.161" y1="47.2749" x2="209.417" y2="209.883" gradientUnits="userSpaceOnUse">
<stop stop-color="white" stop-opacity="0.604"/>
<stop offset="1" stop-color="white" stop-opacity="0.2"/>
</linearGradient>
</defs>
</svg>
