<svg width="295" height="229" viewBox="0 0 295 229" fill="none" xmlns="http://www.w3.org/2000/svg">
<g filter="url(#filter0_f_64_1226)">
<path d="M154.911 158.769C154.911 158.769 201.417 160.202 219.92 154.829C239.603 149.112 239.578 119.443 219.92 112.129C200.261 104.816 193.542 130.958 193.542 130.958" stroke="#D0D0D0" stroke-width="20" stroke-linecap="round"/>
<path d="M126.195 187.725C126.195 187.725 146.215 184.164 175.629 190.192C205.043 196.219 195.677 213.514 181.737 214.304C167.797 215.095 154.933 205.935 154.933 205.935" stroke="#D0D0D0" stroke-width="20" stroke-linecap="round"/>
<path d="M221.505 190.147H248.032" stroke="#D0D0D0" stroke-width="20" stroke-linecap="round"/>
<path d="M88.4037 143.906C86.9474 143.925 72.1718 166.992 72.1718 175.957C72.1718 180.262 73.8819 184.391 76.926 187.435C79.9701 190.479 84.0988 192.189 88.4037 192.189C92.7087 192.189 96.8374 190.479 99.8815 187.435C102.926 184.391 104.636 180.262 104.636 175.957C104.636 166.992 89.8601 143.89 88.4037 143.906Z" fill="#42A0F0"/>
<path d="M97.4447 171.116C95.8226 171.612 95.2543 174.456 96.1752 177.468C97.0961 180.48 99.1576 182.52 100.78 182.024C102.402 181.528 102.97 178.685 102.049 175.672C101.128 172.66 99.0667 170.62 97.4447 171.116Z" fill="white"/>
<path d="M44.6709 176.459C43.4692 176.473 31.2747 195.512 31.2747 202.912C31.2747 206.465 32.686 209.872 35.1983 212.384C37.7106 214.897 41.118 216.308 44.6709 216.308C48.2238 216.308 51.6312 214.897 54.1435 212.384C56.6558 209.872 58.0671 206.465 58.0671 202.912C58.0671 195.512 45.8732 176.446 44.6709 176.459Z" fill="#42A0F0"/>
<path d="M52.1331 198.917C50.7944 199.327 50.3253 201.674 51.0853 204.159C51.8453 206.645 53.5466 208.329 54.8853 207.919C56.224 207.51 56.6931 205.163 55.9331 202.677C55.1731 200.191 53.4718 198.508 52.1331 198.917Z" fill="white"/>
<g filter="url(#filter1_d_64_1226)">
<path d="M194.645 174.563H67.6912C55.3757 174.553 43.5412 169.78 34.6653 161.243C25.7894 152.705 20.5601 141.065 20.0724 128.759C19.5846 116.453 23.8761 104.436 32.0484 95.2223C40.2207 86.0089 51.6403 80.3141 63.9164 79.3299C65.6671 66.9683 71.2492 55.4665 79.8776 46.4428C88.506 37.4191 99.7463 31.3276 112.017 29.0253C124.288 26.723 136.972 28.3258 148.285 33.6081C159.597 38.8905 168.969 47.5866 175.081 58.4729C186.292 54.592 198.406 54.1386 209.876 57.1704C221.345 60.2023 231.652 66.582 239.481 75.4959C247.311 84.4097 252.307 95.4536 253.834 107.219C255.36 118.984 253.347 130.937 248.052 141.554C244.945 151.146 238.879 159.507 230.725 165.437C222.57 171.367 212.747 174.562 202.664 174.563H194.645Z" fill="url(#paint0_linear_64_1226)"/>
<path d="M202.664 173.899C207.784 173.899 212.817 173.082 217.625 171.47C222.274 169.911 226.639 167.636 230.598 164.708C234.511 161.814 237.942 158.347 240.794 154.404C243.682 150.411 245.912 146.02 247.421 141.35L247.437 141.302L247.459 141.257C249.467 137.246 251.013 133.003 252.054 128.646C253.125 124.163 253.668 119.53 253.668 114.876C253.668 110.871 253.265 106.869 252.469 102.98C251.694 99.1912 250.537 95.4639 249.03 91.9022C247.551 88.405 245.72 85.0318 243.589 81.8765C241.477 78.751 239.052 75.8119 236.381 73.1408C233.71 70.4697 230.771 68.0447 227.645 65.9331C224.49 63.8014 221.117 61.9705 217.62 60.4913C214.058 58.9848 210.331 57.8278 206.541 57.0524C202.653 56.2567 198.65 55.8532 194.645 55.8532C188.014 55.8532 181.505 56.9446 175.298 59.097L174.775 59.2786L174.503 58.7955C169.452 49.8148 162.106 42.2727 153.257 36.9846C148.783 34.3103 143.975 32.2437 138.968 30.8422C133.803 29.3963 128.438 28.6632 123.022 28.6632C115.737 28.6632 108.626 29.9743 101.886 32.5601C95.3749 35.058 89.4019 38.6664 84.133 43.285C78.8944 47.877 74.547 53.2951 71.2116 59.3889C67.7944 65.6322 65.5609 72.3716 64.5732 79.4196L64.4993 79.9472L63.9682 79.9887C58.0273 80.4538 52.3114 82.0179 46.9793 84.6377C41.7983 87.1833 37.1718 90.6265 33.2285 94.8714C25.1256 103.594 20.6632 114.958 20.6632 126.871C20.6632 133.22 21.9065 139.379 24.3586 145.177C25.5372 147.963 26.996 150.651 28.6944 153.165C30.3769 155.655 32.3091 157.997 34.4374 160.125C36.5656 162.253 38.9075 164.186 41.3978 165.868C43.9119 167.567 46.5995 169.025 49.3859 170.204C55.1833 172.656 61.3421 173.899 67.6911 173.899H194.645H202.664ZM202.664 174.563H194.645H67.6911C41.3521 174.563 20 153.21 20 126.871C20 101.802 39.3414 81.2512 63.9164 79.3276C67.9814 50.3209 92.8947 28 123.022 28C145.373 28 164.853 40.2842 175.081 58.4704C181.21 56.3447 187.793 55.1901 194.645 55.1901C227.609 55.1901 254.332 81.9128 254.332 114.876C254.332 124.465 252.071 133.526 248.052 141.554C241.86 160.708 223.88 174.563 202.664 174.563Z" fill="white" fill-opacity="0.5"/>
</g>
</g>
<defs>
<filter id="filter0_f_64_1226" x="16" y="24" width="246.032" height="204.353" filterUnits="userSpaceOnUse" color-interpolation-filters="sRGB">
<feFlood flood-opacity="0" result="BackgroundImageFix"/>
<feBlend mode="normal" in="SourceGraphic" in2="BackgroundImageFix" result="shape"/>
<feGaussianBlur stdDeviation="2" result="effect1_foregroundBlur_64_1226"/>
</filter>
<filter id="filter1_d_64_1226" x="0" y="0" width="294.332" height="206.562" filterUnits="userSpaceOnUse" color-interpolation-filters="sRGB">
<feFlood flood-opacity="0" result="BackgroundImageFix"/>
<feColorMatrix in="SourceAlpha" type="matrix" values="0 0 0 0 0 0 0 0 0 0 0 0 0 0 0 0 0 0 127 0" result="hardAlpha"/>
<feOffset dx="10" dy="2"/>
<feGaussianBlur stdDeviation="15"/>
<feColorMatrix type="matrix" values="0 0 0 0 0.258824 0 0 0 0 0.627451 0 0 0 0 0.941176 0 0 0 0.596 0"/>
<feBlend mode="normal" in2="BackgroundImageFix" result="effect1_dropShadow_64_1226"/>
<feBlend mode="normal" in="SourceGraphic" in2="effect1_dropShadow_64_1226" result="shape"/>
</filter>
<linearGradient id="paint0_linear_64_1226" x1="137.182" y1="28.0015" x2="205.253" y2="192.579" gradientUnits="userSpaceOnUse">
<stop stop-color="white" stop-opacity="0.604"/>
<stop offset="1" stop-color="white" stop-opacity="0.2"/>
</linearGradient>
</defs>
</svg>
