<svg width="282" height="253" viewBox="0 0 282 253" fill="none" xmlns="http://www.w3.org/2000/svg">
<g filter="url(#filter0_f_64_1246)">
<path d="M48.7853 202.016C50.2004 202.034 64.5426 224.426 64.5426 233.129C64.5426 237.309 62.8825 241.317 59.9274 244.272C56.9723 247.227 52.9644 248.887 48.7853 248.887C44.6061 248.887 40.5982 247.227 37.6431 244.272C34.688 241.317 33.0279 237.309 33.0279 233.129C33.0279 224.426 47.3713 202 48.7853 202.016Z" fill="#42A0F0"/>
<g filter="url(#filter1_f_64_1246)">
<path d="M36.7708 239.02C38.3453 239.501 40.3464 237.521 41.2404 234.597C42.1344 231.673 41.5828 228.912 40.0083 228.43C38.4338 227.949 36.4327 229.929 35.5387 232.854C34.6447 235.778 35.1963 238.538 36.7708 239.02Z" fill="white"/>
</g>
<path d="M135.452 202.016C136.868 202.034 151.21 224.426 151.21 233.129C151.21 237.309 149.55 241.317 146.594 244.272C143.639 247.227 139.631 248.887 135.452 248.887C131.273 248.887 127.265 247.227 124.31 244.272C121.355 241.317 119.695 237.309 119.695 233.129C119.695 224.426 134.038 202 135.452 202.016Z" fill="#42A0F0"/>
<g filter="url(#filter2_f_64_1246)">
<path d="M123.438 239.02C125.012 239.501 127.013 237.521 127.907 234.597C128.801 231.673 128.25 228.912 126.675 228.43C125.101 227.949 123.1 229.929 122.206 232.854C121.312 235.778 121.863 238.538 123.438 239.02Z" fill="white"/>
</g>
<path d="M227.454 202.129C228.869 202.147 243.211 224.54 243.211 233.243C243.211 237.422 241.551 241.43 238.596 244.385C235.641 247.34 231.633 249 227.454 249C223.275 249 219.267 247.34 216.312 244.385C213.357 241.43 211.696 237.422 211.696 233.243C211.696 224.54 226.04 202.113 227.454 202.129Z" fill="#42A0F0"/>
<g filter="url(#filter3_f_64_1246)">
<path d="M214.636 238.916C216.211 239.397 218.212 237.417 219.106 234.493C220 231.569 219.448 228.808 217.874 228.327C216.299 227.845 214.298 229.826 213.404 232.75C212.51 235.674 213.062 238.435 214.636 238.916Z" fill="white"/>
</g>
<path d="M87.178 128.896L129.026 195.853" stroke="#42A0F0" stroke-width="9" stroke-linecap="round"/>
<path d="M97.2742 145.347L101.366 126.235" stroke="#42A0F0" stroke-width="9" stroke-linecap="round"/>
<path d="M97.2742 145.347L77.9305 140.883" stroke="#42A0F0" stroke-width="9" stroke-linecap="round"/>
<path d="M119.593 181.057L138.565 185.754" stroke="#42A0F0" stroke-width="9" stroke-linecap="round"/>
<path d="M119.593 181.057L115.129 200.401" stroke="#42A0F0" stroke-width="9" stroke-linecap="round"/>
<path d="M126.647 127.891L89.5847 197.611" stroke="#42A0F0" stroke-width="9" stroke-linecap="round"/>
<path d="M117.448 144.86L136.045 138.848" stroke="#42A0F0" stroke-width="9" stroke-linecap="round"/>
<path d="M117.448 144.86L111.642 125.876" stroke="#42A0F0" stroke-width="9" stroke-linecap="round"/>
<path d="M97.6816 182.044L103.1 200.822" stroke="#42A0F0" stroke-width="9" stroke-linecap="round"/>
<path d="M97.6817 182.044L78.6976 187.85" stroke="#42A0F0" stroke-width="9" stroke-linecap="round"/>
<path d="M147.252 161.57L68.3406 164.333" stroke="#42A0F0" stroke-width="9" stroke-linecap="round"/>
<path d="M127.956 162.087L142.461 175.186" stroke="#42A0F0" stroke-width="9" stroke-linecap="round"/>
<path d="M127.956 162.087L141.494 147.567" stroke="#42A0F0" stroke-width="9" stroke-linecap="round"/>
<path d="M85.8708 163.561L72.3177 177.643" stroke="#42A0F0" stroke-width="9" stroke-linecap="round"/>
<path d="M85.8707 163.561L71.3506 150.023" stroke="#42A0F0" stroke-width="9" stroke-linecap="round"/>
<path d="M191.565 171.202L175.643 206.961" stroke="#42A0F0" stroke-width="6.00313" stroke-linecap="round"/>
<path d="M187.601 179.912L196.59 176.297" stroke="#42A0F0" stroke-width="6.00313" stroke-linecap="round"/>
<path d="M187.601 179.911L184.075 170.723" stroke="#42A0F0" stroke-width="6.00313" stroke-linecap="round"/>
<path d="M179.109 198.982L182.436 208.082" stroke="#42A0F0" stroke-width="6.00313" stroke-linecap="round"/>
<path d="M179.109 198.982L169.921 202.509" stroke="#42A0F0" stroke-width="6.00313" stroke-linecap="round"/>
<path d="M202.917 187.147L163.988 191.236" stroke="#42A0F0" stroke-width="6.00313" stroke-linecap="round"/>
<path d="M193.393 188.068L201.018 194.046" stroke="#42A0F0" stroke-width="6.00313" stroke-linecap="round"/>
<path d="M193.393 188.068L199.586 180.42" stroke="#42A0F0" stroke-width="6.00313" stroke-linecap="round"/>
<path d="M172.63 190.249L166.414 197.681" stroke="#42A0F0" stroke-width="6.00313" stroke-linecap="round"/>
<path d="M172.63 190.249L164.983 184.055" stroke="#42A0F0" stroke-width="6.00313" stroke-linecap="round"/>
<path d="M194.785 204.95L171.778 173.281" stroke="#42A0F0" stroke-width="6.00313" stroke-linecap="round"/>
<path d="M189.224 197.162L187.86 206.755" stroke="#42A0F0" stroke-width="6.00313" stroke-linecap="round"/>
<path d="M189.224 197.162L198.945 198.702" stroke="#42A0F0" stroke-width="6.00313" stroke-linecap="round"/>
<path d="M176.954 180.272L167.41 178.604" stroke="#42A0F0" stroke-width="6.00313" stroke-linecap="round"/>
<path d="M176.954 180.272L178.494 170.552" stroke="#42A0F0" stroke-width="6.00313" stroke-linecap="round"/>
<g filter="url(#filter4_d_64_1246)">
<path d="M185.268 166.693H65.1306C53.4764 166.685 42.2773 162.168 33.878 154.089C25.4786 146.009 20.5302 134.994 20.0686 123.349C19.607 111.704 23.668 100.332 31.4016 91.6131C39.1351 82.8945 49.9415 77.5055 61.5585 76.5742C63.2151 64.8762 68.4976 53.992 76.6627 45.4529C84.8277 36.9137 95.4645 31.1493 107.077 28.9706C118.689 26.7919 130.691 28.3086 141.397 33.3073C152.102 38.3061 160.97 46.5352 166.755 56.837C177.363 53.1646 188.826 52.7354 199.68 55.6043C210.534 58.4732 220.287 64.51 227.696 72.9449C235.105 81.3798 239.833 91.8303 241.278 102.964C242.723 114.097 240.819 125.408 235.809 135.455C232.869 144.532 227.128 152.445 219.412 158.058C211.695 163.67 202.398 166.693 192.856 166.693H185.268Z" fill="url(#paint0_linear_64_1246)"/>
<path d="M192.856 166.065C197.701 166.065 202.465 165.292 207.015 163.766C211.415 162.291 215.545 160.138 219.292 157.367C222.995 154.628 226.242 151.347 228.941 147.615C231.674 143.837 233.783 139.681 235.212 135.261L235.226 135.216L235.247 135.174C237.146 131.378 238.609 127.364 239.594 123.241C240.608 118.998 241.122 114.614 241.122 110.212C241.122 106.422 240.74 102.634 239.987 98.9544C239.253 95.3686 238.158 91.8415 236.733 88.471C235.333 85.1616 233.601 81.9696 231.583 78.9837C229.585 76.026 227.29 73.2447 224.763 70.717C222.235 68.1893 219.454 65.8945 216.496 63.8963C213.51 61.8791 210.318 60.1465 207.009 58.7467C203.638 57.3211 200.111 56.2262 196.525 55.4924C192.846 54.7395 189.058 54.3577 185.268 54.3577C178.993 54.3577 172.833 55.3905 166.96 57.4273L166.464 57.5992L166.207 57.142C161.428 48.6435 154.476 41.5064 146.102 36.5023C141.868 33.9715 137.318 32.0159 132.58 30.6896C127.693 29.3213 122.616 28.6276 117.49 28.6276C110.597 28.6276 103.867 29.8683 97.4892 32.3152C91.3277 34.679 85.6754 38.0937 80.6894 42.4643C75.7321 46.8097 71.6182 51.9369 68.4619 57.7035C65.2281 63.6116 63.1145 69.9891 62.1799 76.6587L62.1099 77.1579L61.6074 77.1973C55.9854 77.6373 50.5765 79.1175 45.5307 81.5966C40.6279 84.0056 36.2498 87.2638 32.5182 91.2808C24.8504 99.5349 20.6276 110.289 20.6276 121.563C20.6276 127.571 21.8041 133.399 24.1246 138.885C25.2399 141.522 26.6203 144.065 28.2276 146.444C29.8197 148.801 31.6482 151.017 33.6622 153.031C35.6762 155.045 37.8923 156.873 40.2489 158.465C42.628 160.073 45.1713 161.453 47.8081 162.568C53.2942 164.889 59.1223 166.065 65.1303 166.065H185.268H192.856ZM192.856 166.693H185.268H65.1303C40.2057 166.693 20 146.487 20 121.563C20 97.8397 38.3029 78.3919 61.5584 76.5716C65.405 49.1224 88.9807 28 117.49 28C138.641 28 157.076 39.6246 166.754 56.8344C172.554 54.8228 178.783 53.7301 185.268 53.7301C216.462 53.7301 241.749 79.018 241.749 110.212C241.749 119.284 239.61 127.858 235.809 135.454C229.95 153.582 212.935 166.693 192.856 166.693Z" fill="white" fill-opacity="0.5"/>
</g>
</g>
<defs>
<filter id="filter0_f_64_1246" x="16" y="24" width="231.211" height="229" filterUnits="userSpaceOnUse" color-interpolation-filters="sRGB">
<feFlood flood-opacity="0" result="BackgroundImageFix"/>
<feBlend mode="normal" in="SourceGraphic" in2="BackgroundImageFix" result="shape"/>
<feGaussianBlur stdDeviation="2" result="effect1_foregroundBlur_64_1246"/>
</filter>
<filter id="filter1_f_64_1246" x="31.1107" y="224.358" width="14.5579" height="18.7334" filterUnits="userSpaceOnUse" color-interpolation-filters="sRGB">
<feFlood flood-opacity="0" result="BackgroundImageFix"/>
<feBlend mode="normal" in="SourceGraphic" in2="BackgroundImageFix" result="shape"/>
<feGaussianBlur stdDeviation="2" result="effect1_foregroundBlur_64_1246"/>
</filter>
<filter id="filter2_f_64_1246" x="117.778" y="224.358" width="14.5579" height="18.7334" filterUnits="userSpaceOnUse" color-interpolation-filters="sRGB">
<feFlood flood-opacity="0" result="BackgroundImageFix"/>
<feBlend mode="normal" in="SourceGraphic" in2="BackgroundImageFix" result="shape"/>
<feGaussianBlur stdDeviation="2" result="effect1_foregroundBlur_64_1246"/>
</filter>
<filter id="filter3_f_64_1246" x="208.976" y="224.255" width="14.5579" height="18.7334" filterUnits="userSpaceOnUse" color-interpolation-filters="sRGB">
<feFlood flood-opacity="0" result="BackgroundImageFix"/>
<feBlend mode="normal" in="SourceGraphic" in2="BackgroundImageFix" result="shape"/>
<feGaussianBlur stdDeviation="2" result="effect1_foregroundBlur_64_1246"/>
</filter>
<filter id="filter4_d_64_1246" x="0" y="0" width="281.749" height="198.693" filterUnits="userSpaceOnUse" color-interpolation-filters="sRGB">
<feFlood flood-opacity="0" result="BackgroundImageFix"/>
<feColorMatrix in="SourceAlpha" type="matrix" values="0 0 0 0 0 0 0 0 0 0 0 0 0 0 0 0 0 0 127 0" result="hardAlpha"/>
<feOffset dx="10" dy="2"/>
<feGaussianBlur stdDeviation="15"/>
<feColorMatrix type="matrix" values="0 0 0 0 0.258824 0 0 0 0 0.627451 0 0 0 0 0.941176 0 0 0 0.596 0"/>
<feBlend mode="normal" in2="BackgroundImageFix" result="effect1_dropShadow_64_1246"/>
<feBlend mode="normal" in="SourceGraphic" in2="effect1_dropShadow_64_1246" result="shape"/>
</filter>
<linearGradient id="paint0_linear_64_1246" x1="130.891" y1="28.0017" x2="195.306" y2="183.742" gradientUnits="userSpaceOnUse">
<stop stop-color="white" stop-opacity="0.604"/>
<stop offset="1" stop-color="white" stop-opacity="0.2"/>
</linearGradient>
</defs>
</svg>
