<svg width="300" height="242" viewBox="0 0 300 242" fill="none" xmlns="http://www.w3.org/2000/svg">
<g filter="url(#filter0_f_62_213)">
<path d="M149.149 214.763C203.549 214.763 247.649 170.439 247.649 115.763C247.649 61.0868 203.549 16.7629 149.149 16.7629C94.749 16.7629 50.649 61.0868 50.649 115.763C50.649 170.439 94.749 214.763 149.149 214.763Z" fill="#FA9E42"/>
<g filter="url(#filter1_f_62_213)">
<path d="M142.032 101.684C174.768 84.2964 193.078 54.7096 182.929 35.6004C172.779 16.4912 138.013 15.0957 105.276 32.4835C72.5394 49.8714 54.2291 79.4581 64.3789 98.5674C74.5286 117.677 109.295 119.072 142.032 101.684Z" fill="#F8E36F"/>
</g>
<g filter="url(#filter2_d_62_213)">
<path d="M48.1962 130.237H108.17C113.988 130.233 119.578 127.978 123.772 123.945C127.965 119.911 130.435 114.413 130.665 108.599C130.896 102.786 128.868 97.1087 125.008 92.7563C121.147 88.4039 115.752 85.7136 109.953 85.2487C109.126 79.409 106.489 73.9755 102.413 69.7126C98.3369 65.4498 93.0269 62.5722 87.23 61.4845C81.4332 60.3969 75.4412 61.1541 70.0972 63.6495C64.7531 66.1449 60.3258 70.253 57.4382 75.3957C52.142 73.5624 46.4197 73.3482 41.0012 74.7804C35.5828 76.2127 30.7138 79.2265 27.0152 83.4375C23.3167 87.6484 20.9564 92.8656 20.2352 98.4236C19.5141 103.982 20.4649 109.628 22.9663 114.644C24.4342 119.175 27.2999 123.125 31.152 125.926C35.0042 128.728 39.6448 130.237 44.4079 130.237H48.1962Z" fill="url(#paint0_linear_62_213)"/>
<path d="M44.4079 129.924C41.9895 129.924 39.6116 129.537 37.3404 128.776C35.1442 128.039 33.0823 126.965 31.212 125.582C29.3632 124.214 27.7426 122.577 26.3951 120.714C25.0308 118.828 23.9775 116.753 23.2644 114.547L23.2571 114.525L23.2465 114.503C22.2981 112.609 21.5679 110.604 21.076 108.546C20.5699 106.428 20.3132 104.239 20.3132 102.041C20.3132 100.149 20.5038 98.2581 20.8797 96.4212C21.246 94.6311 21.7926 92.8703 22.5043 91.1877C23.2031 89.5356 24.068 87.9421 25.075 86.4516C26.0725 84.975 27.2181 83.5866 28.48 82.3248C29.7418 81.0629 31.1303 79.9173 32.6068 78.9198C34.0974 77.9128 35.6908 77.0479 37.3429 76.3491C39.0255 75.6374 40.7863 75.0908 42.5764 74.7245C44.4133 74.3486 46.304 74.158 48.196 74.158C51.3288 74.158 54.4038 74.6736 57.3357 75.6904L57.5831 75.7762L57.7114 75.548C60.0973 71.3054 63.5679 67.7425 67.748 65.2444C69.8619 63.981 72.133 63.0047 74.4982 62.3427C76.9383 61.6596 79.4728 61.3133 82.0313 61.3133C85.4728 61.3133 88.8321 61.9327 92.0161 63.1542C95.092 64.3342 97.9136 66.0389 100.403 68.2207C102.877 70.39 104.931 72.9496 106.507 75.8283C108.121 78.7777 109.176 81.9614 109.643 85.2909L109.678 85.5401L109.929 85.5598C112.735 85.7794 115.435 86.5184 117.954 87.756C120.402 88.9585 122.587 90.5851 124.45 92.5904C128.278 96.7109 130.386 102.08 130.386 107.707C130.386 110.707 129.799 113.616 128.64 116.355C128.084 117.671 127.395 118.941 126.592 120.128C125.797 121.305 124.885 122.411 123.879 123.417C122.874 124.422 121.767 125.335 120.591 126.13C119.403 126.932 118.134 127.621 116.817 128.178C114.079 129.336 111.169 129.924 108.17 129.924H48.196H44.4079ZM44.4079 130.237H48.196H108.17C120.613 130.237 130.699 120.15 130.699 107.707C130.699 95.8647 121.562 86.1561 109.953 85.2474C108.033 71.5445 96.2636 61 82.0313 61C71.4728 61 62.27 66.8031 57.4383 75.3944C54.5428 74.3902 51.4333 73.8447 48.196 73.8447C32.6239 73.8447 19.9999 86.4687 19.9999 102.041C19.9999 106.571 21.068 110.851 22.9663 114.644C25.8915 123.692 34.3856 130.237 44.4079 130.237Z" fill="white" fill-opacity="0.5"/>
<path d="M177.196 209.237H237.17C242.988 209.233 248.578 206.978 252.772 202.945C256.965 198.911 259.435 193.413 259.665 187.599C259.896 181.786 257.868 176.109 254.008 171.756C250.147 167.404 244.752 164.714 238.953 164.249C238.126 158.409 235.489 152.975 231.413 148.713C227.337 144.45 222.027 141.572 216.23 140.485C210.433 139.397 204.441 140.154 199.097 142.649C193.753 145.145 189.326 149.253 186.438 154.396C181.142 152.562 175.42 152.348 170.001 153.78C164.583 155.213 159.714 158.227 156.015 162.437C152.317 166.648 149.956 171.866 149.235 177.424C148.514 182.982 149.465 188.628 151.966 193.644C153.434 198.175 156.3 202.125 160.152 204.926C164.004 207.728 168.645 209.237 173.408 209.237H177.196Z" fill="url(#paint1_linear_62_213)"/>
<path d="M173.408 208.924C170.989 208.924 168.612 208.537 166.34 207.776C164.144 207.039 162.082 205.965 160.212 204.582C158.363 203.214 156.743 201.577 155.395 199.714C154.031 197.828 152.978 195.753 152.264 193.547L152.257 193.525L152.246 193.503C151.298 191.609 150.568 189.604 150.076 187.546C149.57 185.428 149.313 183.239 149.313 181.041C149.313 179.149 149.504 177.258 149.88 175.421C150.246 173.631 150.793 171.87 151.504 170.188C152.203 168.536 153.068 166.942 154.075 165.452C155.073 163.975 156.218 162.587 157.48 161.325C158.742 160.063 160.13 158.917 161.607 157.92C163.097 156.913 164.691 156.048 166.343 155.349C168.026 154.637 169.786 154.091 171.576 153.725C173.413 153.349 175.304 153.158 177.196 153.158C180.329 153.158 183.404 153.674 186.336 154.69L186.583 154.776L186.711 154.548C189.097 150.305 192.568 146.743 196.748 144.244C198.862 142.981 201.133 142.005 203.498 141.343C205.938 140.66 208.473 140.313 211.031 140.313C214.473 140.313 217.832 140.933 221.016 142.154C224.092 143.334 226.914 145.039 229.403 147.221C231.877 149.39 233.931 151.95 235.507 154.828C237.121 157.778 238.176 160.961 238.643 164.291L238.678 164.54L238.929 164.56C241.735 164.779 244.435 165.518 246.954 166.756C249.402 167.959 251.587 169.585 253.45 171.59C257.278 175.711 259.386 181.08 259.386 186.707C259.386 189.707 258.799 192.616 257.64 195.355C257.084 196.671 256.395 197.941 255.592 199.128C254.797 200.305 253.885 201.411 252.879 202.417C251.874 203.422 250.767 204.335 249.591 205.13C248.403 205.932 247.134 206.621 245.817 207.178C243.079 208.336 240.169 208.924 237.17 208.924H177.196H173.408ZM173.408 209.237H177.196H237.17C249.613 209.237 259.699 199.15 259.699 186.707C259.699 174.865 250.562 165.156 238.953 164.247C237.033 150.545 225.264 140 211.031 140C200.473 140 191.27 145.803 186.438 154.394C183.543 153.39 180.433 152.845 177.196 152.845C161.624 152.845 149 165.469 149 181.041C149 185.571 150.068 189.851 151.966 193.644C154.892 202.692 163.386 209.237 173.408 209.237Z" fill="white" fill-opacity="0.5"/>
</g>
</g>
<defs>
<filter id="filter0_f_62_213" x="15.9999" y="12.7629" width="247.7" height="206" filterUnits="userSpaceOnUse" color-interpolation-filters="sRGB">
<feFlood flood-opacity="0" result="BackgroundImageFix"/>
<feBlend mode="normal" in="SourceGraphic" in2="BackgroundImageFix" result="shape"/>
<feGaussianBlur stdDeviation="2" result="effect1_foregroundBlur_62_213"/>
</filter>
<filter id="filter1_f_62_213" x="41.5787" y="0.303345" width="164.15" height="133.561" filterUnits="userSpaceOnUse" color-interpolation-filters="sRGB">
<feFlood flood-opacity="0" result="BackgroundImageFix"/>
<feBlend mode="normal" in="SourceGraphic" in2="BackgroundImageFix" result="shape"/>
<feGaussianBlur stdDeviation="10" result="effect1_foregroundBlur_62_213"/>
</filter>
<filter id="filter2_d_62_213" x="-0.00012207" y="33" width="299.7" height="208.237" filterUnits="userSpaceOnUse" color-interpolation-filters="sRGB">
<feFlood flood-opacity="0" result="BackgroundImageFix"/>
<feColorMatrix in="SourceAlpha" type="matrix" values="0 0 0 0 0 0 0 0 0 0 0 0 0 0 0 0 0 0 127 0" result="hardAlpha"/>
<feOffset dx="10" dy="2"/>
<feGaussianBlur stdDeviation="15"/>
<feColorMatrix type="matrix" values="0 0 0 0 0.258824 0 0 0 0 0.627451 0 0 0 0 0.941176 0 0 0 0.596 0"/>
<feBlend mode="normal" in2="BackgroundImageFix" result="effect1_dropShadow_62_213"/>
<feBlend mode="normal" in="SourceGraphic" in2="effect1_dropShadow_62_213" result="shape"/>
</filter>
<linearGradient id="paint0_linear_62_213" x1="75.3419" y1="61.0009" x2="43.1849" y2="138.748" gradientUnits="userSpaceOnUse">
<stop stop-color="white" stop-opacity="0.604"/>
<stop offset="1" stop-color="white" stop-opacity="0.2"/>
</linearGradient>
<linearGradient id="paint1_linear_62_213" x1="204.342" y1="140.001" x2="172.185" y2="217.748" gradientUnits="userSpaceOnUse">
<stop stop-color="white" stop-opacity="0.604"/>
<stop offset="1" stop-color="white" stop-opacity="0.2"/>
</linearGradient>
</defs>
</svg>
