<svg width="168" height="255" viewBox="0 0 168 255" fill="none" xmlns="http://www.w3.org/2000/svg">
<g filter="url(#filter0_f_64_1318)">
<path d="M52.6519 132.337C71.0201 132.337 85.9105 117.446 85.9105 99.0782C85.9105 80.71 71.0201 65.8196 52.6519 65.8196C34.2837 65.8196 19.3933 80.71 19.3933 99.0782C19.3933 117.446 34.2837 132.337 52.6519 132.337Z" fill="#FA9E42"/>
<path d="M52.6519 139.266C74.8468 139.266 92.8394 121.273 92.8394 99.0781C92.8394 76.8832 74.8468 58.8906 52.6519 58.8906C30.457 58.8906 12.4644 76.8832 12.4644 99.0781C12.4644 121.273 30.457 139.266 52.6519 139.266Z" stroke="#FA9E42" stroke-width="10" stroke-linecap="round" stroke-dasharray="1 66"/>
<g filter="url(#filter1_f_64_1318)">
<path d="M48.9258 92.2751C60.7144 86.0137 67.383 75.5005 63.8204 68.7932C60.2579 62.0859 47.8134 61.7245 36.0248 67.9859C24.2361 74.2473 17.5676 84.7606 21.1301 91.4679C24.6927 98.1751 37.1372 98.5366 48.9258 92.2751Z" fill="#F8E36F"/>
</g>
</g>
<g filter="url(#filter2_df_64_1318)">
<g filter="url(#filter3_d_64_1318)">
<path d="M63.5773 146.522L63.5773 52.2515C63.5773 45.8198 66.1323 39.6514 70.6803 35.1035C75.2283 30.5555 81.3966 28.0005 87.8284 28.0005C94.2602 28.0005 100.429 30.5555 104.976 35.1035C109.524 39.6514 112.079 45.8198 112.079 52.2515L112.079 148.542C118.368 153.474 123.103 160.115 125.716 167.668C128.328 175.221 128.709 183.368 126.811 191.132C124.914 198.896 120.819 205.949 115.017 211.446C109.215 216.943 101.952 220.651 94.0969 222.127C91.2459 222.883 88.2817 223.118 85.3471 222.82C76.4978 222.589 67.953 219.54 60.9567 214.116C53.9605 208.692 48.8779 201.177 46.449 192.664C44.0201 184.152 44.3715 175.086 47.4523 166.787C50.533 158.488 56.1821 151.389 63.5773 146.523V146.522Z" fill="url(#paint0_linear_64_1318)"/>
<path d="M45.5456 181.259C45.5456 186.691 46.5938 191.968 48.6611 196.941C50.658 201.744 53.5217 206.076 57.1726 209.815C58.9709 211.657 60.9517 213.337 63.0601 214.808C65.1868 216.292 67.463 217.578 69.8256 218.629C74.7325 220.812 79.9608 221.988 85.3653 222.126L85.3916 222.126L85.4178 222.129C86.2129 222.21 87.0241 222.251 87.8287 222.251C89.894 222.251 91.943 221.984 93.9187 221.456L93.9443 221.45L93.9703 221.445C98.6399 220.574 103.085 218.905 107.183 216.485C111.195 214.116 114.752 211.101 117.754 207.524C120.778 203.921 123.137 199.868 124.766 195.478C126.452 190.934 127.307 186.15 127.307 181.259C127.307 178.054 126.935 174.863 126.201 171.775C125.488 168.773 124.429 165.849 123.054 163.083C121.703 160.367 120.043 157.794 118.119 155.435C116.207 153.091 114.031 150.955 111.652 149.087L111.387 148.879V148.542L111.387 52.2511C111.387 49.0705 110.764 45.9853 109.536 43.0814C108.349 40.2761 106.651 37.7566 104.487 35.5929C102.323 33.4291 99.8037 31.7304 96.9984 30.5439C94.0945 29.3157 91.0094 28.6929 87.8287 28.6929C84.648 28.6929 81.5628 29.3157 78.6589 30.5439C75.8537 31.7304 73.3342 33.4291 71.1704 35.5929C69.0067 37.7566 67.308 40.2761 66.1215 43.0814C64.8932 45.9853 64.2704 49.0705 64.2704 52.2511L64.2704 146.522V146.895L63.9588 147.1C58.4133 150.755 53.791 155.757 50.5916 161.567C48.9653 164.52 47.7106 167.669 46.8626 170.925C45.9887 174.281 45.5456 177.757 45.5456 181.259ZM44.8527 181.259C44.8527 166.738 52.2964 153.956 63.5776 146.522L63.5776 52.2511C63.5776 38.8575 74.435 28 87.8287 28C101.222 28 112.08 38.8575 112.08 52.2511L112.08 148.542C121.772 156.153 128 167.979 128 181.259C128 201.598 113.393 218.527 94.0973 222.126C92.0976 222.659 89.9967 222.944 87.8287 222.944C86.9908 222.944 86.1637 222.901 85.3477 222.818C62.8853 222.247 44.8527 203.859 44.8527 181.259Z" fill="white" fill-opacity="0.5"/>
</g>
<path d="M55.4283 182.208C55.4269 176.344 57.0432 170.594 60.0994 165.589C63.1556 160.585 67.5332 156.52 72.7505 153.843V51.9457C72.7505 50.0348 73.1268 48.1427 73.8581 46.3774C74.5893 44.612 75.6611 43.008 77.0122 41.6568C79.741 38.928 83.442 37.395 87.3011 37.395C89.2119 37.395 91.104 37.7714 92.8694 38.5026C94.6347 39.2339 96.2388 40.3056 97.5899 41.6568C98.9411 43.008 100.013 44.612 100.744 46.3774C101.475 48.1427 101.852 50.0348 101.852 51.9457V153.843C106.889 156.428 111.147 160.307 114.187 165.083C117.228 169.858 118.941 175.358 119.152 181.015C119.362 186.673 118.062 192.284 115.385 197.273C112.708 202.261 108.75 206.447 103.919 209.398C99.0883 212.35 93.5582 213.962 87.8978 214.068C82.2373 214.174 76.6508 212.77 71.7127 210.001C66.7746 207.232 62.6631 203.198 59.801 198.313C56.939 193.429 55.4297 187.87 55.4283 182.208V182.208Z" fill="white"/>
</g>
<defs>
<filter id="filter0_f_64_1318" x="5.46445" y="51.8906" width="94.3749" height="94.375" filterUnits="userSpaceOnUse" color-interpolation-filters="sRGB">
<feFlood flood-opacity="0" result="BackgroundImageFix"/>
<feBlend mode="normal" in="SourceGraphic" in2="BackgroundImageFix" result="shape"/>
<feGaussianBlur stdDeviation="1" result="effect1_foregroundBlur_64_1318"/>
</filter>
<filter id="filter1_f_64_1318" x="0.170868" y="43.5164" width="84.6089" height="73.2283" filterUnits="userSpaceOnUse" color-interpolation-filters="sRGB">
<feFlood flood-opacity="0" result="BackgroundImageFix"/>
<feBlend mode="normal" in="SourceGraphic" in2="BackgroundImageFix" result="shape"/>
<feGaussianBlur stdDeviation="10" result="effect1_foregroundBlur_64_1318"/>
</filter>
<filter id="filter2_df_64_1318" x="24.8528" y="0" width="143.147" height="254.945" filterUnits="userSpaceOnUse" color-interpolation-filters="sRGB">
<feFlood flood-opacity="0" result="BackgroundImageFix"/>
<feColorMatrix in="SourceAlpha" type="matrix" values="0 0 0 0 0 0 0 0 0 0 0 0 0 0 0 0 0 0 127 0" result="hardAlpha"/>
<feOffset dx="10" dy="2"/>
<feGaussianBlur stdDeviation="15"/>
<feColorMatrix type="matrix" values="0 0 0 0 0.258824 0 0 0 0 0.627451 0 0 0 0 0.941176 0 0 0 0.596 0"/>
<feBlend mode="normal" in2="BackgroundImageFix" result="effect1_dropShadow_64_1318"/>
<feBlend mode="normal" in="SourceGraphic" in2="effect1_dropShadow_64_1318" result="shape"/>
<feGaussianBlur stdDeviation="1" result="effect2_foregroundBlur_64_1318"/>
</filter>
<filter id="filter3_d_64_1318" x="24.8528" y="0" width="143.147" height="254.945" filterUnits="userSpaceOnUse" color-interpolation-filters="sRGB">
<feFlood flood-opacity="0" result="BackgroundImageFix"/>
<feColorMatrix in="SourceAlpha" type="matrix" values="0 0 0 0 0 0 0 0 0 0 0 0 0 0 0 0 0 0 127 0" result="hardAlpha"/>
<feOffset dx="10" dy="2"/>
<feGaussianBlur stdDeviation="15"/>
<feColorMatrix type="matrix" values="0 0 0 0 0.501961 0 0 0 0 0.501961 0 0 0 0 0.501961 0 0 0 0.302 0"/>
<feBlend mode="normal" in2="BackgroundImageFix" result="effect1_dropShadow_64_1318"/>
<feBlend mode="normal" in="SourceGraphic" in2="effect1_dropShadow_64_1318" result="shape"/>
</filter>
<linearGradient id="paint0_linear_64_1318" x1="117.524" y1="106.953" x2="35.7294" y2="126.329" gradientUnits="userSpaceOnUse">
<stop stop-color="white" stop-opacity="0.596"/>
<stop offset="1" stop-color="#F7F7F7" stop-opacity="0.204"/>
</linearGradient>
</defs>
</svg>
