<svg width="226" height="208" viewBox="0 0 226 208" fill="none" xmlns="http://www.w3.org/2000/svg">
<g filter="url(#filter0_f_64_1372)">
<path d="M117.076 8.37904C123.664 8.37767 130.235 9.04345 136.688 10.3662C149.146 12.9324 160.974 17.9351 171.493 25.0869C186.066 34.9641 197.709 48.5845 205.199 64.5165C212.689 80.4486 215.748 98.104 214.057 115.627C212.365 133.151 205.984 149.895 195.585 164.1C185.186 178.305 171.153 189.446 154.959 196.354C149.073 198.855 142.953 200.764 136.688 202.054C123.104 204.809 109.089 204.637 95.5769 201.55C82.0645 198.464 69.3649 192.534 58.3241 184.154C47.2833 175.775 38.1547 165.139 31.5464 152.956C24.9382 140.772 21.0019 127.32 19.9999 113.496C30.6516 115.988 41.7161 116.147 52.435 113.963C62.0543 111.993 71.1914 108.148 79.3251 102.648C91.4157 94.4859 100.88 82.9932 106.571 69.5617C108.494 65.0125 109.962 60.2841 110.953 55.4456C113.065 45.0794 112.987 34.3862 110.724 24.052C109.585 18.8839 107.9 13.8513 105.699 9.03872C109.475 8.59902 113.274 8.37876 117.076 8.37904Z" fill="#713FFD"/>
<g filter="url(#filter1_f_64_1372)">
<path d="M182.939 38.6227C161.089 18.9489 132.465 15.1179 119.006 30.066C105.546 45.0141 112.348 73.0807 134.199 92.7545C156.049 112.428 184.672 116.259 198.132 101.311C211.591 86.3632 204.789 58.2966 182.939 38.6227Z" fill="#A586FC"/>
</g>
<g filter="url(#filter2_d_64_1372)">
<path d="M48.1962 97.237H108.17C113.988 97.2326 119.578 94.9777 123.772 90.9445C127.965 86.9113 130.435 81.4125 130.665 75.5991C130.896 69.7858 128.868 64.1086 125.008 59.7562C121.147 55.4038 115.752 52.7135 109.953 52.2486C109.126 46.4089 106.489 40.9754 102.413 36.7125C98.3369 32.4497 93.0269 29.572 87.23 28.4844C81.4332 27.3968 75.4412 28.154 70.0972 30.6494C64.7531 33.1448 60.3258 37.2528 57.4382 42.3956C52.142 40.5623 46.4197 40.348 41.0012 41.7803C35.5828 43.2126 30.7138 46.2264 27.0152 50.4373C23.3167 54.6483 20.9564 59.8655 20.2352 65.4235C19.5141 70.9814 20.4649 76.6283 22.9663 81.6436C24.4342 86.1749 27.2999 90.1246 31.152 92.9261C35.0042 95.7276 39.6448 97.2367 44.4079 97.237H48.1962Z" fill="url(#paint0_linear_64_1372)"/>
<path d="M44.4079 96.9236C41.9895 96.9236 39.6117 96.5375 37.3405 95.7759C35.1442 95.0394 33.0823 93.9647 31.212 92.5815C29.3633 91.2143 27.7427 89.5766 26.3952 87.7138C25.0309 85.8278 23.9776 83.753 23.2645 81.5472L23.2572 81.5246L23.2465 81.5034C22.2982 79.6086 21.5679 77.6042 21.0761 75.5459C20.5699 73.4279 20.3133 71.2393 20.3133 69.0408C20.3133 67.1488 20.5039 65.2581 20.8798 63.4212C21.2461 61.6311 21.7927 59.8703 22.5044 58.1877C23.2031 56.5356 24.0681 54.9421 25.0751 53.4516C26.0726 51.975 27.2182 50.5866 28.48 49.3248C29.7419 48.0629 31.1303 46.9173 32.6068 45.9198C34.0974 44.9128 35.6909 44.0479 37.343 43.3491C39.0256 42.6374 40.7864 42.0908 42.5764 41.7245C44.4134 41.3486 46.3041 41.158 48.1961 41.158C51.3289 41.158 54.4039 41.6736 57.3357 42.6904L57.5831 42.7762L57.7115 42.548C60.0974 38.3054 63.568 34.7425 67.748 32.2444C69.862 30.981 72.1331 30.0047 74.4983 29.3427C76.9383 28.6596 79.4728 28.3133 82.0314 28.3133C85.4728 28.3133 88.8322 28.9327 92.0161 30.1542C95.092 31.3342 97.9137 33.0389 100.403 35.2207C102.878 37.39 104.931 39.9496 106.507 42.8283C108.121 45.7777 109.176 48.9614 109.643 52.2909L109.678 52.5401L109.929 52.5598C112.735 52.7794 115.435 53.5184 117.954 54.756C120.402 55.9585 122.587 57.5851 124.45 59.5904C128.278 63.7109 130.386 69.0796 130.386 74.7074C130.386 77.7067 129.799 80.6161 128.64 83.3548C128.084 84.6712 127.395 85.9408 126.592 87.1284C125.797 88.3049 124.885 89.4112 123.879 90.4166C122.874 91.422 121.768 92.3348 120.591 93.1296C119.403 93.932 118.134 94.6211 116.817 95.1779C114.079 96.3363 111.169 96.9236 108.17 96.9236H48.1961H44.4079ZM44.4079 97.2369H48.1961H108.17C120.613 97.2369 130.7 87.15 130.7 74.7074C130.7 62.8647 121.563 53.1561 109.953 52.2474C108.033 38.5445 96.2637 28 82.0314 28C71.4729 28 62.27 33.8031 57.4384 42.3944C54.5429 41.3902 51.4334 40.8447 48.1961 40.8447C32.624 40.8447 20 53.4687 20 69.0408C20 73.5707 21.0681 77.8509 22.9664 81.6436C25.8916 90.6921 34.3856 97.2369 44.4079 97.2369Z" fill="white" fill-opacity="0.5"/>
</g>
</g>
<defs>
<filter id="filter0_f_64_1372" x="15.9999" y="4.37915" width="202.51" height="203.621" filterUnits="userSpaceOnUse" color-interpolation-filters="sRGB">
<feFlood flood-opacity="0" result="BackgroundImageFix"/>
<feBlend mode="normal" in="SourceGraphic" in2="BackgroundImageFix" result="shape"/>
<feGaussianBlur stdDeviation="2" result="effect1_foregroundBlur_64_1372"/>
</filter>
<filter id="filter1_f_64_1372" x="92.0958" y="0.947754" width="132.946" height="129.482" filterUnits="userSpaceOnUse" color-interpolation-filters="sRGB">
<feFlood flood-opacity="0" result="BackgroundImageFix"/>
<feBlend mode="normal" in="SourceGraphic" in2="BackgroundImageFix" result="shape"/>
<feGaussianBlur stdDeviation="10" result="effect1_foregroundBlur_64_1372"/>
</filter>
<filter id="filter2_d_64_1372" x="0" y="0" width="170.7" height="129.237" filterUnits="userSpaceOnUse" color-interpolation-filters="sRGB">
<feFlood flood-opacity="0" result="BackgroundImageFix"/>
<feColorMatrix in="SourceAlpha" type="matrix" values="0 0 0 0 0 0 0 0 0 0 0 0 0 0 0 0 0 0 127 0" result="hardAlpha"/>
<feOffset dx="10" dy="2"/>
<feGaussianBlur stdDeviation="15"/>
<feColorMatrix type="matrix" values="0 0 0 0 0.258824 0 0 0 0 0.627451 0 0 0 0 0.941176 0 0 0 0.596 0"/>
<feBlend mode="normal" in2="BackgroundImageFix" result="effect1_dropShadow_64_1372"/>
<feBlend mode="normal" in="SourceGraphic" in2="effect1_dropShadow_64_1372" result="shape"/>
</filter>
<linearGradient id="paint0_linear_64_1372" x1="75.3419" y1="28.0007" x2="43.1849" y2="105.748" gradientUnits="userSpaceOnUse">
<stop stop-color="white" stop-opacity="0.604"/>
<stop offset="1" stop-color="white" stop-opacity="0.2"/>
</linearGradient>
</defs>
</svg>
