<svg width="331" height="246" viewBox="0 0 331 246" fill="none" xmlns="http://www.w3.org/2000/svg">
<g filter="url(#filter0_f_64_1391)">
<g filter="url(#filter1_f_64_1391)">
<path d="M151.076 8.37904C157.664 8.37767 164.235 9.04345 170.688 10.3662C183.146 12.9324 194.974 17.9351 205.493 25.0869C220.066 34.9641 231.709 48.5845 239.199 64.5165C246.689 80.4486 249.748 98.104 248.057 115.627C246.365 133.151 239.984 149.895 229.585 164.1C219.186 178.305 205.153 189.446 188.959 196.354C183.073 198.855 176.953 200.764 170.688 202.054C157.104 204.809 143.089 204.637 129.577 201.55C116.065 198.464 103.365 192.534 92.3241 184.154C81.2833 175.775 72.1547 165.139 65.5464 152.956C58.9382 140.772 55.0019 127.32 53.9999 113.496C64.6516 115.988 75.7161 116.147 86.435 113.963C96.0543 111.993 105.191 108.148 113.325 102.648C125.416 94.4859 134.88 82.9932 140.571 69.5617C142.494 65.0125 143.962 60.2841 144.953 55.4456C147.065 45.0794 146.987 34.3862 144.724 24.052C143.585 18.8839 141.9 13.8513 139.699 9.03872C143.475 8.59902 147.274 8.37876 151.076 8.37904Z" fill="#713FFD"/>
<g filter="url(#filter2_f_64_1391)">
<path d="M216.939 38.6227C195.089 18.9489 166.465 15.1179 153.006 30.066C139.546 45.0141 146.348 73.0807 168.199 92.7545C190.049 112.428 218.672 116.259 232.132 101.311C245.591 86.3632 238.789 58.2966 216.939 38.6227Z" fill="#A586FC"/>
</g>
</g>
<g filter="url(#filter3_d_64_1391)">
<path d="M48.196 138.237H108.17C113.988 138.233 119.578 135.978 123.771 131.945C127.964 127.911 130.435 122.412 130.665 116.599C130.896 110.786 128.868 105.109 125.008 100.756C121.147 96.4038 115.752 93.7135 109.953 93.2486C109.126 87.4089 106.489 81.9754 102.413 77.7125C98.3368 73.4497 93.0268 70.572 87.2299 69.4844C81.4331 68.3968 75.4411 69.154 70.097 71.6494C64.7529 74.1448 60.3257 78.2528 57.4381 83.3956C52.1419 81.5623 46.4196 81.348 41.0011 82.7803C35.5827 84.2126 30.7136 87.2264 27.0151 91.4373C23.3166 95.6483 20.9563 100.865 20.2351 106.423C19.514 111.981 20.4648 117.628 22.9662 122.644C24.4341 127.175 27.2998 131.125 31.1519 133.926C35.0041 136.728 39.6446 138.237 44.4077 138.237H48.196Z" fill="url(#paint0_linear_64_1391)"/>
<path d="M44.4079 137.924C41.9895 137.924 39.6116 137.537 37.3404 136.776C35.1442 136.039 33.0823 134.965 31.212 133.582C29.3632 132.214 27.7426 130.577 26.3951 128.714C25.0308 126.828 23.9775 124.753 23.2644 122.547L23.2571 122.525L23.2465 122.503C22.2981 120.609 21.5679 118.604 21.076 116.546C20.5699 114.428 20.3132 112.239 20.3132 110.041C20.3132 108.149 20.5038 106.258 20.8797 104.421C21.246 102.631 21.7926 100.87 22.5043 99.1877C23.2031 97.5356 24.068 95.9421 25.075 94.4516C26.0725 92.975 27.2181 91.5866 28.48 90.3248C29.7418 89.0629 31.1303 87.9173 32.6068 86.9198C34.0974 85.9128 35.6908 85.0479 37.3429 84.3491C39.0255 83.6374 40.7863 83.0908 42.5764 82.7245C44.4133 82.3486 46.304 82.158 48.196 82.158C51.3288 82.158 54.4038 82.6736 57.3357 83.6904L57.5831 83.7762L57.7114 83.548C60.0973 79.3054 63.5679 75.7425 67.748 73.2444C69.8619 71.981 72.133 71.0047 74.4982 70.3427C76.9383 69.6596 79.4728 69.3133 82.0313 69.3133C85.4728 69.3133 88.8321 69.9327 92.0161 71.1542C95.092 72.3342 97.9136 74.0389 100.403 76.2207C102.877 78.39 104.931 80.9496 106.507 83.8283C108.121 86.7777 109.176 89.9614 109.643 93.2909L109.678 93.5401L109.929 93.5598C112.735 93.7794 115.435 94.5184 117.954 95.756C120.402 96.9585 122.587 98.5851 124.45 100.59C128.278 104.711 130.386 110.08 130.386 115.707C130.386 118.707 129.799 121.616 128.64 124.355C128.084 125.671 127.395 126.941 126.592 128.128C125.797 129.305 124.885 130.411 123.879 131.417C122.874 132.422 121.767 133.335 120.591 134.13C119.403 134.932 118.134 135.621 116.817 136.178C114.079 137.336 111.169 137.924 108.17 137.924H48.196H44.4079ZM44.4079 138.237H48.196H108.17C120.613 138.237 130.699 128.15 130.699 115.707C130.699 103.865 121.562 94.1561 109.953 93.2474C108.033 79.5445 96.2636 69 82.0313 69C71.4728 69 62.27 74.8031 57.4383 83.3944C54.5428 82.3902 51.4333 81.8447 48.196 81.8447C32.6239 81.8447 19.9999 94.4687 19.9999 110.041C19.9999 114.571 21.068 118.851 22.9663 122.644C25.8915 131.692 34.3856 138.237 44.4079 138.237Z" fill="white" fill-opacity="0.5"/>
<path d="M110.196 213.237H170.17C175.988 213.233 181.578 210.978 185.772 206.945C189.965 202.911 192.435 197.412 192.665 191.599C192.896 185.786 190.868 180.109 187.008 175.756C183.147 171.404 177.752 168.713 171.953 168.249C171.126 162.409 168.489 156.975 164.413 152.713C160.337 148.45 155.027 145.572 149.23 144.484C143.433 143.397 137.441 144.154 132.097 146.649C126.753 149.145 122.326 153.253 119.438 158.396C114.142 156.562 108.42 156.348 103.001 157.78C97.5828 159.213 92.7138 162.226 89.0152 166.437C85.3167 170.648 82.9564 175.865 82.2352 181.423C81.5141 186.981 82.4649 192.628 84.9663 197.644C86.4342 202.175 89.2999 206.125 93.152 208.926C97.0042 211.728 101.645 213.237 106.408 213.237H110.196Z" fill="url(#paint1_linear_64_1391)"/>
<path d="M106.408 212.924C103.989 212.924 101.612 212.537 99.3404 211.776C97.1442 211.039 95.0823 209.965 93.212 208.582C91.3632 207.214 89.7426 205.577 88.3951 203.714C87.0308 201.828 85.9775 199.753 85.2644 197.547L85.2571 197.525L85.2465 197.503C84.2981 195.609 83.5679 193.604 83.076 191.546C82.5699 189.428 82.3132 187.239 82.3132 185.041C82.3132 183.149 82.5038 181.258 82.8797 179.421C83.246 177.631 83.7926 175.87 84.5043 174.188C85.2031 172.536 86.068 170.942 87.075 169.452C88.0725 167.975 89.2181 166.587 90.48 165.325C91.7418 164.063 93.1303 162.917 94.6068 161.92C96.0974 160.913 97.6908 160.048 99.3429 159.349C101.026 158.637 102.786 158.091 104.576 157.725C106.413 157.349 108.304 157.158 110.196 157.158C113.329 157.158 116.404 157.674 119.336 158.69L119.583 158.776L119.711 158.548C122.097 154.305 125.568 150.743 129.748 148.244C131.862 146.981 134.133 146.005 136.498 145.343C138.938 144.66 141.473 144.313 144.031 144.313C147.473 144.313 150.832 144.933 154.016 146.154C157.092 147.334 159.914 149.039 162.403 151.221C164.877 153.39 166.931 155.95 168.507 158.828C170.121 161.778 171.176 164.961 171.643 168.291L171.678 168.54L171.929 168.56C174.735 168.779 177.435 169.518 179.954 170.756C182.402 171.959 184.587 173.585 186.45 175.59C190.278 179.711 192.386 185.08 192.386 190.707C192.386 193.707 191.799 196.616 190.64 199.355C190.084 200.671 189.395 201.941 188.592 203.128C187.797 204.305 186.885 205.411 185.879 206.417C184.874 207.422 183.767 208.335 182.591 209.13C181.403 209.932 180.134 210.621 178.817 211.178C176.079 212.336 173.169 212.924 170.17 212.924H110.196H106.408ZM106.408 213.237H110.196H170.17C182.613 213.237 192.699 203.15 192.699 190.707C192.699 178.865 183.562 169.156 171.953 168.247C170.033 154.545 158.264 144 144.031 144C133.473 144 124.27 149.803 119.438 158.394C116.543 157.39 113.433 156.845 110.196 156.845C94.6239 156.845 81.9999 169.469 81.9999 185.041C81.9999 189.571 83.068 193.851 84.9663 197.644C87.8915 206.692 96.3856 213.237 106.408 213.237Z" fill="white" fill-opacity="0.5"/>
<path d="M251.775 125.319H168.342C160.248 125.313 152.471 122.176 146.638 116.566C140.805 110.955 137.368 103.305 137.048 95.2178C136.727 87.1306 139.547 79.2328 144.918 73.1779C150.289 67.123 157.794 63.3804 165.861 62.7337C167.012 54.6097 170.68 47.0509 176.351 41.1207C182.021 35.1904 189.408 31.1871 197.473 29.6741C205.537 28.1611 213.873 29.2144 221.307 32.6859C228.742 36.1574 234.901 41.8723 238.918 49.0267C246.285 46.4762 254.246 46.1782 261.784 48.1707C269.322 50.1632 276.095 54.3559 281.241 60.214C286.386 66.072 289.669 73.33 290.673 81.062C291.676 88.7939 290.353 96.6495 286.873 103.627C284.831 109.93 280.845 115.425 275.486 119.322C270.127 123.22 263.671 125.319 257.045 125.319H251.775Z" fill="url(#paint2_linear_64_1391)"/>
<path d="M257.045 124.883C260.409 124.883 263.717 124.346 266.877 123.287C269.932 122.262 272.8 120.767 275.402 118.843C277.974 116.941 280.229 114.662 282.103 112.071C284.001 109.447 285.466 106.561 286.459 103.492L286.469 103.461L286.483 103.431C287.803 100.795 288.819 98.007 289.503 95.1435C290.207 92.1971 290.564 89.1524 290.564 86.094C290.564 83.462 290.299 80.8317 289.776 78.2762C289.266 75.786 288.506 73.3365 287.516 70.9957C286.544 68.6974 285.341 66.4806 283.94 64.407C282.552 62.3529 280.958 60.4214 279.203 58.666C277.448 56.9106 275.516 55.3169 273.462 53.9292C271.388 52.5283 269.171 51.325 266.873 50.3529C264.532 49.3629 262.083 48.6025 259.593 48.0929C257.037 47.57 254.407 47.3048 251.775 47.3048C247.417 47.3048 243.139 48.022 239.06 49.4366L238.716 49.5559L238.538 49.2384C235.218 43.3364 230.39 38.3799 224.575 34.9046C221.634 33.1471 218.475 31.7889 215.185 30.8678C211.79 29.9176 208.264 29.4358 204.705 29.4358C199.917 29.4358 195.244 30.2975 190.814 31.9968C186.535 33.6384 182.61 36.0098 179.147 39.0451C175.705 42.0629 172.848 45.6237 170.656 49.6284C168.41 53.7315 166.942 58.1605 166.293 62.7923L166.244 63.1391L165.895 63.1664C161.991 63.472 158.235 64.4999 154.73 66.2216C151.326 67.8946 148.285 70.1573 145.694 72.9471C140.369 78.6793 137.436 86.148 137.436 93.9771C137.436 98.1496 138.253 102.197 139.864 106.007C140.639 107.838 141.598 109.604 142.714 111.257C143.82 112.893 145.089 114.432 146.488 115.831C147.887 117.23 149.426 118.5 151.062 119.605C152.715 120.721 154.481 121.68 156.312 122.455C160.122 124.066 164.17 124.883 168.342 124.883H251.775H257.045ZM257.045 125.319H251.775H168.342C151.032 125.319 137 111.287 137 93.9771C137 77.5021 149.711 63.996 165.861 62.7319C168.533 43.669 184.906 29 204.705 29C219.393 29 232.196 37.073 238.917 49.0248C242.945 47.6278 247.271 46.869 251.775 46.869C273.438 46.869 291 64.4308 291 86.094C291 92.3959 289.514 98.3502 286.873 103.626C282.804 116.214 270.987 125.319 257.045 125.319Z" fill="white" fill-opacity="0.5"/>
</g>
</g>
<defs>
<filter id="filter0_f_64_1391" x="16" y="4.37915" width="279" height="212.858" filterUnits="userSpaceOnUse" color-interpolation-filters="sRGB">
<feFlood flood-opacity="0" result="BackgroundImageFix"/>
<feBlend mode="normal" in="SourceGraphic" in2="BackgroundImageFix" result="shape"/>
<feGaussianBlur stdDeviation="2" result="effect1_foregroundBlur_64_1391"/>
</filter>
<filter id="filter1_f_64_1391" x="50" y="4.37915" width="202.51" height="203.621" filterUnits="userSpaceOnUse" color-interpolation-filters="sRGB">
<feFlood flood-opacity="0" result="BackgroundImageFix"/>
<feBlend mode="normal" in="SourceGraphic" in2="BackgroundImageFix" result="shape"/>
<feGaussianBlur stdDeviation="2" result="effect1_foregroundBlur_64_1391"/>
</filter>
<filter id="filter2_f_64_1391" x="126.096" y="0.947754" width="132.946" height="129.482" filterUnits="userSpaceOnUse" color-interpolation-filters="sRGB">
<feFlood flood-opacity="0" result="BackgroundImageFix"/>
<feBlend mode="normal" in="SourceGraphic" in2="BackgroundImageFix" result="shape"/>
<feGaussianBlur stdDeviation="10" result="effect1_foregroundBlur_64_1391"/>
</filter>
<filter id="filter3_d_64_1391" x="0" y="1" width="331" height="244.237" filterUnits="userSpaceOnUse" color-interpolation-filters="sRGB">
<feFlood flood-opacity="0" result="BackgroundImageFix"/>
<feColorMatrix in="SourceAlpha" type="matrix" values="0 0 0 0 0 0 0 0 0 0 0 0 0 0 0 0 0 0 127 0" result="hardAlpha"/>
<feOffset dx="10" dy="2"/>
<feGaussianBlur stdDeviation="15"/>
<feColorMatrix type="matrix" values="0 0 0 0 0.258824 0 0 0 0 0.627451 0 0 0 0 0.941176 0 0 0 0.596 0"/>
<feBlend mode="normal" in2="BackgroundImageFix" result="effect1_dropShadow_64_1391"/>
<feBlend mode="normal" in="SourceGraphic" in2="effect1_dropShadow_64_1391" result="shape"/>
</filter>
<linearGradient id="paint0_linear_64_1391" x1="75.3417" y1="69.0007" x2="43.1848" y2="146.748" gradientUnits="userSpaceOnUse">
<stop stop-color="white" stop-opacity="0.604"/>
<stop offset="1" stop-color="white" stop-opacity="0.2"/>
</linearGradient>
<linearGradient id="paint1_linear_64_1391" x1="137.342" y1="144.001" x2="105.185" y2="221.748" gradientUnits="userSpaceOnUse">
<stop stop-color="white" stop-opacity="0.604"/>
<stop offset="1" stop-color="white" stop-opacity="0.2"/>
</linearGradient>
<linearGradient id="paint2_linear_64_1391" x1="214.011" y1="29.0012" x2="258.746" y2="137.159" gradientUnits="userSpaceOnUse">
<stop stop-color="white" stop-opacity="0.604"/>
<stop offset="1" stop-color="white" stop-opacity="0.2"/>
</linearGradient>
</defs>
</svg>
