<svg width="328" height="238" viewBox="0 0 328 238" fill="none" xmlns="http://www.w3.org/2000/svg">
<g filter="url(#filter0_f_64_1412)">
<path d="M77.6249 11.0803C82.6225 11.079 87.6075 11.584 92.5034 12.5875C101.952 14.5336 110.924 18.3279 118.902 23.7522C129.955 31.2437 138.785 41.5741 144.466 53.6579C150.147 65.7417 152.467 79.1326 151.184 92.4232C149.901 105.714 145.062 118.413 137.174 129.187C129.287 139.961 118.643 148.412 106.361 153.65C101.896 155.547 97.254 156.996 92.5027 157.974C82.1998 160.063 71.5701 159.933 61.3216 157.592C51.073 155.251 41.4409 150.753 33.067 144.398C24.693 138.043 17.7694 129.976 12.7574 120.735C7.74533 111.494 4.75993 101.292 4.00002 90.8065C12.0788 92.6972 20.4709 92.8188 28.601 91.163C35.8967 89.6689 42.8267 86.7528 48.9957 82.5812C58.1658 76.3905 65.3438 67.6731 69.6598 57.4854C71.1181 54.0351 72.2312 50.4488 72.9828 46.7791C74.5849 38.9162 74.5256 30.8052 72.8089 22.9666C71.9453 19.047 70.6681 15.2301 68.9989 11.5801C71.8621 11.2469 74.7423 11.08 77.6249 11.0803V11.0803Z" fill="#713FFD"/>
<g filter="url(#filter1_f_64_1412)">
<path d="M127.582 34.018C111.01 19.0964 89.2998 16.1909 79.0914 27.5285C68.883 38.8662 74.0418 60.1535 90.614 75.0752C107.186 89.9969 128.896 92.9023 139.105 81.5647C149.313 70.2271 144.154 48.9397 127.582 34.018Z" fill="#A586FC"/>
</g>
<g filter="url(#filter2_d_64_1412)">
<path d="M223.834 205.2H87.3531C74.1133 205.19 61.3907 200.058 51.8487 190.88C42.3067 181.702 36.685 169.188 36.1606 155.959C35.6362 142.729 40.2498 129.81 49.0354 119.905C57.821 110.001 70.0976 103.878 83.295 102.82C85.177 89.531 91.1781 77.1661 100.454 67.4652C109.73 57.7643 121.814 51.2157 135.006 48.7406C148.197 46.2655 161.833 47.9886 173.995 53.6673C186.156 59.3461 196.231 68.6948 202.802 80.3981C214.855 76.226 227.877 75.7385 240.208 78.9979C252.538 82.2573 263.619 89.1158 272.035 98.6986C280.452 108.281 285.824 120.154 287.465 132.802C289.106 145.45 286.942 158.301 281.25 169.714C277.909 180.026 271.388 189.014 262.621 195.39C253.855 201.765 243.295 205.199 232.455 205.2H223.834Z" fill="url(#paint0_linear_64_1412)"/>
<path d="M232.455 204.487C237.959 204.487 243.37 203.608 248.539 201.875C253.537 200.199 258.229 197.753 262.485 194.605C266.692 191.494 270.38 187.767 273.447 183.528C276.551 179.236 278.948 174.515 280.571 169.495L280.588 169.443L280.612 169.395C282.77 165.083 284.432 160.522 285.551 155.838C286.703 151.018 287.287 146.037 287.287 141.034C287.287 136.729 286.853 132.426 285.998 128.246C285.164 124.172 283.92 120.165 282.301 116.336C280.711 112.576 278.742 108.95 276.451 105.558C274.181 102.198 271.574 99.0382 268.702 96.1666C265.831 93.2951 262.671 90.6881 259.311 88.418C255.919 86.1264 252.292 84.1581 248.533 82.5679C244.704 80.9483 240.697 79.7044 236.623 78.8708C232.443 78.0154 228.14 77.5817 223.835 77.5817C216.705 77.5817 209.708 78.7549 203.036 81.0689L202.473 81.2641L202.181 80.7448C196.751 71.0901 188.853 62.982 179.341 57.2971C174.53 54.4221 169.362 52.2003 163.979 50.6937C158.426 49.1393 152.659 48.3511 146.836 48.3511C139.005 48.3511 131.36 49.7606 124.114 52.5405C117.114 55.2259 110.693 59.1051 105.029 64.0702C99.3969 69.0069 94.7233 74.8316 91.1376 81.3827C87.4639 88.0946 85.0628 95.3397 84.001 102.917L83.9215 103.484L83.3506 103.528C76.9638 104.028 70.819 105.71 65.0868 108.526C59.5169 111.263 54.5433 114.964 50.304 119.528C41.5931 128.905 36.7957 141.122 36.7957 153.93C36.7957 160.755 38.1323 167.376 40.7685 173.608C42.0355 176.604 43.6038 179.493 45.4297 182.196C47.2384 184.873 49.3156 187.391 51.6036 189.679C53.8916 191.967 56.4092 194.044 59.0864 195.853C61.7892 197.679 64.6784 199.247 67.674 200.514C73.9065 203.15 80.5274 204.487 87.3528 204.487H223.835H232.455ZM232.455 205.2H223.835H87.3528C59.0373 205.2 36.0828 182.245 36.0828 153.93C36.0828 126.979 56.8757 104.886 83.2949 102.818C87.6649 71.6342 114.448 47.6382 146.836 47.6382C170.864 47.6382 191.807 60.8442 202.802 80.3953C209.391 78.1101 216.468 76.8687 223.835 76.8687C259.272 76.8687 288 105.597 288 141.034C288 151.343 285.569 161.083 281.249 169.714C274.593 190.306 255.263 205.2 232.455 205.2Z" fill="white" fill-opacity="0.5"/>
</g>
</g>
<defs>
<filter id="filter0_f_64_1412" x="0" y="7.08032" width="292" height="202.12" filterUnits="userSpaceOnUse" color-interpolation-filters="sRGB">
<feFlood flood-opacity="0" result="BackgroundImageFix"/>
<feBlend mode="normal" in="SourceGraphic" in2="BackgroundImageFix" result="shape"/>
<feGaussianBlur stdDeviation="2" result="effect1_foregroundBlur_64_1412"/>
</filter>
<filter id="filter1_f_64_1412" x="53.8502" y="0.612549" width="110.495" height="107.868" filterUnits="userSpaceOnUse" color-interpolation-filters="sRGB">
<feFlood flood-opacity="0" result="BackgroundImageFix"/>
<feBlend mode="normal" in="SourceGraphic" in2="BackgroundImageFix" result="shape"/>
<feGaussianBlur stdDeviation="10" result="effect1_foregroundBlur_64_1412"/>
</filter>
<filter id="filter2_d_64_1412" x="16.0828" y="19.6382" width="311.917" height="217.562" filterUnits="userSpaceOnUse" color-interpolation-filters="sRGB">
<feFlood flood-opacity="0" result="BackgroundImageFix"/>
<feColorMatrix in="SourceAlpha" type="matrix" values="0 0 0 0 0 0 0 0 0 0 0 0 0 0 0 0 0 0 127 0" result="hardAlpha"/>
<feOffset dx="10" dy="2"/>
<feGaussianBlur stdDeviation="15"/>
<feColorMatrix type="matrix" values="0 0 0 0 0.258824 0 0 0 0 0.627451 0 0 0 0 0.941176 0 0 0 0.596 0"/>
<feBlend mode="normal" in2="BackgroundImageFix" result="effect1_dropShadow_64_1412"/>
<feBlend mode="normal" in="SourceGraphic" in2="effect1_dropShadow_64_1412" result="shape"/>
</filter>
<linearGradient id="paint0_linear_64_1412" x1="162.059" y1="47.6399" x2="235.238" y2="224.568" gradientUnits="userSpaceOnUse">
<stop stop-color="white" stop-opacity="0.604"/>
<stop offset="1" stop-color="white" stop-opacity="0.2"/>
</linearGradient>
</defs>
</svg>
