<svg width="331" height="254" viewBox="0 0 331 254" fill="none" xmlns="http://www.w3.org/2000/svg">
<path d="M149.149 214.763C203.549 214.763 247.649 170.439 247.649 115.763C247.649 61.0868 203.549 16.7629 149.149 16.7629C94.7489 16.7629 50.6489 61.0868 50.6489 115.763C50.6489 170.439 94.7489 214.763 149.149 214.763Z" fill="#FA9E42"/>
<g filter="url(#filter0_f_62_225)">
<path d="M142.031 101.684C174.768 84.2964 193.078 54.7096 182.929 35.6004C172.779 16.4912 138.013 15.0957 105.276 32.4835C72.5393 49.8714 54.229 79.4581 64.3787 98.5674C74.5285 117.677 109.295 119.072 142.031 101.684Z" fill="#F8E36F"/>
</g>
<g filter="url(#filter1_d_62_225)">
<path d="M48.1962 146.237H108.17C113.988 146.233 119.578 143.978 123.772 139.945C127.965 135.911 130.435 130.413 130.665 124.599C130.896 118.786 128.868 113.109 125.008 108.756C121.147 104.404 115.752 101.714 109.953 101.249C109.126 95.409 106.489 89.9755 102.413 85.7126C98.3369 81.4498 93.0269 78.5722 87.23 77.4845C81.4332 76.3969 75.4412 77.1541 70.0972 79.6495C64.7531 82.1449 60.3258 86.253 57.4382 91.3957C52.142 89.5624 46.4197 89.3482 41.0012 90.7804C35.5828 92.2127 30.7138 95.2265 27.0152 99.4375C23.3167 103.648 20.9564 108.866 20.2352 114.424C19.5141 119.982 20.4649 125.628 22.9663 130.644C24.4342 135.175 27.2999 139.125 31.152 141.926C35.0042 144.728 39.6448 146.237 44.4079 146.237H48.1962Z" fill="url(#paint0_linear_62_225)"/>
<path d="M44.4079 145.924C41.9895 145.924 39.6116 145.537 37.3404 144.776C35.1442 144.039 33.0823 142.965 31.212 141.582C29.3632 140.214 27.7426 138.577 26.3951 136.714C25.0308 134.828 23.9775 132.753 23.2644 130.547L23.2571 130.525L23.2465 130.503C22.2981 128.609 21.5679 126.604 21.076 124.546C20.5699 122.428 20.3132 120.239 20.3132 118.041C20.3132 116.149 20.5038 114.258 20.8797 112.421C21.246 110.631 21.7926 108.87 22.5043 107.188C23.2031 105.536 24.068 103.942 25.075 102.452C26.0725 100.975 27.2181 99.5866 28.48 98.3248C29.7418 97.0629 31.1303 95.9173 32.6068 94.9198C34.0974 93.9128 35.6908 93.0479 37.3429 92.3491C39.0255 91.6374 40.7863 91.0908 42.5764 90.7245C44.4133 90.3486 46.304 90.158 48.196 90.158C51.3288 90.158 54.4038 90.6736 57.3357 91.6904L57.5831 91.7762L57.7114 91.548C60.0973 87.3054 63.5679 83.7425 67.748 81.2444C69.8619 79.981 72.133 79.0047 74.4982 78.3427C76.9383 77.6596 79.4728 77.3133 82.0313 77.3133C85.4728 77.3133 88.8321 77.9327 92.0161 79.1542C95.092 80.3342 97.9136 82.0389 100.403 84.2207C102.877 86.39 104.931 88.9496 106.507 91.8283C108.121 94.7777 109.176 97.9614 109.643 101.291L109.678 101.54L109.929 101.56C112.735 101.779 115.435 102.518 117.954 103.756C120.402 104.959 122.587 106.585 124.45 108.59C128.278 112.711 130.386 118.08 130.386 123.707C130.386 126.707 129.799 129.616 128.64 132.355C128.084 133.671 127.395 134.941 126.592 136.128C125.797 137.305 124.885 138.411 123.879 139.417C122.874 140.422 121.767 141.335 120.591 142.13C119.403 142.932 118.134 143.621 116.817 144.178C114.079 145.336 111.169 145.924 108.17 145.924H48.196H44.4079ZM44.4079 146.237H48.196H108.17C120.613 146.237 130.699 136.15 130.699 123.707C130.699 111.865 121.562 102.156 109.953 101.247C108.033 87.5445 96.2636 77 82.0313 77C71.4728 77 62.27 82.8031 57.4383 91.3944C54.5428 90.3902 51.4333 89.8447 48.196 89.8447C32.6239 89.8447 19.9999 102.469 19.9999 118.041C19.9999 122.571 21.068 126.851 22.9663 130.644C25.8915 139.692 34.3856 146.237 44.4079 146.237Z" fill="white" fill-opacity="0.5"/>
<path d="M110.196 221.237H170.17C175.988 221.233 181.578 218.978 185.772 214.945C189.965 210.911 192.435 205.413 192.665 199.599C192.896 193.786 190.868 188.109 187.008 183.756C183.147 179.404 177.752 176.714 171.953 176.249C171.126 170.409 168.489 164.975 164.413 160.713C160.337 156.45 155.027 153.572 149.23 152.485C143.433 151.397 137.441 152.154 132.097 154.649C126.753 157.145 122.326 161.253 119.438 166.396C114.142 164.562 108.42 164.348 103.001 165.78C97.5828 167.213 92.7138 170.227 89.0152 174.437C85.3167 178.648 82.9564 183.866 82.2352 189.424C81.5141 194.982 82.4649 200.628 84.9663 205.644C86.4342 210.175 89.2999 214.125 93.152 216.926C97.0042 219.728 101.645 221.237 106.408 221.237H110.196Z" fill="url(#paint1_linear_62_225)"/>
<path d="M106.408 220.924C103.989 220.924 101.612 220.537 99.3404 219.776C97.1442 219.039 95.0823 217.965 93.212 216.582C91.3632 215.214 89.7426 213.577 88.3951 211.714C87.0308 209.828 85.9775 207.753 85.2644 205.547L85.2571 205.525L85.2465 205.503C84.2981 203.609 83.5679 201.604 83.076 199.546C82.5699 197.428 82.3132 195.239 82.3132 193.041C82.3132 191.149 82.5038 189.258 82.8797 187.421C83.246 185.631 83.7926 183.87 84.5043 182.188C85.2031 180.536 86.068 178.942 87.075 177.452C88.0725 175.975 89.2181 174.587 90.48 173.325C91.7418 172.063 93.1303 170.917 94.6068 169.92C96.0974 168.913 97.6908 168.048 99.3429 167.349C101.026 166.637 102.786 166.091 104.576 165.725C106.413 165.349 108.304 165.158 110.196 165.158C113.329 165.158 116.404 165.674 119.336 166.69L119.583 166.776L119.711 166.548C122.097 162.305 125.568 158.743 129.748 156.244C131.862 154.981 134.133 154.005 136.498 153.343C138.938 152.66 141.473 152.313 144.031 152.313C147.473 152.313 150.832 152.933 154.016 154.154C157.092 155.334 159.914 157.039 162.403 159.221C164.877 161.39 166.931 163.95 168.507 166.828C170.121 169.778 171.176 172.961 171.643 176.291L171.678 176.54L171.929 176.56C174.735 176.779 177.435 177.518 179.954 178.756C182.402 179.959 184.587 181.585 186.45 183.59C190.278 187.711 192.386 193.08 192.386 198.707C192.386 201.707 191.799 204.616 190.64 207.355C190.084 208.671 189.395 209.941 188.592 211.128C187.797 212.305 186.885 213.411 185.879 214.417C184.874 215.422 183.767 216.335 182.591 217.13C181.403 217.932 180.134 218.621 178.817 219.178C176.079 220.336 173.169 220.924 170.17 220.924H110.196H106.408ZM106.408 221.237H110.196H170.17C182.613 221.237 192.699 211.15 192.699 198.707C192.699 186.865 183.562 177.156 171.953 176.247C170.033 162.545 158.264 152 144.031 152C133.473 152 124.27 157.803 119.438 166.394C116.543 165.39 113.433 164.845 110.196 164.845C94.6239 164.845 81.9999 177.469 81.9999 193.041C81.9999 197.571 83.068 201.851 84.9663 205.644C87.8915 214.692 96.3856 221.237 106.408 221.237Z" fill="white" fill-opacity="0.5"/>
<path d="M251.775 133.319H168.342C160.248 133.313 152.471 130.176 146.638 124.566C140.805 118.955 137.368 111.305 137.048 103.218C136.727 95.1306 139.547 87.2328 144.918 81.1779C150.289 75.123 157.794 71.3804 165.861 70.7337C167.012 62.6097 170.68 55.0509 176.351 49.1207C182.021 43.1904 189.408 39.1871 197.473 37.6741C205.537 36.1611 213.873 37.2144 221.307 40.6859C228.742 44.1574 234.901 49.8723 238.918 57.0267C246.285 54.4762 254.246 54.1782 261.784 56.1707C269.322 58.1632 276.095 62.3559 281.241 68.214C286.386 74.072 289.669 81.33 290.673 89.062C291.676 96.7939 290.353 104.65 286.873 111.627C284.831 117.93 280.845 123.425 275.486 127.322C270.127 131.22 263.671 133.319 257.045 133.319H251.775Z" fill="url(#paint2_linear_62_225)"/>
<path d="M257.045 132.883C260.409 132.883 263.717 132.346 266.877 131.287C269.932 130.262 272.8 128.767 275.402 126.843C277.974 124.941 280.229 122.662 282.103 120.071C284.001 117.447 285.466 114.561 286.459 111.492L286.469 111.461L286.483 111.431C287.803 108.795 288.819 106.007 289.503 103.144C290.207 100.197 290.564 97.1524 290.564 94.094C290.564 91.462 290.299 88.8317 289.776 86.2762C289.266 83.786 288.506 81.3365 287.516 78.9957C286.544 76.6974 285.341 74.4806 283.94 72.407C282.552 70.3529 280.958 68.4214 279.203 66.666C277.448 64.9106 275.516 63.3169 273.462 61.9292C271.388 60.5283 269.171 59.325 266.873 58.3529C264.532 57.3629 262.083 56.6025 259.593 56.0929C257.037 55.57 254.407 55.3048 251.775 55.3048C247.417 55.3048 243.139 56.022 239.06 57.4366L238.716 57.5559L238.538 57.2384C235.218 51.3364 230.39 46.3799 224.575 42.9046C221.634 41.1471 218.475 39.7889 215.185 38.8678C211.79 37.9176 208.264 37.4358 204.705 37.4358C199.917 37.4358 195.244 38.2975 190.814 39.9968C186.535 41.6384 182.61 44.0098 179.147 47.0451C175.705 50.0629 172.848 53.6237 170.656 57.6284C168.41 61.7315 166.942 66.1605 166.293 70.7923L166.244 71.1391L165.895 71.1664C161.991 71.472 158.235 72.4999 154.73 74.2216C151.326 75.8946 148.285 78.1573 145.694 80.9471C140.369 86.6793 137.436 94.148 137.436 101.977C137.436 106.15 138.253 110.197 139.864 114.007C140.639 115.838 141.598 117.604 142.714 119.257C143.82 120.893 145.089 122.432 146.488 123.831C147.887 125.23 149.426 126.5 151.062 127.605C152.715 128.721 154.481 129.68 156.312 130.455C160.122 132.066 164.17 132.883 168.342 132.883H251.775H257.045ZM257.045 133.319H251.775H168.342C151.032 133.319 137 119.287 137 101.977C137 85.5021 149.711 71.996 165.861 70.7319C168.533 51.669 184.906 37 204.705 37C219.393 37 232.196 45.073 238.917 57.0248C242.945 55.6278 247.271 54.869 251.775 54.869C273.438 54.869 291 72.4308 291 94.094C291 100.396 289.514 106.35 286.873 111.626C282.804 124.214 270.987 133.319 257.045 133.319Z" fill="white" fill-opacity="0.5"/>
</g>
<defs>
<filter id="filter0_f_62_225" x="41.5786" y="0.303345" width="164.15" height="133.561" filterUnits="userSpaceOnUse" color-interpolation-filters="sRGB">
<feFlood flood-opacity="0" result="BackgroundImageFix"/>
<feBlend mode="normal" in="SourceGraphic" in2="BackgroundImageFix" result="shape"/>
<feGaussianBlur stdDeviation="10" result="effect1_foregroundBlur_62_225"/>
</filter>
<filter id="filter1_d_62_225" x="-0.00012207" y="9" width="331" height="244.237" filterUnits="userSpaceOnUse" color-interpolation-filters="sRGB">
<feFlood flood-opacity="0" result="BackgroundImageFix"/>
<feColorMatrix in="SourceAlpha" type="matrix" values="0 0 0 0 0 0 0 0 0 0 0 0 0 0 0 0 0 0 127 0" result="hardAlpha"/>
<feOffset dx="10" dy="2"/>
<feGaussianBlur stdDeviation="15"/>
<feColorMatrix type="matrix" values="0 0 0 0 0.258824 0 0 0 0 0.627451 0 0 0 0 0.941176 0 0 0 0.596 0"/>
<feBlend mode="normal" in2="BackgroundImageFix" result="effect1_dropShadow_62_225"/>
<feBlend mode="normal" in="SourceGraphic" in2="effect1_dropShadow_62_225" result="shape"/>
</filter>
<linearGradient id="paint0_linear_62_225" x1="75.3419" y1="77.0009" x2="43.1849" y2="154.748" gradientUnits="userSpaceOnUse">
<stop stop-color="white" stop-opacity="0.604"/>
<stop offset="1" stop-color="white" stop-opacity="0.2"/>
</linearGradient>
<linearGradient id="paint1_linear_62_225" x1="137.342" y1="152.001" x2="105.185" y2="229.748" gradientUnits="userSpaceOnUse">
<stop stop-color="white" stop-opacity="0.604"/>
<stop offset="1" stop-color="white" stop-opacity="0.2"/>
</linearGradient>
<linearGradient id="paint2_linear_62_225" x1="214.011" y1="37.0012" x2="258.746" y2="145.159" gradientUnits="userSpaceOnUse">
<stop stop-color="white" stop-opacity="0.604"/>
<stop offset="1" stop-color="white" stop-opacity="0.2"/>
</linearGradient>
</defs>
</svg>
