<svg width="321" height="250" viewBox="0 0 321 250" fill="none" xmlns="http://www.w3.org/2000/svg">
<path d="M88.3672 162.273C88.8179 162.286 93.3927 180.309 93.3927 187.313C93.3927 194.316 91.1425 199.995 88.3672 199.995C85.5919 199.995 83.3416 194.317 83.3416 187.313C83.3416 180.31 87.9136 162.261 88.3672 162.273Z" fill="#42A0F0"/>
<path d="M87.6009 183.29C88.3349 183.545 88.5581 185.132 88.0996 186.834C87.641 188.537 86.6736 189.71 85.9394 189.455C85.2052 189.201 84.9815 187.614 85.4407 185.912C85.8999 184.209 86.866 183.036 87.6009 183.29Z" fill="white"/>
<path d="M131.18 162.273C131.63 162.286 136.205 180.309 136.205 187.313C136.205 194.316 133.955 199.995 131.18 199.995C128.404 199.995 126.154 194.317 126.154 187.313C126.154 180.31 130.726 162.261 131.18 162.273Z" fill="#42A0F0"/>
<path d="M130.413 183.29C131.147 183.545 131.37 185.132 130.912 186.834C130.453 188.537 129.486 189.71 128.752 189.455C128.018 189.201 127.794 187.614 128.253 185.912C128.712 184.209 129.678 183.036 130.413 183.29Z" fill="white"/>
<path d="M173.992 162.273C174.443 162.286 179.017 180.309 179.017 187.313C179.017 194.316 176.767 199.995 173.992 199.995C171.217 199.995 168.966 194.317 168.966 187.313C168.966 180.31 173.538 162.261 173.992 162.273Z" fill="#42A0F0"/>
<path d="M173.226 183.29C173.96 183.545 174.183 185.132 173.724 186.834C173.266 188.537 172.298 189.71 171.564 189.455C170.83 189.201 170.606 187.614 171.065 185.912C171.525 184.209 172.491 183.036 173.226 183.29Z" fill="white"/>
<path d="M216.804 160.13C217.255 160.143 221.83 178.166 221.83 185.17C221.83 192.173 219.58 197.852 216.804 197.852C214.029 197.852 211.779 192.174 211.779 185.17C211.779 178.167 216.351 160.118 216.804 160.13Z" fill="#42A0F0"/>
<path d="M216.038 181.147C216.772 181.402 216.995 182.989 216.537 184.691C216.078 186.394 215.111 187.567 214.376 187.312C213.642 187.058 213.418 185.471 213.878 183.769C214.337 182.066 215.303 180.893 216.038 181.147Z" fill="white"/>
<path d="M151.326 210.135C151.777 210.148 156.351 228.171 156.351 235.175C156.351 242.178 154.101 247.857 151.326 247.857C148.551 247.857 146.3 242.179 146.3 235.176C146.3 228.172 150.872 210.123 151.326 210.135Z" fill="#42A0F0"/>
<path d="M150.56 231.153C151.294 231.408 151.517 232.994 151.058 234.696C150.6 236.399 149.632 237.572 148.898 237.318C148.164 237.063 147.94 235.476 148.399 233.774C148.859 232.071 149.825 230.898 150.56 231.153Z" fill="white"/>
<path d="M194.138 210.135C194.589 210.148 199.164 228.171 199.164 235.175C199.164 242.178 196.914 247.857 194.138 247.857C191.363 247.857 189.113 242.179 189.113 235.176C189.113 228.172 193.685 210.123 194.138 210.135Z" fill="#42A0F0"/>
<path d="M193.372 231.153C194.106 231.408 194.329 232.994 193.871 234.696C193.412 236.399 192.445 237.572 191.71 237.318C190.976 237.063 190.753 235.476 191.212 233.774C191.671 232.071 192.637 230.898 193.372 231.153Z" fill="white"/>
<path d="M239.469 210.135C239.92 210.148 244.495 228.171 244.495 235.175C244.495 242.178 242.245 247.857 239.469 247.857C236.694 247.857 234.444 242.179 234.444 235.176C234.444 228.172 239.016 210.123 239.469 210.135Z" fill="#42A0F0"/>
<path d="M238.703 231.153C239.437 231.408 239.66 232.994 239.202 234.696C238.743 236.399 237.776 237.572 237.042 237.318C236.307 237.063 236.084 235.476 236.543 233.774C237.002 232.071 237.968 230.898 238.703 231.153Z" fill="white"/>
<path d="M108.514 212.278C108.965 212.291 113.54 230.314 113.54 237.318C113.54 244.321 111.29 250 108.514 250C105.739 250 103.489 244.322 103.489 237.319C103.489 230.315 108.061 212.266 108.514 212.278Z" fill="#42A0F0"/>
<path d="M107.748 233.296C108.482 233.551 108.705 235.137 108.247 236.839C107.788 238.542 106.821 239.715 106.086 239.461C105.352 239.206 105.129 237.619 105.588 235.917C106.047 234.214 107.013 233.041 107.748 233.296Z" fill="white"/>
<path d="M68.22 210.135C68.6708 210.148 73.2456 228.171 73.2456 235.175C73.2456 242.178 70.9953 247.857 68.22 247.857C65.4448 247.857 63.1945 242.179 63.1945 235.176C63.1945 228.172 67.7664 210.123 68.22 210.135Z" fill="#42A0F0"/>
<path d="M67.4537 231.153C68.1877 231.408 68.411 232.994 67.9524 234.696C67.4938 236.399 66.5265 237.572 65.7922 237.318C65.058 237.063 64.8343 235.476 65.2936 233.774C65.7528 232.071 66.7188 230.898 67.4537 231.153Z" fill="white"/>
<path d="M73.7706 11.0885C78.7782 11.0872 83.773 11.5932 88.6786 12.5986C98.1464 14.5486 107.135 18.3504 115.129 23.7855C126.204 31.2918 135.052 41.6427 140.744 53.7504C146.436 65.8581 148.761 79.2755 147.476 92.5925C146.19 105.909 141.341 118.634 133.438 129.429C125.535 140.225 114.87 148.692 102.564 153.941C98.0901 155.842 93.4386 157.293 88.6779 158.273C78.3547 160.367 67.7039 160.236 57.435 157.89C47.1662 155.545 37.5151 151.038 29.1245 144.67C20.734 138.302 13.7967 130.219 8.77469 120.96C3.75273 111.701 0.761406 101.478 -3.38059e-06 90.9726C8.09478 92.867 16.5035 92.9889 24.6497 91.3298C31.9598 89.8327 38.9035 86.9109 45.0847 82.731C54.2731 76.528 61.4653 67.7934 65.7898 57.5855C67.251 54.1283 68.3663 50.535 69.1194 46.858C70.7246 38.9795 70.6653 30.8525 68.9451 22.9983C68.0798 19.0709 66.8001 15.2465 65.1276 11.5893C67.9965 11.2554 70.8823 11.0882 73.7706 11.0885V11.0885Z" fill="#713FFD"/>
<g filter="url(#filter0_f_64_1421)">
<path d="M123.827 34.0715C107.222 19.1203 85.4688 16.2091 75.2402 27.5691C65.0115 38.9292 70.1806 60.2587 86.7856 75.2099C103.391 90.1611 125.144 93.0723 135.372 81.7123C145.601 70.3522 140.432 49.0227 123.827 34.0715Z" fill="#A586FC"/>
</g>
<g filter="url(#filter1_d_64_1421)">
<path d="M215.983 204.88H79.2319C65.9659 204.869 53.2181 199.728 43.6572 190.531C34.0963 181.335 28.4635 168.797 27.9381 155.541C27.4127 142.285 32.0353 129.34 40.8383 119.416C49.6414 109.492 61.9422 103.357 75.1658 102.297C77.0515 88.9816 83.0645 76.5922 92.3588 66.8721C101.653 57.152 113.761 50.5904 126.979 48.1105C140.197 45.6305 153.859 47.3569 166.045 53.0469C178.231 58.7369 188.326 68.1041 194.91 79.8307C206.986 75.6503 220.034 75.1618 232.388 78.4274C244.743 81.693 255.846 88.5648 264.279 98.1661C272.712 107.767 278.095 119.663 279.739 132.336C281.384 145.009 279.217 157.885 273.514 169.321C270.167 179.654 263.633 188.661 254.849 195.049C246.065 201.438 235.483 204.879 224.622 204.88H215.983Z" fill="url(#paint0_linear_64_1421)"/>
<path d="M224.621 204.165C230.136 204.165 235.559 203.284 240.738 201.548C245.746 199.868 250.448 197.418 254.713 194.264C258.928 191.146 262.624 187.411 265.696 183.163C268.807 178.862 271.208 174.131 272.834 169.101L272.851 169.049L272.875 169.001C275.037 164.681 276.701 160.111 277.823 155.418C278.977 150.588 279.562 145.598 279.562 140.587C279.562 136.273 279.127 131.961 278.27 127.773C277.435 123.691 276.189 119.676 274.566 115.84C272.973 112.073 271 108.439 268.704 105.04C266.43 101.674 263.818 98.5076 260.94 95.6304C258.063 92.7531 254.897 90.141 251.53 87.8665C248.132 85.5702 244.498 83.5981 240.731 82.0047C236.895 80.3819 232.88 79.1356 228.798 78.3004C224.609 77.4432 220.298 77.0087 215.984 77.0087C208.84 77.0087 201.829 78.1843 195.144 80.5028L194.58 80.6984L194.287 80.1781C188.846 70.5043 180.933 62.3801 171.402 56.6839C166.581 53.8032 161.403 51.5771 156.01 50.0674C150.446 48.5099 144.667 47.7202 138.833 47.7202C130.986 47.7202 123.326 49.1325 116.066 51.9178C109.052 54.6086 102.618 58.4954 96.9425 63.4704C91.2996 68.4168 86.6168 74.2531 83.024 80.8171C79.343 87.5424 76.9371 94.8018 75.8732 102.394L75.7936 102.962L75.2215 103.007C68.8221 103.508 62.6651 105.193 56.9216 108.015C51.3407 110.757 46.3572 114.465 42.1095 119.038C33.3813 128.434 28.5745 140.675 28.5745 153.508C28.5745 160.347 29.9137 166.981 32.5551 173.225C33.8246 176.227 35.396 179.122 37.2255 181.83C39.0378 184.513 41.1192 187.035 43.4117 189.328C45.7042 191.62 48.2268 193.702 50.9093 195.514C53.6174 197.343 56.5124 198.915 59.5139 200.184C65.7587 202.826 72.3927 204.165 79.2317 204.165H215.984H224.621ZM224.621 204.879H215.984H79.2317C50.8601 204.879 27.8601 181.879 27.8601 153.508C27.8601 126.504 48.6942 104.367 75.1658 102.295C79.5444 71.0494 106.38 47.0059 138.833 47.0059C162.908 47.0059 183.893 60.2381 194.91 79.8279C201.512 77.5381 208.602 76.2943 215.984 76.2943C251.492 76.2943 280.276 105.079 280.276 140.587C280.276 150.914 277.841 160.674 273.514 169.321C266.845 189.955 247.477 204.879 224.621 204.879Z" fill="white" fill-opacity="0.5"/>
</g>
<defs>
<filter id="filter0_f_64_1421" x="49.9886" y="0.639404" width="110.635" height="108.003" filterUnits="userSpaceOnUse" color-interpolation-filters="sRGB">
<feFlood flood-opacity="0" result="BackgroundImageFix"/>
<feBlend mode="normal" in="SourceGraphic" in2="BackgroundImageFix" result="shape"/>
<feGaussianBlur stdDeviation="10" result="effect1_foregroundBlur_64_1421"/>
</filter>
<filter id="filter1_d_64_1421" x="7.86011" y="19.0059" width="312.416" height="217.874" filterUnits="userSpaceOnUse" color-interpolation-filters="sRGB">
<feFlood flood-opacity="0" result="BackgroundImageFix"/>
<feColorMatrix in="SourceAlpha" type="matrix" values="0 0 0 0 0 0 0 0 0 0 0 0 0 0 0 0 0 0 127 0" result="hardAlpha"/>
<feOffset dx="10" dy="2"/>
<feGaussianBlur stdDeviation="15"/>
<feColorMatrix type="matrix" values="0 0 0 0 0.258824 0 0 0 0 0.627451 0 0 0 0 0.941176 0 0 0 0.596 0"/>
<feBlend mode="normal" in2="BackgroundImageFix" result="effect1_dropShadow_64_1421"/>
<feBlend mode="normal" in="SourceGraphic" in2="effect1_dropShadow_64_1421" result="shape"/>
</filter>
<linearGradient id="paint0_linear_64_1421" x1="154.086" y1="47.0076" x2="227.41" y2="224.286" gradientUnits="userSpaceOnUse">
<stop stop-color="white" stop-opacity="0.604"/>
<stop offset="1" stop-color="white" stop-opacity="0.2"/>
</linearGradient>
</defs>
</svg>
