<svg width="291" height="249" viewBox="0 0 291 249" fill="none" xmlns="http://www.w3.org/2000/svg">
<g filter="url(#filter0_f_64_1523)">
<path d="M130.076 8.37904C136.664 8.37767 143.235 9.04345 149.688 10.3662C162.146 12.9324 173.974 17.9351 184.493 25.0869C199.066 34.9641 210.709 48.5845 218.199 64.5165C225.689 80.4486 228.748 98.104 227.057 115.627C225.365 133.151 218.984 149.895 208.585 164.1C198.186 178.305 184.153 189.446 167.959 196.354C162.073 198.855 155.953 200.764 149.688 202.054C136.104 204.809 122.089 204.637 108.577 201.55C95.0645 198.464 82.3649 192.534 71.3241 184.154C60.2833 175.775 51.1547 165.139 44.5464 152.956C37.9382 140.772 34.0019 127.32 32.9999 113.496C43.6516 115.988 54.7161 116.147 65.435 113.963C75.0543 111.993 84.1914 108.148 92.3251 102.648C104.416 94.4859 113.88 82.9932 119.571 69.5617C121.494 65.0125 122.962 60.2841 123.953 55.4456C126.065 45.0794 125.987 34.3862 123.724 24.052C122.585 18.8839 120.9 13.8513 118.699 9.03872C122.475 8.59902 126.274 8.37876 130.076 8.37904Z" fill="#713FFD"/>
<g filter="url(#filter1_f_64_1523)">
<path d="M195.939 38.6225C174.089 18.9486 145.465 15.1177 132.006 30.0657C118.546 45.0138 125.348 73.0805 147.199 92.7543C169.049 112.428 197.672 116.259 211.132 101.311C224.591 86.363 217.789 58.2963 195.939 38.6225Z" fill="#A586FC"/>
</g>
<g filter="url(#filter2_d_64_1523)">
<path d="M48.196 165.237H108.17C113.988 165.233 119.578 162.978 123.771 158.945C127.964 154.911 130.435 149.412 130.665 143.599C130.896 137.786 128.868 132.109 125.008 127.756C121.147 123.404 115.752 120.713 109.953 120.249C109.126 114.409 106.489 108.975 102.413 104.713C98.3368 100.45 93.0268 97.572 87.2299 96.4844C81.4331 95.3968 75.4411 96.154 70.097 98.6494C64.7529 101.145 60.3257 105.253 57.4381 110.396C52.1419 108.562 46.4196 108.348 41.0011 109.78C35.5827 111.213 30.7136 114.226 27.0151 118.437C23.3166 122.648 20.9563 127.865 20.2351 133.423C19.514 138.981 20.4648 144.628 22.9662 149.644C24.4341 154.175 27.2998 158.125 31.1519 160.926C35.0041 163.728 39.6446 165.237 44.4077 165.237H48.196Z" fill="url(#paint0_linear_64_1523)"/>
<path d="M44.4079 164.924C41.9895 164.924 39.6116 164.537 37.3404 163.776C35.1442 163.039 33.0823 161.965 31.212 160.582C29.3632 159.214 27.7426 157.577 26.3951 155.714C25.0308 153.828 23.9775 151.753 23.2644 149.547L23.2571 149.525L23.2465 149.503C22.2981 147.609 21.5679 145.604 21.076 143.546C20.5699 141.428 20.3132 139.239 20.3132 137.041C20.3132 135.149 20.5038 133.258 20.8797 131.421C21.246 129.631 21.7926 127.87 22.5043 126.188C23.2031 124.536 24.068 122.942 25.075 121.452C26.0725 119.975 27.2181 118.587 28.48 117.325C29.7418 116.063 31.1303 114.917 32.6068 113.92C34.0974 112.913 35.6908 112.048 37.3429 111.349C39.0255 110.637 40.7863 110.091 42.5764 109.725C44.4133 109.349 46.304 109.158 48.196 109.158C51.3288 109.158 54.4038 109.674 57.3357 110.69L57.5831 110.776L57.7114 110.548C60.0973 106.305 63.5679 102.743 67.748 100.244C69.8619 98.981 72.133 98.0047 74.4982 97.3427C76.9383 96.6596 79.4728 96.3133 82.0313 96.3133C85.4728 96.3133 88.8321 96.9327 92.0161 98.1542C95.092 99.3342 97.9136 101.039 100.403 103.221C102.877 105.39 104.931 107.95 106.507 110.828C108.121 113.778 109.176 116.961 109.643 120.291L109.678 120.54L109.929 120.56C112.735 120.779 115.435 121.518 117.954 122.756C120.402 123.959 122.587 125.585 124.45 127.59C128.278 131.711 130.386 137.08 130.386 142.707C130.386 145.707 129.799 148.616 128.64 151.355C128.084 152.671 127.395 153.941 126.592 155.128C125.797 156.305 124.885 157.411 123.879 158.417C122.874 159.422 121.767 160.335 120.591 161.13C119.403 161.932 118.134 162.621 116.817 163.178C114.079 164.336 111.169 164.924 108.17 164.924H48.196H44.4079ZM44.4079 165.237H48.196H108.17C120.613 165.237 130.699 155.15 130.699 142.707C130.699 130.865 121.562 121.156 109.953 120.247C108.033 106.545 96.2636 96 82.0313 96C71.4728 96 62.27 101.803 57.4383 110.394C54.5428 109.39 51.4333 108.845 48.196 108.845C32.6239 108.845 19.9999 121.469 19.9999 137.041C19.9999 141.571 21.068 145.851 22.9663 149.644C25.8915 158.692 34.3856 165.237 44.4079 165.237Z" fill="white" fill-opacity="0.5"/>
<path d="M168.196 163.237H228.17C233.988 163.233 239.578 160.978 243.772 156.945C247.965 152.911 250.435 147.412 250.665 141.599C250.896 135.786 248.868 130.109 245.008 125.756C241.147 121.404 235.752 118.713 229.953 118.249C229.126 112.409 226.489 106.975 222.413 102.713C218.337 98.4497 213.027 95.572 207.23 94.4844C201.433 93.3968 195.441 94.154 190.097 96.6494C184.753 99.1448 180.326 103.253 177.438 108.396C172.142 106.562 166.42 106.348 161.001 107.78C155.583 109.213 150.714 112.226 147.015 116.437C143.317 120.648 140.956 125.865 140.235 131.423C139.514 136.981 140.465 142.628 142.966 147.644C144.434 152.175 147.3 156.125 151.152 158.926C155.004 161.728 159.645 163.237 164.408 163.237H168.196Z" fill="url(#paint1_linear_64_1523)"/>
<path d="M164.408 162.924C161.989 162.924 159.612 162.537 157.34 161.776C155.144 161.039 153.082 159.965 151.212 158.582C149.363 157.214 147.743 155.577 146.395 153.714C145.031 151.828 143.978 149.753 143.264 147.547L143.257 147.525L143.246 147.503C142.298 145.609 141.568 143.604 141.076 141.546C140.57 139.428 140.313 137.239 140.313 135.041C140.313 133.149 140.504 131.258 140.88 129.421C141.246 127.631 141.793 125.87 142.504 124.188C143.203 122.536 144.068 120.942 145.075 119.452C146.073 117.975 147.218 116.587 148.48 115.325C149.742 114.063 151.13 112.917 152.607 111.92C154.097 110.913 155.691 110.048 157.343 109.349C159.026 108.637 160.786 108.091 162.576 107.725C164.413 107.349 166.304 107.158 168.196 107.158C171.329 107.158 174.404 107.674 177.336 108.69L177.583 108.776L177.711 108.548C180.097 104.305 183.568 100.743 187.748 98.2444C189.862 96.981 192.133 96.0047 194.498 95.3427C196.938 94.6596 199.473 94.3133 202.031 94.3133C205.473 94.3133 208.832 94.9327 212.016 96.1542C215.092 97.3342 217.914 99.0389 220.403 101.221C222.877 103.39 224.931 105.95 226.507 108.828C228.121 111.778 229.176 114.961 229.643 118.291L229.678 118.54L229.929 118.56C232.735 118.779 235.435 119.518 237.954 120.756C240.402 121.959 242.587 123.585 244.45 125.59C248.278 129.711 250.386 135.08 250.386 140.707C250.386 143.707 249.799 146.616 248.64 149.355C248.084 150.671 247.395 151.941 246.592 153.128C245.797 154.305 244.885 155.411 243.879 156.417C242.874 157.422 241.767 158.335 240.591 159.13C239.403 159.932 238.134 160.621 236.817 161.178C234.079 162.336 231.169 162.924 228.17 162.924H168.196H164.408ZM164.408 163.237H168.196H228.17C240.613 163.237 250.699 153.15 250.699 140.707C250.699 128.865 241.562 119.156 229.953 118.247C228.033 104.545 216.264 94 202.031 94C191.473 94 182.27 99.8031 177.438 108.394C174.543 107.39 171.433 106.845 168.196 106.845C152.624 106.845 140 119.469 140 135.041C140 139.571 141.068 143.851 142.966 147.644C145.892 156.692 154.386 163.237 164.408 163.237Z" fill="white" fill-opacity="0.5"/>
</g>
<path d="M106.939 133.924C107.398 133.935 112.058 150.114 112.058 156.401C112.058 162.688 109.766 167.785 106.939 167.785C104.113 167.785 101.821 162.689 101.821 156.402C101.821 150.115 106.48 133.913 106.939 133.924Z" fill="#42A0F0"/>
<path d="M104.466 158.325C105.214 158.554 106.199 157.5 106.666 155.972C107.133 154.444 106.906 153.02 106.158 152.791C105.41 152.563 104.425 153.616 103.958 155.144C103.491 156.672 103.718 158.097 104.466 158.325Z" fill="white"/>
<path d="M145.046 133.924C145.506 133.935 150.165 150.114 150.165 156.401C150.165 162.688 147.873 167.785 145.046 167.785C142.22 167.785 139.928 162.689 139.928 156.402C139.928 150.115 144.587 133.913 145.046 133.924Z" fill="#42A0F0"/>
<path d="M142.573 158.325C143.321 158.554 144.306 157.5 144.773 155.972C145.24 154.444 145.013 153.02 144.265 152.791C143.517 152.563 142.532 153.616 142.065 155.144C141.598 156.672 141.825 158.097 142.573 158.325Z" fill="white"/>
<path d="M180.243 132C180.702 132.012 185.361 148.19 185.361 154.477C185.361 160.764 183.07 165.861 180.243 165.861C177.416 165.861 175.125 160.765 175.125 154.478C175.125 148.191 179.784 131.989 180.243 132Z" fill="#42A0F0"/>
<path d="M177.77 156.401C178.518 156.63 179.502 155.576 179.97 154.048C180.437 152.52 180.209 151.096 179.462 150.867C178.714 150.638 177.729 151.692 177.262 153.22C176.794 154.748 177.022 156.172 177.77 156.401Z" fill="white"/>
<path d="M124.872 176.888C125.331 176.899 129.99 193.078 129.99 199.365C129.99 205.652 127.699 210.749 124.872 210.749C122.045 210.749 119.753 205.652 119.753 199.366C119.753 193.079 124.413 176.877 124.872 176.888Z" fill="#42A0F0"/>
<path d="M122.399 201.289C123.147 201.518 124.131 200.464 124.599 198.936C125.066 197.408 124.838 195.984 124.091 195.755C123.343 195.527 122.358 196.58 121.891 198.108C121.423 199.636 121.651 201.06 122.399 201.289Z" fill="white"/>
<path d="M162.979 176.888C163.438 176.899 168.098 193.078 168.098 199.365C168.098 205.652 165.806 210.749 162.979 210.749C160.152 210.749 157.861 205.652 157.861 199.366C157.861 193.079 162.52 176.877 162.979 176.888Z" fill="#42A0F0"/>
<path d="M160.506 201.289C161.254 201.518 162.239 200.464 162.706 198.936C163.173 197.408 162.945 195.984 162.198 195.755C161.45 195.527 160.465 196.58 159.998 198.108C159.531 199.636 159.758 201.06 160.506 201.289Z" fill="white"/>
<path d="M203.328 176.888C203.787 176.899 208.447 193.078 208.447 199.365C208.447 205.652 206.155 210.749 203.328 210.749C200.501 210.749 198.21 205.652 198.21 199.366C198.21 193.079 202.869 176.877 203.328 176.888Z" fill="#42A0F0"/>
<path d="M200.855 201.289C201.603 201.518 202.588 200.464 203.055 198.936C203.522 197.408 203.294 195.984 202.547 195.755C201.799 195.527 200.814 196.58 200.347 198.108C199.88 199.636 200.107 201.06 200.855 201.289Z" fill="white"/>
<path d="M106.939 210.874C107.398 210.886 112.058 227.064 112.058 233.351C112.058 239.638 109.766 244.735 106.939 244.735C104.113 244.735 101.821 239.639 101.821 233.352C101.821 227.065 106.48 210.863 106.939 210.874Z" fill="#42A0F0"/>
<path d="M104.466 235.275C105.214 235.504 106.199 234.451 106.666 232.922C107.133 231.394 106.906 229.97 106.158 229.742C105.41 229.513 104.425 230.566 103.958 232.095C103.491 233.623 103.718 235.047 104.466 235.275Z" fill="white"/>
<path d="M145.046 210.874C145.506 210.886 150.165 227.064 150.165 233.351C150.165 239.638 147.873 244.735 145.046 244.735C142.22 244.735 139.928 239.639 139.928 233.352C139.928 227.065 144.587 210.863 145.046 210.874Z" fill="#42A0F0"/>
<path d="M142.573 235.275C143.321 235.504 144.306 234.451 144.773 232.922C145.24 231.394 145.013 229.97 144.265 229.742C143.517 229.513 142.532 230.566 142.065 232.095C141.598 233.623 141.825 235.047 142.573 235.275Z" fill="white"/>
<path d="M180.243 210.874C180.702 210.886 185.361 227.064 185.361 233.351C185.361 239.638 183.07 244.735 180.243 244.735C177.416 244.735 175.125 239.639 175.125 233.352C175.125 227.065 179.784 210.863 180.243 210.874Z" fill="#42A0F0"/>
<path d="M177.77 235.275C178.518 235.504 179.502 234.451 179.97 232.922C180.437 231.394 180.209 229.97 179.462 229.742C178.714 229.513 177.729 230.566 177.262 232.095C176.794 233.623 177.022 235.047 177.77 235.275Z" fill="white"/>
<path d="M60.8717 156.448H90.7836L73.5884 181.699L93.6937 182.08L51.494 232.026L61.7188 193.946H43L60.8717 156.448Z" fill="url(#paint2_linear_64_1523)"/>
</g>
<defs>
<filter id="filter0_f_64_1523" x="16" y="4.37915" width="238.699" height="244.356" filterUnits="userSpaceOnUse" color-interpolation-filters="sRGB">
<feFlood flood-opacity="0" result="BackgroundImageFix"/>
<feBlend mode="normal" in="SourceGraphic" in2="BackgroundImageFix" result="shape"/>
<feGaussianBlur stdDeviation="2" result="effect1_foregroundBlur_64_1523"/>
</filter>
<filter id="filter1_f_64_1523" x="105.096" y="0.94751" width="132.946" height="129.482" filterUnits="userSpaceOnUse" color-interpolation-filters="sRGB">
<feFlood flood-opacity="0" result="BackgroundImageFix"/>
<feBlend mode="normal" in="SourceGraphic" in2="BackgroundImageFix" result="shape"/>
<feGaussianBlur stdDeviation="10" result="effect1_foregroundBlur_64_1523"/>
</filter>
<filter id="filter2_d_64_1523" x="0" y="66" width="290.699" height="131.237" filterUnits="userSpaceOnUse" color-interpolation-filters="sRGB">
<feFlood flood-opacity="0" result="BackgroundImageFix"/>
<feColorMatrix in="SourceAlpha" type="matrix" values="0 0 0 0 0 0 0 0 0 0 0 0 0 0 0 0 0 0 127 0" result="hardAlpha"/>
<feOffset dx="10" dy="2"/>
<feGaussianBlur stdDeviation="15"/>
<feColorMatrix type="matrix" values="0 0 0 0 0.258824 0 0 0 0 0.627451 0 0 0 0 0.941176 0 0 0 0.596 0"/>
<feBlend mode="normal" in2="BackgroundImageFix" result="effect1_dropShadow_64_1523"/>
<feBlend mode="normal" in="SourceGraphic" in2="effect1_dropShadow_64_1523" result="shape"/>
</filter>
<linearGradient id="paint0_linear_64_1523" x1="75.3417" y1="96.0007" x2="43.1848" y2="173.748" gradientUnits="userSpaceOnUse">
<stop stop-color="white" stop-opacity="0.604"/>
<stop offset="1" stop-color="white" stop-opacity="0.2"/>
</linearGradient>
<linearGradient id="paint1_linear_64_1523" x1="195.342" y1="94.0007" x2="163.185" y2="171.748" gradientUnits="userSpaceOnUse">
<stop stop-color="white" stop-opacity="0.604"/>
<stop offset="1" stop-color="white" stop-opacity="0.2"/>
</linearGradient>
<linearGradient id="paint2_linear_64_1523" x1="63.683" y1="194.237" x2="40.0037" y2="185.556" gradientUnits="userSpaceOnUse">
<stop stop-color="#FFD100"/>
<stop offset="1" stop-color="#FFF0AA"/>
</linearGradient>
</defs>
</svg>
