<svg width="293" height="254" viewBox="0 0 293 254" fill="none" xmlns="http://www.w3.org/2000/svg">
<path d="M116.623 141.47C117.089 141.482 121.821 157.912 121.821 164.296C121.821 170.68 119.493 175.857 116.623 175.857C113.752 175.857 111.425 170.681 111.425 164.297C111.425 157.912 116.157 141.459 116.623 141.47Z" fill="#42A0F0"/>
<path d="M114.111 166.249C114.871 166.482 115.871 165.412 116.345 163.86C116.82 162.308 116.589 160.862 115.829 160.63C115.07 160.398 114.07 161.467 113.595 163.019C113.121 164.571 113.352 166.017 114.111 166.249Z" fill="white"/>
<path d="M155.321 141.47C155.787 141.482 160.519 157.912 160.519 164.296C160.519 170.68 158.191 175.857 155.321 175.857C152.45 175.857 150.123 170.681 150.123 164.297C150.123 157.912 154.855 141.459 155.321 141.47Z" fill="#42A0F0"/>
<path d="M152.809 166.249C153.569 166.482 154.569 165.412 155.043 163.86C155.518 162.308 155.287 160.862 154.527 160.63C153.768 160.398 152.768 161.467 152.293 163.019C151.819 164.571 152.05 166.017 152.809 166.249Z" fill="white"/>
<path d="M191.063 139.517C191.529 139.528 196.261 155.958 196.261 162.342C196.261 168.727 193.934 173.903 191.063 173.903C188.193 173.903 185.865 168.727 185.865 162.343C185.865 155.959 190.597 139.506 191.063 139.517Z" fill="#42A0F0"/>
<path d="M188.552 164.296C189.311 164.528 190.311 163.458 190.786 161.906C191.26 160.355 191.029 158.908 190.27 158.676C189.51 158.444 188.51 159.514 188.036 161.066C187.561 162.617 187.792 164.064 188.552 164.296Z" fill="white"/>
<path d="M134.834 185.1C135.3 185.112 140.032 201.542 140.032 207.926C140.032 214.31 137.704 219.487 134.834 219.487C131.963 219.487 129.636 214.311 129.636 207.926C129.636 201.542 134.367 185.089 134.834 185.1Z" fill="#42A0F0"/>
<path d="M132.322 209.88C133.081 210.112 134.082 209.042 134.556 207.49C135.031 205.939 134.8 204.492 134.04 204.26C133.281 204.028 132.281 205.098 131.806 206.65C131.332 208.201 131.563 209.648 132.322 209.88Z" fill="white"/>
<path d="M173.532 185.1C173.998 185.112 178.729 201.542 178.729 207.926C178.729 214.31 176.402 219.487 173.532 219.487C170.661 219.487 168.334 214.311 168.334 207.926C168.334 201.542 173.065 185.089 173.532 185.1Z" fill="#42A0F0"/>
<path d="M171.02 209.88C171.779 210.112 172.78 209.042 173.254 207.49C173.728 205.939 173.497 204.492 172.738 204.26C171.979 204.028 170.978 205.098 170.504 206.65C170.03 208.201 170.261 209.648 171.02 209.88Z" fill="white"/>
<path d="M214.506 185.1C214.972 185.112 219.704 201.542 219.704 207.926C219.704 214.31 217.377 219.487 214.506 219.487C211.636 219.487 209.308 214.311 209.308 207.926C209.308 201.542 214.04 185.089 214.506 185.1Z" fill="#42A0F0"/>
<path d="M211.995 209.88C212.754 210.112 213.754 209.042 214.229 207.49C214.703 205.939 214.472 204.492 213.713 204.26C212.953 204.028 211.953 205.098 211.479 206.65C211.004 208.201 211.235 209.648 211.995 209.88Z" fill="white"/>
<path d="M116.623 219.614C117.089 219.625 121.821 236.055 121.821 242.44C121.821 248.824 119.493 254 116.623 254C113.752 254 111.425 248.824 111.425 242.44C111.425 236.056 116.157 219.603 116.623 219.614Z" fill="#42A0F0"/>
<path d="M114.111 244.393C114.871 244.625 115.871 243.555 116.345 242.004C116.82 240.452 116.589 239.006 115.829 238.773C115.07 238.541 114.07 239.611 113.595 241.163C113.121 242.715 113.352 244.161 114.111 244.393Z" fill="white"/>
<path d="M155.321 219.614C155.787 219.625 160.519 236.055 160.519 242.44C160.519 248.824 158.191 254 155.321 254C152.45 254 150.123 248.824 150.123 242.44C150.123 236.056 154.855 219.603 155.321 219.614Z" fill="#42A0F0"/>
<path d="M152.809 244.393C153.569 244.625 154.569 243.555 155.043 242.004C155.518 240.452 155.287 239.006 154.527 238.773C153.768 238.541 152.768 239.611 152.293 241.163C151.819 242.715 152.05 244.161 152.809 244.393Z" fill="white"/>
<path d="M191.063 219.614C191.529 219.625 196.261 236.055 196.261 242.44C196.261 248.824 193.934 254 191.063 254C188.193 254 185.865 248.824 185.865 242.44C185.865 236.056 190.597 219.603 191.063 219.614Z" fill="#42A0F0"/>
<path d="M188.552 244.393C189.311 244.625 190.311 243.555 190.786 242.004C191.26 240.452 191.029 239.006 190.27 238.773C189.51 238.541 188.51 239.611 188.036 241.163C187.561 242.715 187.792 244.161 188.552 244.393Z" fill="white"/>
<path d="M69.8407 164.343H100.216L82.7546 189.986L103.172 190.373L60.3176 241.093L70.701 202.423H51.6919L69.8407 164.343Z" fill="url(#paint0_linear_64_1484)"/>
<path d="M62.8691 12.4831C67.1364 12.4822 71.3929 12.9135 75.5733 13.7705C83.6417 15.4323 91.3021 18.6722 98.1144 23.304C107.552 29.7009 115.093 38.522 119.943 48.8403C124.794 59.1585 126.775 70.5929 125.679 81.9416C124.584 93.2903 120.451 104.134 113.716 113.334C106.981 122.533 97.8917 129.749 87.4042 134.222C83.5918 135.841 79.6278 137.078 75.5707 137.913C66.7732 139.698 57.6965 139.587 48.9452 137.589C40.1939 135.59 31.9689 131.749 24.8184 126.323C17.6679 120.896 11.7559 114.008 7.47643 106.117C3.19694 98.2259 0.648192 89.5136 -9.96603e-06 80.5604C3.66832 81.4204 7.42367 81.8539 11.1914 81.8524C20.8958 81.8679 30.3814 78.9703 38.4206 73.5347C46.2511 68.2501 52.3811 60.8081 56.068 52.1103C58.6061 46.1132 59.9078 39.6654 59.8951 33.1533C59.8956 29.6168 59.5133 26.0907 58.7548 22.6365C58.0165 19.2894 56.9251 16.0302 55.4988 12.9135C57.9452 12.6276 60.4061 12.4839 62.8691 12.4831V12.4831Z" fill="#713FFD"/>
<g filter="url(#filter0_f_64_1484)">
<path d="M105.525 32.0699C91.3742 19.3287 72.8366 16.8479 64.1197 26.529C55.4029 36.21 59.8078 54.3868 73.9584 67.128C88.1089 79.8692 106.647 82.35 115.363 72.669C124.08 62.988 119.675 44.8111 105.525 32.0699Z" fill="#A586FC"/>
</g>
<g filter="url(#filter1_d_64_1484)">
<path d="M194.099 181.612H69.4388C57.3459 181.603 45.7252 176.916 37.0097 168.532C28.2941 160.149 23.1594 148.719 22.6805 136.636C22.2015 124.552 26.4154 112.752 34.4401 103.705C42.4647 94.6582 53.6779 89.0663 65.7322 88.0999C67.4512 75.9616 72.9326 64.6677 81.405 55.8071C89.8775 46.9465 100.915 40.965 112.964 38.7043C125.013 36.4436 137.468 38.0175 148.576 43.2043C159.684 48.3912 168.886 56.9302 174.888 67.6198C185.897 63.8091 197.791 63.3638 209.053 66.3407C220.316 69.3175 230.436 75.5816 238.124 84.334C245.812 93.0864 250.718 103.93 252.217 115.483C253.717 127.035 251.741 138.772 246.542 149.197C243.491 158.617 237.535 166.827 229.528 172.651C221.52 178.474 211.874 181.611 201.973 181.612H194.099Z" fill="url(#paint1_linear_64_1484)"/>
<path d="M201.973 180.96C207 180.96 211.943 180.157 216.665 178.574C221.23 177.043 225.516 174.809 229.404 171.934C233.247 169.092 236.615 165.688 239.416 161.815C242.252 157.895 244.441 153.582 245.923 148.997L245.938 148.95L245.96 148.905C247.93 144.967 249.448 140.801 250.47 136.523C251.522 132.121 252.056 127.572 252.056 123.004C252.056 119.071 251.659 115.141 250.878 111.323C250.117 107.602 248.981 103.942 247.501 100.445C246.049 97.0107 244.251 93.6985 242.158 90.6002C240.085 87.5312 237.703 84.6452 235.081 82.0224C232.458 79.3995 229.572 77.0183 226.503 74.9449C223.404 72.8517 220.092 71.0539 216.658 69.6015C213.161 68.1222 209.501 66.9861 205.78 66.2247C201.962 65.4433 198.032 65.0472 194.099 65.0472C187.587 65.0472 181.196 66.1188 175.102 68.2324L174.587 68.4107L174.321 67.9363C169.361 59.1179 162.147 51.7121 153.459 46.5196C149.065 43.8936 144.344 41.8643 139.428 40.4881C134.356 39.0683 129.088 38.3485 123.77 38.3485C116.617 38.3485 109.634 39.6359 103.016 42.1749C96.6223 44.6277 90.7573 48.1709 85.5836 52.706C80.4396 57.2151 76.1708 62.5353 72.8957 68.5189C69.5402 74.6495 67.3471 81.267 66.3772 88.1877L66.3047 88.7057L65.7832 88.7466C59.9496 89.2032 54.337 90.7391 49.1013 93.3115C44.0139 95.8112 39.471 99.192 35.5989 103.36C27.6425 111.925 23.2607 123.084 23.2607 134.782C23.2607 141.016 24.4815 147.064 26.8893 152.756C28.0466 155.493 29.4791 158.132 31.1468 160.6C32.7989 163.046 34.6962 165.345 36.786 167.435C38.8758 169.525 41.1753 171.422 43.6207 173.074C46.0893 174.742 48.7283 176.174 51.4644 177.332C57.1571 179.739 63.2045 180.96 69.4388 180.96H194.099H201.973ZM201.973 181.611H194.099H69.4388C43.5758 181.611 22.6095 160.645 22.6095 134.782C22.6095 110.166 41.6014 89.9862 65.7323 88.0973C69.7238 59.6148 94.187 37.6973 123.77 37.6973C145.717 37.6973 164.845 49.7595 174.888 67.6171C180.907 65.5298 187.37 64.396 194.099 64.396C226.467 64.396 252.707 90.6358 252.707 123.004C252.707 132.417 250.486 141.315 246.542 149.197C240.463 168.007 222.807 181.611 201.973 181.611Z" fill="white" fill-opacity="0.5"/>
</g>
<defs>
<filter id="filter0_f_64_1484" x="39.6444" y="0.623291" width="100.194" height="97.9512" filterUnits="userSpaceOnUse" color-interpolation-filters="sRGB">
<feFlood flood-opacity="0" result="BackgroundImageFix"/>
<feBlend mode="normal" in="SourceGraphic" in2="BackgroundImageFix" result="shape"/>
<feGaussianBlur stdDeviation="10" result="effect1_foregroundBlur_64_1484"/>
</filter>
<filter id="filter1_d_64_1484" x="2.6095" y="9.69727" width="290.097" height="203.915" filterUnits="userSpaceOnUse" color-interpolation-filters="sRGB">
<feFlood flood-opacity="0" result="BackgroundImageFix"/>
<feColorMatrix in="SourceAlpha" type="matrix" values="0 0 0 0 0 0 0 0 0 0 0 0 0 0 0 0 0 0 127 0" result="hardAlpha"/>
<feOffset dx="10" dy="2"/>
<feGaussianBlur stdDeviation="15"/>
<feColorMatrix type="matrix" values="0 0 0 0 0.258824 0 0 0 0 0.627451 0 0 0 0 0.941176 0 0 0 0.596 0"/>
<feBlend mode="normal" in2="BackgroundImageFix" result="effect1_dropShadow_64_1484"/>
<feBlend mode="normal" in="SourceGraphic" in2="effect1_dropShadow_64_1484" result="shape"/>
</filter>
<linearGradient id="paint0_linear_64_1484" x1="72.6956" y1="202.718" x2="48.6492" y2="193.903" gradientUnits="userSpaceOnUse">
<stop stop-color="#FFD100"/>
<stop offset="1" stop-color="#FFF0AA"/>
</linearGradient>
<linearGradient id="paint1_linear_64_1484" x1="137.674" y1="37.699" x2="204.515" y2="199.302" gradientUnits="userSpaceOnUse">
<stop stop-color="white" stop-opacity="0.604"/>
<stop offset="1" stop-color="white" stop-opacity="0.2"/>
</linearGradient>
</defs>
</svg>
