<svg width="305" height="253" viewBox="0 0 305 253" fill="none" xmlns="http://www.w3.org/2000/svg">
<path d="M98.6421 157.116L143.681 229.179" stroke="#42A0F0" stroke-width="9" stroke-linecap="round"/>
<path d="M109.508 174.821L113.912 154.253" stroke="#42A0F0" stroke-width="9" stroke-linecap="round"/>
<path d="M109.508 174.821L88.6896 170.017" stroke="#42A0F0" stroke-width="9" stroke-linecap="round"/>
<path d="M133.529 213.255L153.947 218.31" stroke="#42A0F0" stroke-width="9" stroke-linecap="round"/>
<path d="M133.529 213.255L128.725 234.074" stroke="#42A0F0" stroke-width="9" stroke-linecap="round"/>
<path d="M141.121 156.035L101.232 231.071" stroke="#42A0F0" stroke-width="9" stroke-linecap="round"/>
<path d="M131.22 174.298L151.235 167.827" stroke="#42A0F0" stroke-width="9" stroke-linecap="round"/>
<path d="M131.22 174.298L124.971 153.866" stroke="#42A0F0" stroke-width="9" stroke-linecap="round"/>
<path d="M109.946 214.317L115.778 234.527" stroke="#42A0F0" stroke-width="9" stroke-linecap="round"/>
<path d="M109.946 214.318L89.5146 220.566" stroke="#42A0F0" stroke-width="9" stroke-linecap="round"/>
<path d="M163.296 192.281L78.3682 195.255" stroke="#42A0F0" stroke-width="9" stroke-linecap="round"/>
<path d="M142.529 192.839L158.14 206.937" stroke="#42A0F0" stroke-width="9" stroke-linecap="round"/>
<path d="M142.53 192.839L157.1 177.211" stroke="#42A0F0" stroke-width="9" stroke-linecap="round"/>
<path d="M97.2349 194.425L82.6483 209.58" stroke="#42A0F0" stroke-width="9" stroke-linecap="round"/>
<path d="M97.235 194.425L81.6076 179.855" stroke="#42A0F0" stroke-width="9" stroke-linecap="round"/>
<path d="M210.989 202.648L193.852 241.133" stroke="#42A0F0" stroke-width="6.00313" stroke-linecap="round"/>
<path d="M206.723 212.022L216.398 208.131" stroke="#42A0F0" stroke-width="6.00313" stroke-linecap="round"/>
<path d="M206.723 212.021L202.928 202.133" stroke="#42A0F0" stroke-width="6.00313" stroke-linecap="round"/>
<path d="M197.583 232.547L201.164 242.34" stroke="#42A0F0" stroke-width="6.00313" stroke-linecap="round"/>
<path d="M197.583 232.547L187.695 236.342" stroke="#42A0F0" stroke-width="6.00313" stroke-linecap="round"/>
<path d="M223.206 219.809L181.309 224.21" stroke="#42A0F0" stroke-width="6.00313" stroke-linecap="round"/>
<path d="M212.956 220.801L221.162 227.234" stroke="#42A0F0" stroke-width="6.00313" stroke-linecap="round"/>
<path d="M212.956 220.801L219.622 212.57" stroke="#42A0F0" stroke-width="6.00313" stroke-linecap="round"/>
<path d="M190.61 223.149L183.92 231.147" stroke="#42A0F0" stroke-width="6.00313" stroke-linecap="round"/>
<path d="M190.61 223.148L182.379 216.482" stroke="#42A0F0" stroke-width="6.00313" stroke-linecap="round"/>
<path d="M214.454 238.97L189.694 204.886" stroke="#42A0F0" stroke-width="6.00313" stroke-linecap="round"/>
<path d="M208.47 230.588L207.002 240.912" stroke="#42A0F0" stroke-width="6.00313" stroke-linecap="round"/>
<path d="M208.47 230.588L218.931 232.246" stroke="#42A0F0" stroke-width="6.00313" stroke-linecap="round"/>
<path d="M195.264 212.41L184.992 210.615" stroke="#42A0F0" stroke-width="6.00313" stroke-linecap="round"/>
<path d="M195.264 212.41L196.922 201.949" stroke="#42A0F0" stroke-width="6.00313" stroke-linecap="round"/>
<path d="M69.7499 11.8658C74.4845 11.8646 79.2071 12.343 83.8453 13.2937C92.7971 15.1374 101.296 18.732 108.854 23.8708C119.325 30.968 127.691 40.7547 133.073 52.2025C138.455 63.6503 140.653 76.3364 139.438 88.9275C138.222 101.519 133.637 113.55 126.165 123.757C118.693 133.964 108.609 141.969 96.9736 146.932C92.7439 148.729 88.3459 150.101 83.8447 151.028C74.0841 153.008 64.0138 152.884 54.3047 150.666C44.5955 148.449 35.4704 144.187 27.5372 138.167C19.604 132.146 13.0448 124.504 8.2965 115.749C3.54826 106.995 0.719977 97.3291 6.7054e-05 87.3959C7.65365 89.1871 15.604 89.3023 23.3063 87.7336C30.2179 86.3181 36.7832 83.5556 42.6275 79.6035C51.315 73.7386 58.1152 65.4801 62.204 55.8286C63.5856 52.5598 64.6402 49.1623 65.3522 45.6857C66.8699 38.2367 66.8138 30.5526 65.1874 23.1265C64.3692 19.4132 63.1593 15.7972 61.5779 12.3393C64.2905 12.0236 67.019 11.8655 69.7499 11.8658V11.8658Z" fill="#713FFD"/>
<g filter="url(#filter0_f_64_1567)">
<path d="M117.078 33.5958C101.378 19.4595 80.8104 16.707 71.1392 27.4479C61.4681 38.1888 66.3554 58.3558 82.0554 72.4921C97.7553 86.6284 118.323 89.3809 127.994 78.64C137.665 67.8991 132.778 47.7322 117.078 33.5958Z" fill="#A586FC"/>
</g>
<g filter="url(#filter1_d_64_1567)">
<path d="M204.211 197.796H74.9135C62.3705 197.786 50.3175 192.925 41.2777 184.23C32.2379 175.535 26.9121 163.68 26.4153 151.146C25.9186 138.613 30.2893 126.374 38.6125 116.991C46.9357 107.607 58.5661 101.807 71.0689 100.805C72.8519 88.2149 78.5372 76.5007 87.3249 67.3104C96.1125 58.1201 107.56 51.9161 120.058 49.5713C132.555 47.2265 145.474 48.8589 156.995 54.2388C168.516 59.6186 178.061 68.4753 184.286 79.5627C195.704 75.6102 208.041 75.1483 219.722 78.2359C231.404 81.3235 241.901 87.8207 249.875 96.8988C257.848 105.977 262.937 117.224 264.493 129.206C266.048 141.189 263.998 153.362 258.606 164.175C255.442 173.945 249.264 182.461 240.959 188.502C232.654 194.542 222.648 197.796 212.379 197.796H204.211Z" fill="url(#paint0_linear_64_1567)"/>
<path d="M212.379 197.12C217.593 197.12 222.72 196.288 227.617 194.646C232.352 193.058 236.798 190.741 240.83 187.759C244.816 184.811 248.31 181.28 251.215 177.263C254.156 173.197 256.426 168.724 257.963 163.968L257.979 163.919L258.002 163.873C260.046 159.788 261.62 155.467 262.68 151.03C263.771 146.464 264.325 141.746 264.325 137.007C264.325 132.928 263.914 128.852 263.103 124.892C262.314 121.033 261.135 117.237 259.601 113.609C258.094 110.047 256.23 106.612 254.059 103.398C251.908 100.215 249.438 97.2218 246.718 94.5014C243.998 91.781 241.004 89.3112 237.821 87.1606C234.607 84.9896 231.172 83.1249 227.61 81.6184C223.983 80.084 220.187 78.9056 216.327 78.1159C212.367 77.3055 208.291 76.8946 204.212 76.8946C197.458 76.8946 190.828 78.0062 184.507 80.1983L183.974 80.3833L183.697 79.8913C178.554 70.7448 171.071 63.0634 162.059 57.6777C157.502 54.954 152.606 52.8492 147.507 51.4218C142.246 49.9492 136.782 49.2025 131.266 49.2025C123.846 49.2025 116.604 50.5378 109.74 53.1714C103.108 55.7154 97.0249 59.3905 91.6587 64.0943C86.3234 68.7711 81.8957 74.2893 78.4988 80.4955C75.0184 86.8542 72.7437 93.718 71.7377 100.896L71.6625 101.433L71.1216 101.476C65.071 101.949 59.2496 103.542 53.819 106.211C48.5424 108.803 43.8305 112.31 39.8143 116.633C31.5618 125.517 27.017 137.091 27.017 149.224C27.017 155.69 28.2832 161.963 30.7806 167.867C31.981 170.705 33.4667 173.442 35.1965 176.003C36.9101 178.539 38.8779 180.924 41.0455 183.092C43.2131 185.259 45.5982 187.227 48.1345 188.941C50.695 190.671 53.4322 192.156 56.2701 193.357C62.1745 195.854 68.447 197.12 74.9132 197.12H204.212H212.379ZM212.379 197.796H204.212H74.9132C48.0879 197.796 26.3416 176.049 26.3416 149.224C26.3416 123.692 46.0401 102.762 71.0689 100.802C75.2088 71.2601 100.582 48.5271 131.266 48.5271C154.029 48.5271 173.87 61.0382 184.286 79.5602C190.528 77.3952 197.233 76.2192 204.212 76.2192C237.784 76.2192 265 103.435 265 137.007C265 146.772 262.697 156 258.606 164.175C252.301 183.685 233.988 197.796 212.379 197.796Z" fill="white" fill-opacity="0.5"/>
</g>
<defs>
<filter id="filter0_f_64_1567" x="46.174" y="0.895752" width="106.785" height="104.296" filterUnits="userSpaceOnUse" color-interpolation-filters="sRGB">
<feFlood flood-opacity="0" result="BackgroundImageFix"/>
<feBlend mode="normal" in="SourceGraphic" in2="BackgroundImageFix" result="shape"/>
<feGaussianBlur stdDeviation="10" result="effect1_foregroundBlur_64_1567"/>
</filter>
<filter id="filter1_d_64_1567" x="6.34155" y="20.5271" width="298.658" height="209.269" filterUnits="userSpaceOnUse" color-interpolation-filters="sRGB">
<feFlood flood-opacity="0" result="BackgroundImageFix"/>
<feColorMatrix in="SourceAlpha" type="matrix" values="0 0 0 0 0 0 0 0 0 0 0 0 0 0 0 0 0 0 127 0" result="hardAlpha"/>
<feOffset dx="10" dy="2"/>
<feGaussianBlur stdDeviation="15"/>
<feColorMatrix type="matrix" values="0 0 0 0 0.258824 0 0 0 0 0.627451 0 0 0 0 0.941176 0 0 0 0.596 0"/>
<feBlend mode="normal" in2="BackgroundImageFix" result="effect1_dropShadow_64_1567"/>
<feBlend mode="normal" in="SourceGraphic" in2="effect1_dropShadow_64_1567" result="shape"/>
</filter>
<linearGradient id="paint0_linear_64_1567" x1="145.688" y1="48.5286" x2="215.015" y2="216.145" gradientUnits="userSpaceOnUse">
<stop stop-color="white" stop-opacity="0.604"/>
<stop offset="1" stop-color="white" stop-opacity="0.2"/>
</linearGradient>
</defs>
</svg>
