<svg width="310" height="248" viewBox="0 0 310 248" fill="none" xmlns="http://www.w3.org/2000/svg">
<path d="M212.763 209.241V245.451" stroke="#42A0F0" stroke-width="4" stroke-linecap="round"/>
<path d="M212.69 218.092L218.927 211.655" stroke="#42A0F0" stroke-width="4" stroke-linecap="round"/>
<path d="M212.69 218.092L206.253 211.655" stroke="#42A0F0" stroke-width="4" stroke-linecap="round"/>
<path d="M212.69 237.404L218.927 243.841" stroke="#42A0F0" stroke-width="4" stroke-linecap="round"/>
<path d="M212.69 237.404L206.253 243.841" stroke="#42A0F0" stroke-width="4" stroke-linecap="round"/>
<path d="M228.357 218.443L196.998 236.548" stroke="#42A0F0" stroke-width="4" stroke-linecap="round"/>
<path d="M220.655 222.805L229.347 224.988" stroke="#42A0F0" stroke-width="4" stroke-linecap="round"/>
<path d="M220.655 222.806L223.011 214.013" stroke="#42A0F0" stroke-width="4" stroke-linecap="round"/>
<path d="M203.93 232.462L201.473 241.081" stroke="#42A0F0" stroke-width="4" stroke-linecap="round"/>
<path d="M203.93 232.462L195.137 230.106" stroke="#42A0F0" stroke-width="4" stroke-linecap="round"/>
<path d="M228.183 236.548L196.824 218.443" stroke="#42A0F0" stroke-width="4" stroke-linecap="round"/>
<path d="M220.554 232.059L223.011 240.679" stroke="#42A0F0" stroke-width="4" stroke-linecap="round"/>
<path d="M220.554 232.059L229.347 229.703" stroke="#42A0F0" stroke-width="4" stroke-linecap="round"/>
<path d="M203.829 222.403L195.137 224.585" stroke="#42A0F0" stroke-width="4" stroke-linecap="round"/>
<path d="M203.829 222.403L201.473 213.61" stroke="#42A0F0" stroke-width="4" stroke-linecap="round"/>
<path d="M148.65 209.241V245.451" stroke="#42A0F0" stroke-width="4" stroke-linecap="round"/>
<path d="M148.577 218.092L154.813 211.655" stroke="#42A0F0" stroke-width="4" stroke-linecap="round"/>
<path d="M148.577 218.092L142.14 211.655" stroke="#42A0F0" stroke-width="4" stroke-linecap="round"/>
<path d="M148.577 237.404L154.813 243.841" stroke="#42A0F0" stroke-width="4" stroke-linecap="round"/>
<path d="M148.577 237.404L142.14 243.841" stroke="#42A0F0" stroke-width="4" stroke-linecap="round"/>
<path d="M164.243 218.443L132.884 236.548" stroke="#42A0F0" stroke-width="4" stroke-linecap="round"/>
<path d="M156.541 222.805L165.234 224.988" stroke="#42A0F0" stroke-width="4" stroke-linecap="round"/>
<path d="M156.541 222.806L158.898 214.013" stroke="#42A0F0" stroke-width="4" stroke-linecap="round"/>
<path d="M139.817 232.462L137.36 241.081" stroke="#42A0F0" stroke-width="4" stroke-linecap="round"/>
<path d="M139.817 232.462L131.023 230.106" stroke="#42A0F0" stroke-width="4" stroke-linecap="round"/>
<path d="M164.07 236.548L132.711 218.443" stroke="#42A0F0" stroke-width="4" stroke-linecap="round"/>
<path d="M156.441 232.059L158.898 240.679" stroke="#42A0F0" stroke-width="4" stroke-linecap="round"/>
<path d="M156.441 232.059L165.234 229.703" stroke="#42A0F0" stroke-width="4" stroke-linecap="round"/>
<path d="M139.716 222.403L131.023 224.585" stroke="#42A0F0" stroke-width="4" stroke-linecap="round"/>
<path d="M139.716 222.403L137.36 213.61" stroke="#42A0F0" stroke-width="4" stroke-linecap="round"/>
<path d="M84.6503 209.241V245.451" stroke="#42A0F0" stroke-width="4" stroke-linecap="round"/>
<path d="M84.5773 218.092L90.8135 211.655" stroke="#42A0F0" stroke-width="4" stroke-linecap="round"/>
<path d="M84.5773 218.092L78.1402 211.655" stroke="#42A0F0" stroke-width="4" stroke-linecap="round"/>
<path d="M84.5773 237.404L90.8135 243.841" stroke="#42A0F0" stroke-width="4" stroke-linecap="round"/>
<path d="M84.5773 237.404L78.1402 243.841" stroke="#42A0F0" stroke-width="4" stroke-linecap="round"/>
<path d="M100.244 218.443L68.8847 236.548" stroke="#42A0F0" stroke-width="4" stroke-linecap="round"/>
<path d="M92.5417 222.805L101.234 224.988" stroke="#42A0F0" stroke-width="4" stroke-linecap="round"/>
<path d="M92.5417 222.806L94.8978 214.013" stroke="#42A0F0" stroke-width="4" stroke-linecap="round"/>
<path d="M75.817 232.462L73.3603 241.081" stroke="#42A0F0" stroke-width="4" stroke-linecap="round"/>
<path d="M75.817 232.462L67.0237 230.106" stroke="#42A0F0" stroke-width="4" stroke-linecap="round"/>
<path d="M100.07 236.548L68.7113 218.443" stroke="#42A0F0" stroke-width="4" stroke-linecap="round"/>
<path d="M92.4412 232.059L94.8978 240.679" stroke="#42A0F0" stroke-width="4" stroke-linecap="round"/>
<path d="M92.4412 232.059L101.234 229.703" stroke="#42A0F0" stroke-width="4" stroke-linecap="round"/>
<path d="M75.7164 222.403L67.0236 224.585" stroke="#42A0F0" stroke-width="4" stroke-linecap="round"/>
<path d="M75.7164 222.403L73.3603 213.61" stroke="#42A0F0" stroke-width="4" stroke-linecap="round"/>
<path d="M115.618 154.875V191.086" stroke="#42A0F0" stroke-width="4" stroke-linecap="round"/>
<path d="M115.545 163.727L121.781 157.29" stroke="#42A0F0" stroke-width="4" stroke-linecap="round"/>
<path d="M115.545 163.727L109.108 157.29" stroke="#42A0F0" stroke-width="4" stroke-linecap="round"/>
<path d="M115.545 183.039L121.781 189.476" stroke="#42A0F0" stroke-width="4" stroke-linecap="round"/>
<path d="M115.545 183.039L109.108 189.476" stroke="#42A0F0" stroke-width="4" stroke-linecap="round"/>
<path d="M131.211 164.078L99.8523 182.183" stroke="#42A0F0" stroke-width="4" stroke-linecap="round"/>
<path d="M123.509 168.44L132.202 170.622" stroke="#42A0F0" stroke-width="4" stroke-linecap="round"/>
<path d="M123.509 168.44L125.865 159.646" stroke="#42A0F0" stroke-width="4" stroke-linecap="round"/>
<path d="M106.785 178.096L104.328 186.715" stroke="#42A0F0" stroke-width="4" stroke-linecap="round"/>
<path d="M106.785 178.096L97.9913 175.74" stroke="#42A0F0" stroke-width="4" stroke-linecap="round"/>
<path d="M131.038 182.183L99.6789 164.078" stroke="#42A0F0" stroke-width="4" stroke-linecap="round"/>
<path d="M123.409 177.694L125.865 186.313" stroke="#42A0F0" stroke-width="4" stroke-linecap="round"/>
<path d="M123.409 177.694L132.202 175.338" stroke="#42A0F0" stroke-width="4" stroke-linecap="round"/>
<path d="M106.684 168.038L97.9913 170.22" stroke="#42A0F0" stroke-width="4" stroke-linecap="round"/>
<path d="M106.684 168.038L104.328 159.245" stroke="#42A0F0" stroke-width="4" stroke-linecap="round"/>
<path d="M186.499 154.875V191.086" stroke="#42A0F0" stroke-width="4" stroke-linecap="round"/>
<path d="M186.426 163.727L192.663 157.29" stroke="#42A0F0" stroke-width="4" stroke-linecap="round"/>
<path d="M186.426 163.727L179.989 157.29" stroke="#42A0F0" stroke-width="4" stroke-linecap="round"/>
<path d="M186.426 183.039L192.663 189.476" stroke="#42A0F0" stroke-width="4" stroke-linecap="round"/>
<path d="M186.426 183.039L179.989 189.476" stroke="#42A0F0" stroke-width="4" stroke-linecap="round"/>
<path d="M202.093 164.078L170.734 182.183" stroke="#42A0F0" stroke-width="4" stroke-linecap="round"/>
<path d="M194.391 168.44L203.084 170.622" stroke="#42A0F0" stroke-width="4" stroke-linecap="round"/>
<path d="M194.391 168.44L196.747 159.646" stroke="#42A0F0" stroke-width="4" stroke-linecap="round"/>
<path d="M177.666 178.096L175.209 186.715" stroke="#42A0F0" stroke-width="4" stroke-linecap="round"/>
<path d="M177.666 178.096L168.873 175.74" stroke="#42A0F0" stroke-width="4" stroke-linecap="round"/>
<path d="M201.919 182.183L170.56 164.078" stroke="#42A0F0" stroke-width="4" stroke-linecap="round"/>
<path d="M194.29 177.694L196.747 186.313" stroke="#42A0F0" stroke-width="4" stroke-linecap="round"/>
<path d="M194.29 177.694L203.084 175.338" stroke="#42A0F0" stroke-width="4" stroke-linecap="round"/>
<path d="M177.565 168.038L168.873 170.22" stroke="#42A0F0" stroke-width="4" stroke-linecap="round"/>
<path d="M177.565 168.038L175.209 159.245" stroke="#42A0F0" stroke-width="4" stroke-linecap="round"/>
<path d="M71.0658 10.9386C75.8898 10.9374 80.7015 11.4248 85.4272 12.3934C94.5479 14.2719 103.207 17.9343 110.908 23.1701C121.577 30.4011 130.101 40.3725 135.584 52.0363C141.067 63.7001 143.307 76.6256 142.069 89.4543C140.83 102.283 136.159 114.541 128.545 124.941C120.932 135.34 110.658 143.497 98.8032 148.553C94.4936 150.384 90.0127 151.782 85.4265 152.727C75.4818 154.743 65.2215 154.618 55.3292 152.358C45.4368 150.098 36.1396 145.757 28.0566 139.622C19.9737 133.488 13.2908 125.702 8.45294 116.782C3.6151 107.862 0.733458 98.0144 -3.52601e-05 87.8938C7.79795 89.7187 15.8983 89.8361 23.7459 88.2379C30.788 86.7957 37.4771 83.981 43.4317 79.9544C52.2831 73.9788 59.2116 65.5644 63.3776 55.7308C64.7853 52.4004 65.8597 48.9387 66.5852 45.3966C68.1315 37.807 68.0743 29.9779 66.4172 22.4117C65.5836 18.6284 64.3509 14.9441 62.7397 11.421C65.5034 11.0994 68.2834 10.9383 71.0658 10.9386V10.9386Z" fill="#713FFD"/>
<g filter="url(#filter0_f_64_1627)">
<path d="M119.287 33.0789C103.291 18.6759 82.3351 15.8715 72.4815 26.815C62.6279 37.7586 67.6074 58.306 83.6036 72.7091C99.5998 87.1121 120.555 89.9166 130.409 78.973C140.262 68.0295 135.283 47.482 119.287 33.0789Z" fill="#A586FC"/>
</g>
<g filter="url(#filter1_d_64_1627)">
<path d="M208.064 200.377H76.3269C63.5473 200.367 51.2669 195.414 42.0565 186.555C32.8461 177.696 27.4198 165.617 26.9137 152.848C26.4075 140.078 30.8607 127.608 39.341 118.047C47.8212 108.487 59.6711 102.577 72.4098 101.556C74.2264 88.7285 80.0189 76.7934 88.9724 67.4297C97.9259 58.066 109.59 51.745 122.323 49.3559C135.056 46.9669 148.218 48.63 159.957 54.1114C171.696 59.5928 181.421 68.6165 187.763 79.9131C199.397 75.886 211.966 75.4154 223.868 78.5613C235.77 81.7072 246.465 88.327 254.589 97.5763C262.713 106.826 267.898 118.285 269.483 130.494C271.067 142.702 268.979 155.105 263.485 166.122C260.262 176.076 253.967 184.753 245.505 190.907C237.043 197.062 226.849 200.377 216.386 200.377H208.064Z" fill="url(#paint0_linear_64_1627)"/>
<path d="M216.386 199.689C221.699 199.689 226.922 198.84 231.911 197.167C236.736 195.55 241.266 193.189 245.374 190.15C249.435 187.147 252.995 183.549 255.955 179.457C258.951 175.314 261.265 170.756 262.831 165.91L262.847 165.861L262.87 165.814C264.953 161.652 266.556 157.25 267.637 152.729C268.748 148.076 269.312 143.269 269.312 138.442C269.312 134.286 268.893 130.132 268.068 126.097C267.263 122.165 266.062 118.298 264.499 114.602C262.964 110.973 261.064 107.473 258.852 104.198C256.661 100.955 254.145 97.9052 251.373 95.1335C248.601 92.3617 245.552 89.8453 242.308 87.6542C239.034 85.4422 235.534 83.5423 231.905 82.0074C228.209 80.4441 224.341 79.2435 220.409 78.4388C216.374 77.6132 212.221 77.1945 208.065 77.1945C201.183 77.1945 194.429 78.327 187.989 80.5605L187.445 80.749L187.163 80.2477C181.923 70.9286 174.299 63.1023 165.117 57.615C160.474 54.8399 155.485 52.6954 150.29 51.2411C144.93 49.7407 139.363 48.9799 133.743 48.9799C126.183 48.9799 118.804 50.3404 111.81 53.0236C105.054 55.6157 98.8556 59.3601 93.3882 64.1527C87.9522 68.9177 83.441 74.54 79.98 80.8634C76.4339 87.342 74.1163 94.3353 73.0913 101.649L73.0147 102.196L72.4636 102.239C66.2988 102.722 60.3675 104.345 54.8346 107.064C49.4583 109.705 44.6575 113.278 40.5655 117.683C32.1574 126.734 27.5268 138.527 27.5268 150.889C27.5268 157.477 28.817 163.868 31.3615 169.884C32.5845 172.775 34.0982 175.564 35.8607 178.173C37.6065 180.757 39.6115 183.187 41.82 185.395C44.0285 187.604 46.4586 189.609 49.0427 191.355C51.6516 193.117 54.4404 194.631 57.3318 195.854C63.3477 198.398 69.7385 199.689 76.3267 199.689H208.065H216.386ZM216.386 200.377H208.065H76.3267C48.9953 200.377 26.8386 178.22 26.8386 150.889C26.8386 124.875 46.9088 103.549 72.4098 101.553C76.6279 71.4537 102.48 48.2917 133.743 48.2917C156.935 48.2917 177.15 61.0389 187.763 79.9104C194.123 77.7046 200.954 76.5063 208.065 76.5063C242.271 76.5063 270 104.236 270 138.442C270 148.39 267.654 157.792 263.486 166.122C257.061 186 238.403 200.377 216.386 200.377Z" fill="white" fill-opacity="0.5"/>
</g>
<defs>
<filter id="filter0_f_64_1627" x="47.4225" y="0.139404" width="108.045" height="105.509" filterUnits="userSpaceOnUse" color-interpolation-filters="sRGB">
<feFlood flood-opacity="0" result="BackgroundImageFix"/>
<feBlend mode="normal" in="SourceGraphic" in2="BackgroundImageFix" result="shape"/>
<feGaussianBlur stdDeviation="10" result="effect1_foregroundBlur_64_1627"/>
</filter>
<filter id="filter1_d_64_1627" x="6.83862" y="20.2917" width="303.161" height="212.085" filterUnits="userSpaceOnUse" color-interpolation-filters="sRGB">
<feFlood flood-opacity="0" result="BackgroundImageFix"/>
<feColorMatrix in="SourceAlpha" type="matrix" values="0 0 0 0 0 0 0 0 0 0 0 0 0 0 0 0 0 0 127 0" result="hardAlpha"/>
<feOffset dx="10" dy="2"/>
<feGaussianBlur stdDeviation="15"/>
<feColorMatrix type="matrix" values="0 0 0 0 0.258824 0 0 0 0 0.627451 0 0 0 0 0.941176 0 0 0 0.596 0"/>
<feBlend mode="normal" in2="BackgroundImageFix" result="effect1_dropShadow_64_1627"/>
<feBlend mode="normal" in="SourceGraphic" in2="effect1_dropShadow_64_1627" result="shape"/>
</filter>
<linearGradient id="paint0_linear_64_1627" x1="148.437" y1="48.2935" x2="219.072" y2="219.072" gradientUnits="userSpaceOnUse">
<stop stop-color="white" stop-opacity="0.604"/>
<stop offset="1" stop-color="white" stop-opacity="0.2"/>
</linearGradient>
</defs>
</svg>
