<svg width="353" height="256" viewBox="0 0 353 256" fill="none" xmlns="http://www.w3.org/2000/svg">
<g filter="url(#filter0_f_63_243)">
<path d="M89.2937 173.472C132.168 173.472 166.924 138.54 166.924 95.4478C166.924 52.356 132.168 17.4232 89.2937 17.4232C46.4196 17.4232 11.6632 52.356 11.6632 95.4478C11.6632 138.54 46.4196 173.472 89.2937 173.472Z" fill="#FA9E42"/>
<g filter="url(#filter1_f_63_243)">
<path d="M83.6842 84.3519C109.485 70.6481 123.916 47.33 115.916 32.2695C107.917 17.2089 80.5168 16.1091 54.7162 29.813C28.9155 43.5168 14.4847 66.8349 22.484 81.8955C30.4833 96.956 57.8836 98.0558 83.6842 84.3519Z" fill="#F8E36F"/>
</g>
<g filter="url(#filter2_d_63_243)">
<path d="M242.068 223.913H91.1955C76.5596 223.901 62.4955 218.229 51.9473 208.083C41.399 197.937 35.1846 184.104 34.6049 169.479C34.0253 154.855 39.1253 140.573 48.8373 129.624C58.5493 118.675 72.1204 111.907 86.7095 110.737C88.7899 96.0468 95.4238 82.378 105.678 71.6542C115.932 60.9304 129.29 53.6912 143.873 50.9552C158.456 48.2191 173.529 50.1238 186.973 56.4014C200.417 62.679 211.554 73.0134 218.818 85.9509C232.142 81.3388 246.537 80.7999 260.168 84.403C273.799 88.006 286.048 95.5878 295.352 106.181C304.656 116.774 310.594 129.899 312.408 143.881C314.222 157.863 311.83 172.068 305.538 184.685C301.845 196.084 294.636 206.02 284.945 213.068C275.255 220.115 263.581 223.912 251.598 223.913H242.068Z" fill="url(#paint0_linear_63_243)"/>
<path d="M251.598 223.124C257.682 223.124 263.664 222.153 269.377 220.237C274.902 218.384 280.089 215.68 284.794 212.201C289.445 208.762 293.522 204.641 296.912 199.955C300.344 195.211 302.994 189.992 304.788 184.442L304.806 184.386L304.833 184.332C307.219 179.566 309.056 174.523 310.293 169.345C311.566 164.017 312.212 158.511 312.212 152.981C312.212 148.221 311.732 143.465 310.787 138.844C309.865 134.34 308.49 129.911 306.7 125.678C304.942 121.522 302.766 117.513 300.233 113.764C297.723 110.049 294.842 106.556 291.667 103.382C288.493 100.208 285 97.3258 281.286 94.8164C277.536 92.2831 273.527 90.1072 269.371 88.3493C265.138 86.559 260.709 85.184 256.206 84.2625C251.585 83.3169 246.828 82.8374 242.069 82.8374C234.188 82.8374 226.452 84.1344 219.076 86.6923L218.454 86.9081L218.131 86.334C212.129 75.6613 203.398 66.6982 192.883 60.4139C187.565 57.2357 181.852 54.7797 175.902 53.1141C169.763 51.3958 163.387 50.5246 156.951 50.5246C148.293 50.5246 139.842 52.0827 131.833 55.1556C124.095 58.1242 116.997 62.4125 110.735 67.9012C104.509 73.3584 99.3429 79.7973 95.3792 87.0392C91.3181 94.4588 88.6637 102.468 87.49 110.844L87.4021 111.471L86.771 111.52C79.7108 112.073 72.918 113.932 66.5814 117.045C60.4242 120.07 54.9261 124.162 50.2397 129.207C40.6103 139.573 35.3071 153.078 35.3071 167.236C35.3071 174.781 36.7846 182.1 39.6987 188.99C41.0994 192.301 42.833 195.495 44.8515 198.483C46.8509 201.442 49.1472 204.225 51.6764 206.755C54.2056 209.284 56.9887 211.58 59.9483 213.58C62.936 215.598 66.1299 217.332 69.4414 218.732C76.331 221.646 83.6501 223.124 91.1953 223.124H242.069H251.598ZM251.598 223.912H242.069H91.1953C59.894 223.912 34.519 198.537 34.519 167.236C34.519 137.444 57.5044 113.02 86.7095 110.734C91.5403 76.2627 121.147 49.7365 156.951 49.7365C183.512 49.7365 206.664 64.335 218.818 85.9477C226.102 83.4215 233.925 82.0493 242.069 82.0493C281.243 82.0493 313 113.807 313 152.981C313 164.376 310.313 175.144 305.538 184.685C298.179 207.448 276.811 223.912 251.598 223.912Z" fill="white" fill-opacity="0.5"/>
</g>
</g>
<defs>
<filter id="filter0_f_63_243" x="7.66321" y="13.4232" width="309.337" height="214.489" filterUnits="userSpaceOnUse" color-interpolation-filters="sRGB">
<feFlood flood-opacity="0" result="BackgroundImageFix"/>
<feBlend mode="normal" in="SourceGraphic" in2="BackgroundImageFix" result="shape"/>
<feGaussianBlur stdDeviation="2" result="effect1_foregroundBlur_63_243"/>
</filter>
<filter id="filter1_f_63_243" x="0.277161" y="0.213379" width="137.846" height="113.738" filterUnits="userSpaceOnUse" color-interpolation-filters="sRGB">
<feFlood flood-opacity="0" result="BackgroundImageFix"/>
<feBlend mode="normal" in="SourceGraphic" in2="BackgroundImageFix" result="shape"/>
<feGaussianBlur stdDeviation="10" result="effect1_foregroundBlur_63_243"/>
</filter>
<filter id="filter2_d_63_243" x="14.519" y="21.7365" width="338.481" height="234.176" filterUnits="userSpaceOnUse" color-interpolation-filters="sRGB">
<feFlood flood-opacity="0" result="BackgroundImageFix"/>
<feColorMatrix in="SourceAlpha" type="matrix" values="0 0 0 0 0 0 0 0 0 0 0 0 0 0 0 0 0 0 127 0" result="hardAlpha"/>
<feOffset dx="10" dy="2"/>
<feGaussianBlur stdDeviation="15"/>
<feColorMatrix type="matrix" values="0 0 0 0 0.258824 0 0 0 0 0.627451 0 0 0 0 0.941176 0 0 0 0.596 0"/>
<feBlend mode="normal" in2="BackgroundImageFix" result="effect1_dropShadow_63_243"/>
<feBlend mode="normal" in="SourceGraphic" in2="effect1_dropShadow_63_243" result="shape"/>
</filter>
<linearGradient id="paint0_linear_63_243" x1="173.779" y1="49.7384" x2="254.675" y2="245.323" gradientUnits="userSpaceOnUse">
<stop stop-color="white" stop-opacity="0.604"/>
<stop offset="1" stop-color="white" stop-opacity="0.2"/>
</linearGradient>
</defs>
</svg>
