<svg width="329" height="228" viewBox="0 0 329 228" fill="none" xmlns="http://www.w3.org/2000/svg">
<g filter="url(#filter0_f_63_252)">
<g filter="url(#filter1_d_63_252)">
<path d="M220.19 196H74.6669C60.55 195.989 46.9845 190.518 36.8104 180.732C26.6362 170.945 20.6421 157.603 20.083 143.497C19.5239 129.391 24.443 115.616 33.8107 105.055C43.1783 94.4939 56.2682 87.9661 70.3399 86.8381C72.3466 72.6683 78.7453 59.4842 88.6357 49.1406C98.5261 38.7971 111.411 31.8146 125.476 29.1756C139.542 26.5365 154.081 28.3737 167.048 34.4287C180.015 40.4837 190.758 50.4517 197.765 62.9304C210.615 58.4819 224.5 57.962 237.647 61.4371C250.794 64.9122 262.609 72.2247 271.583 82.4419C280.557 92.6591 286.285 105.318 288.035 118.804C289.785 132.289 287.479 145.991 281.41 158.161C277.849 169.156 270.896 178.741 261.548 185.539C252.201 192.338 240.94 196 229.382 196H220.19Z" fill="url(#paint0_linear_63_252)"/>
<path d="M229.382 195.239C235.251 195.239 241.021 194.302 246.532 192.454C251.862 190.667 256.865 188.059 261.403 184.703C265.889 181.385 269.822 177.411 273.091 172.891C276.401 168.314 278.957 163.279 280.687 157.926L280.705 157.872L280.731 157.82C283.031 153.223 284.802 148.36 285.996 143.366C287.224 138.226 287.846 132.916 287.846 127.583C287.846 122.992 287.384 118.405 286.472 113.948C285.583 109.604 284.257 105.332 282.53 101.249C280.834 97.2401 278.736 93.3737 276.292 89.7568C273.872 86.1742 271.092 82.8051 268.03 79.7434C264.969 76.6816 261.6 73.9019 258.017 71.4814C254.4 69.0379 250.534 66.9393 246.525 65.2437C242.442 63.5169 238.17 62.1906 233.826 61.3018C229.369 60.3897 224.781 59.9272 220.19 59.9272C212.589 59.9272 205.127 61.1782 198.013 63.6455L197.413 63.8537L197.102 63.2999C191.312 53.0056 182.891 44.3604 172.748 38.2988C167.619 35.2333 162.108 32.8644 156.369 31.2579C150.449 29.6005 144.299 28.7602 138.091 28.7602C129.74 28.7602 121.589 30.2631 113.863 33.227C106.4 36.0904 99.553 40.2265 93.5135 45.5206C87.5086 50.7843 82.5254 56.995 78.7022 63.98C74.7851 71.1366 72.2249 78.8616 71.0927 86.9406L71.008 87.5453L70.3992 87.5929C63.5894 88.126 57.0375 89.9189 50.9255 92.9219C44.9867 95.8399 39.6835 99.7866 35.1633 104.652C25.8753 114.651 20.7602 127.677 20.7602 141.333C20.7602 148.611 22.1853 155.67 24.9961 162.315C26.3471 165.51 28.0193 168.59 29.9661 171.472C31.8947 174.327 34.1095 177.011 36.5491 179.451C38.9886 181.89 41.673 184.105 44.5276 186.033C47.4094 187.98 50.4901 189.653 53.6841 191.004C60.3295 193.814 67.389 195.239 74.6667 195.239H220.19H229.382ZM229.382 196H220.19H74.6667C44.4752 196 20 171.524 20 141.333C20 112.597 42.1704 89.04 70.3399 86.8351C74.9994 53.5857 103.557 28 138.091 28C163.71 28 186.041 42.081 197.764 62.9273C204.79 60.4906 212.335 59.167 220.19 59.167C257.976 59.167 288.606 89.7984 288.606 127.583C288.606 138.573 286.015 148.959 281.41 158.16C274.314 180.118 253.703 196 229.382 196Z" fill="white" fill-opacity="0.5"/>
</g>
</g>
<defs>
<filter id="filter0_f_63_252" x="16" y="24" width="276.606" height="176" filterUnits="userSpaceOnUse" color-interpolation-filters="sRGB">
<feFlood flood-opacity="0" result="BackgroundImageFix"/>
<feBlend mode="normal" in="SourceGraphic" in2="BackgroundImageFix" result="shape"/>
<feGaussianBlur stdDeviation="2" result="effect1_foregroundBlur_63_252"/>
</filter>
<filter id="filter1_d_63_252" x="0" y="0" width="328.606" height="228" filterUnits="userSpaceOnUse" color-interpolation-filters="sRGB">
<feFlood flood-opacity="0" result="BackgroundImageFix"/>
<feColorMatrix in="SourceAlpha" type="matrix" values="0 0 0 0 0 0 0 0 0 0 0 0 0 0 0 0 0 0 127 0" result="hardAlpha"/>
<feOffset dx="10" dy="2"/>
<feGaussianBlur stdDeviation="15"/>
<feColorMatrix type="matrix" values="0 0 0 0 0.258824 0 0 0 0 0.627451 0 0 0 0 0.941176 0 0 0 0.596 0"/>
<feBlend mode="normal" in2="BackgroundImageFix" result="effect1_dropShadow_63_252"/>
<feBlend mode="normal" in="SourceGraphic" in2="effect1_dropShadow_63_252" result="shape"/>
</filter>
<linearGradient id="paint0_linear_63_252" x1="154.322" y1="28.002" x2="232.349" y2="216.651" gradientUnits="userSpaceOnUse">
<stop stop-color="white" stop-opacity="0.604"/>
<stop offset="1" stop-color="white" stop-opacity="0.2"/>
</linearGradient>
</defs>
</svg>
