<svg width="317" height="237" viewBox="0 0 317 237" fill="none" xmlns="http://www.w3.org/2000/svg">
<g filter="url(#filter0_f_63_257)">
<path d="M216.235 138.102C216.235 138.102 202.588 150.388 191.923 149.981C178.553 149.46 176.263 138.752 163.874 138.102C150.906 138.23 149.583 149.337 135.527 149.981C122.934 149.831 117.599 138.302 105.595 138.102C93.5909 137.901 80.7927 149.981 80.7927 149.981" stroke="white" stroke-width="20" stroke-linecap="round"/>
<path d="M169.685 177.377C169.685 177.377 156.039 189.664 145.373 189.257C132.004 188.736 129.714 178.028 117.325 177.377C104.357 177.506 103.034 188.613 88.9782 189.257C76.3844 189.107 71.0494 177.578 59.0455 177.377C47.0416 177.177 34.2434 189.257 34.2434 189.257" stroke="white" stroke-width="20" stroke-linecap="round"/>
<path d="M240.964 210.835C240.964 210.835 227.318 223.121 216.652 222.715C203.282 222.193 200.993 211.485 188.603 210.835C175.636 210.964 174.313 222.07 160.257 222.715C147.663 222.565 142.328 211.036 130.324 210.835C118.32 210.634 105.522 222.715 105.522 222.715" stroke="white" stroke-width="20" stroke-linecap="round"/>
<g filter="url(#filter1_d_63_257)">
<path d="M211.54 188.741H72.3048C58.7979 188.73 45.8186 183.496 36.084 174.132C26.3494 164.769 20.6144 152.003 20.0794 138.506C19.5444 125.01 24.2511 111.83 33.2139 101.725C42.1768 91.6207 54.7011 85.375 68.1648 84.2956C70.0848 70.7381 76.2069 58.1237 85.67 48.2271C95.133 38.3305 107.461 31.6498 120.919 29.1247C134.377 26.5997 148.288 28.3575 160.694 34.1509C173.101 39.9442 183.38 49.4815 190.083 61.421C202.379 57.1646 215.664 56.6673 228.243 59.9925C240.823 63.3176 252.127 70.3145 260.713 80.0907C269.3 89.8668 274.78 101.979 276.454 114.882C278.128 127.786 275.921 140.895 270.113 152.539C266.705 163.059 260.052 172.229 251.109 178.733C242.166 185.236 231.393 188.74 220.335 188.741H211.54Z" fill="url(#paint0_linear_63_257)"/>
<path d="M220.335 188.013C225.949 188.013 231.469 187.117 236.742 185.348C241.841 183.639 246.628 181.144 250.97 177.932C255.262 174.758 259.025 170.956 262.153 166.631C265.32 162.253 267.766 157.436 269.421 152.315L269.438 152.263L269.463 152.213C271.665 147.815 273.36 143.161 274.502 138.382C275.677 133.465 276.273 128.384 276.273 123.28C276.273 118.888 275.83 114.498 274.958 110.234C274.107 106.078 272.838 101.99 271.186 98.0838C269.564 94.2483 267.556 90.5489 265.218 87.0883C262.902 83.6605 260.242 80.437 257.313 77.5075C254.383 74.578 251.16 71.9185 247.732 69.6026C244.271 67.2647 240.572 65.2567 236.736 63.6344C232.83 61.9822 228.742 60.7132 224.587 59.8628C220.322 58.9901 215.932 58.5477 211.54 58.5477C204.267 58.5477 197.128 59.7446 190.321 62.1052L189.747 62.3044L189.449 61.7745C183.91 51.9251 175.853 43.6534 166.148 37.8538C161.24 34.9207 155.968 32.6542 150.477 31.1171C144.812 29.5314 138.928 28.7273 132.988 28.7273C124.998 28.7273 117.199 30.1653 109.807 33.0012C102.666 35.7408 96.1156 39.6982 90.337 44.7636C84.5916 49.7998 79.8237 55.7421 76.1657 62.4253C72.4178 69.2726 69.9683 76.6639 68.885 84.3937L68.804 84.9723L68.2215 85.0179C61.7059 85.5279 55.4371 87.2434 49.5892 90.1166C43.907 92.9085 38.833 96.6847 34.5081 101.34C25.6215 110.906 20.7273 123.37 20.7273 136.436C20.7273 143.399 22.0909 150.154 24.7802 156.512C26.0728 159.568 27.6727 162.515 29.5355 165.273C31.3807 168.004 33.4998 170.572 35.834 172.906C38.1681 175.241 40.7365 177.36 43.4678 179.205C46.2251 181.068 49.1726 182.668 52.2286 183.96C58.5868 186.649 65.3414 188.013 72.3045 188.013H211.54H220.335ZM220.335 188.74H211.54H72.3045C43.4177 188.74 20 165.323 20 136.436C20 108.942 41.2124 86.4025 68.1647 84.2928C72.6229 52.4801 99.9463 28 132.988 28C157.501 28 178.866 41.4725 190.083 61.418C196.805 59.0867 204.024 57.8203 211.54 57.8203C247.692 57.8203 277 87.1281 277 123.28C277 133.797 274.52 143.734 270.113 152.539C263.322 173.546 243.602 188.74 220.335 188.74Z" fill="white" fill-opacity="0.5"/>
</g>
</g>
<defs>
<filter id="filter0_f_63_257" x="16" y="24" width="265" height="212.724" filterUnits="userSpaceOnUse" color-interpolation-filters="sRGB">
<feFlood flood-opacity="0" result="BackgroundImageFix"/>
<feBlend mode="normal" in="SourceGraphic" in2="BackgroundImageFix" result="shape"/>
<feGaussianBlur stdDeviation="2" result="effect1_foregroundBlur_63_257"/>
</filter>
<filter id="filter1_d_63_257" x="0" y="0" width="317" height="220.741" filterUnits="userSpaceOnUse" color-interpolation-filters="sRGB">
<feFlood flood-opacity="0" result="BackgroundImageFix"/>
<feColorMatrix in="SourceAlpha" type="matrix" values="0 0 0 0 0 0 0 0 0 0 0 0 0 0 0 0 0 0 127 0" result="hardAlpha"/>
<feOffset dx="10" dy="2"/>
<feGaussianBlur stdDeviation="15"/>
<feColorMatrix type="matrix" values="0 0 0 0 0.258824 0 0 0 0 0.627451 0 0 0 0 0.941176 0 0 0 0.596 0"/>
<feBlend mode="normal" in2="BackgroundImageFix" result="effect1_dropShadow_63_257"/>
<feBlend mode="normal" in="SourceGraphic" in2="effect1_dropShadow_63_257" result="shape"/>
</filter>
<linearGradient id="paint0_linear_63_257" x1="148.518" y1="28.0018" x2="223.174" y2="208.5" gradientUnits="userSpaceOnUse">
<stop stop-color="white" stop-opacity="0.604"/>
<stop offset="1" stop-color="white" stop-opacity="0.2"/>
</linearGradient>
</defs>
</svg>
