<svg width="44" height="58" viewBox="0 0 44 58" fill="none" xmlns="http://www.w3.org/2000/svg">
<path d="M41.536 11.48C38.656 7.736 34.144 6.152 29.536 6.152C19.456 6.152 12.256 14.024 12.256 24.008C12.256 34.328 19.792 41.864 29.536 41.864C34.96 41.864 39.376 39.992 42.4 35.912L39.376 33.368C36.976 36.44 33.664 38.12 29.536 38.12C21.904 38.12 16.576 31.88 16.576 24.008C16.576 16.568 21.952 9.896 29.536 9.896C32.8 9.896 36.016 11.288 38.032 14.024L41.536 11.48Z" fill="url(#paint0_linear_5_162)"/>
<path d="M2.32 12.464C1.2 11.312 0.64 9.89333 0.64 8.208C0.64 6.52267 1.2 5.10933 2.32 3.968C3.45067 2.816 4.85333 2.24 6.528 2.24C8.20267 2.24 9.6 2.816 10.72 3.968C11.8507 5.10933 12.416 6.52267 12.416 8.208C12.416 9.89333 11.8507 11.312 10.72 12.464C9.6 13.6053 8.20267 14.176 6.528 14.176C4.85333 14.176 3.45067 13.6053 2.32 12.464ZM3.392 4.976C2.57067 5.85067 2.16 6.928 2.16 8.208C2.16 9.488 2.57067 10.5707 3.392 11.456C4.224 12.3307 5.26933 12.768 6.528 12.768C7.78667 12.768 8.82667 12.3307 9.648 11.456C10.48 10.5707 10.896 9.488 10.896 8.208C10.896 6.928 10.48 5.85067 9.648 4.976C8.82667 4.09067 7.78667 3.648 6.528 3.648C5.26933 3.648 4.224 4.09067 3.392 4.976Z" fill="url(#paint1_linear_5_162)"/>
<defs>
<linearGradient id="paint0_linear_5_162" x1="27" y1="0" x2="27" y2="58" gradientUnits="userSpaceOnUse">
<stop stop-color="#1D1D1D"/>
<stop offset="1" stop-color="#1D1D1D" stop-opacity="0"/>
</linearGradient>
<linearGradient id="paint1_linear_5_162" x1="7" y1="0" x2="7" y2="19" gradientUnits="userSpaceOnUse">
<stop stop-color="#1D1D1D"/>
<stop offset="1" stop-color="#1D1D1D" stop-opacity="0"/>
</linearGradient>
</defs>
</svg>
